<svg xmlns="http://www.w3.org/2000/svg" width="33" height="32" viewBox="0 0 33 32">
  <g fill-rule="evenodd" transform="translate(-1)">
    <path d="M26.4365 24.583L26.3315 24.583C26.3265 24.583 26.3215 24.582 26.3165 24.582 26.3085 24.582 26.3005 24.583 26.2925 24.583L24.1075 24.583 24.1075 26.303 26.4365 26.303C26.8795 26.303 27.2545 25.909 27.2545 25.442 27.2545 24.977 26.8795 24.583 26.4365 24.583M26.3618 22.2104C26.3618 21.7494 25.9868 21.3594 25.5448 21.3594L24.1068 21.3594 24.1068 22.8634 26.0528 22.8634C26.1988 22.7554 26.3618 22.5174 26.3618 22.2104"/>
    <path d="M26.4365,28.022 L23.2835,28.022 C22.8085,28.022 22.3875,27.609 22.3875,27.134 L22.3875,20.471 C22.3875,19.997 22.8085,19.64 23.2835,19.64 L25.5445,19.64 C26.9435,19.64 28.0815,20.779 28.0815,22.197 C28.0815,22.577 27.9965,22.937 27.8375,23.273 C28.5215,23.735 28.9735,24.537 28.9735,25.433 C28.9735,26.854 27.8355,28.022 26.4365,28.022 M18.4115,20.179 L18.4115,21.645 C18.3045,20.964 17.9565,20.315 17.4295,19.788 L13.5265,15.891 C14.1105,16.281 14.8225,16.523 15.5765,16.523 L22.1315,16.523 C20.1005,16.523 18.4115,18.148 18.4115,20.179 M15.2405,22.69 C15.0855,23.14 14.5965,23.378 14.1475,23.224 L12.8795,22.787 L10.1575,25.509 L10.5835,26.803 C10.7315,27.254 10.4865,27.74 10.0355,27.888 C9.9465,27.918 9.8555,27.931 9.7675,27.931 C9.4055,27.931 9.0685,27.702 8.9505,27.34 L6.6255,20.273 C6.5235,19.962 6.6055,19.622 6.8385,19.392 C7.0705,19.163 7.4135,19.085 7.7225,19.191 L14.7075,21.598 C15.1565,21.753 15.3955,22.242 15.2405,22.69 M20.1985,3.897 C21.4415,3.897 22.6145,4.379 23.4995,5.252 C23.8375,5.585 23.8415,6.13 23.5085,6.468 C23.1745,6.806 22.6305,6.81 22.2925,6.476 C21.7305,5.922 20.9865,5.617 20.1985,5.617 C18.5535,5.617 17.2155,6.955 17.2155,8.6 C17.2155,10.245 18.5535,11.583 20.1985,11.583 C21.0695,11.583 21.8945,11.203 22.4635,10.541 C22.7725,10.18 23.3145,10.138 23.6755,10.448 C24.0365,10.756 24.0775,11.299 23.7685,11.66 C22.8735,12.704 21.5725,13.302 20.1985,13.302 C17.6045,13.302 15.4955,11.193 15.4955,8.6 C15.4965,6.007 17.6055,3.897 20.1985,3.897 M29.3785,16.523 L23.8975,16.523 C25.9295,16.523 27.5455,14.843 27.5455,12.812 L27.5455,4.49 C27.5455,2.459 25.9295,0.834 23.8975,0.834 L15.5765,0.834 C13.5445,0.834 11.8565,2.459 11.8565,4.49 L11.8565,12.812 C11.8565,13.565 12.1025,14.267 12.4925,14.852 L12.3455,14.695 C11.6515,14.001 10.7315,13.62 9.7445,13.62 C8.7585,13.62 7.8355,14.001 7.1425,14.695 L2.0505,19.788 C0.6145,21.224 0.6145,23.562 2.0505,24.998 L7.1445,30.091 C7.8375,30.784 8.7635,31.166 9.7495,31.166 C10.7355,31.166 11.6605,30.784 12.3545,30.091 L17.4295,24.998 C17.9565,24.471 18.3045,23.822 18.4115,23.141 L18.4115,27.426 C18.4115,29.458 20.1005,31.138 22.1305,31.138 L29.3775,31.138 C31.4095,31.138 33.0265,29.458 33.0265,27.426 L33.0265,20.179 C33.0265,18.148 31.4095,16.523 29.3785,16.523"/>
    <polygon points="9.556 23.679 11.071 22.164 8.8 21.381"/>
  </g>
</svg>
