<svg xmlns="http://www.w3.org/2000/svg" width="36" height="29" viewBox="0 0 36 29">
  <g fill="none" fill-rule="evenodd">
    <path fill="#3E92CB" d="M6.82128978,17.0011374 C6.82270812,17.0032701 6.77732122,17.0587204 6.7276793,17.2421327 C6.64612472,17.5407109 6.67378236,17.7888152 6.80781555,17.9814692 C7.03971424,18.3127488 7.58577537,18.5281517 8.34742428,18.59 C8.74455965,18.6227014 9.13460332,18.639763 9.50620856,18.639763 C10.3267186,18.639763 10.857178,18.561564 11.1727588,18.4819431 C10.5997492,18.1570616 9.3381352,17.69 8.73321293,17.4660664 L8.73250376,17.4660664 C7.83682166,17.1340758 7.29005135,16.9862085 6.96099633,16.9862085 C6.86596751,16.9862085 6.82838148,16.9990047 6.82128978,17.0011374 L6.82128978,17.0011374 Z M11.444371,18.6817062 L11.4514627,18.6817062 L11.444371,18.6817062 Z M9.50620856,20.2080095 C9.09134393,20.2080095 8.65945921,20.1895261 8.22048279,20.153981 C6.96879721,20.0516114 6.03765659,19.611564 5.52776314,18.8821801 C5.12424524,18.3077725 5.01432384,17.5783886 5.21785572,16.8290995 C5.4738662,15.8921327 6.06035004,15.4172512 6.96099633,15.4172512 C7.50492996,15.4172512 8.15382079,15.5793365 9.27572821,15.9945024 C11.3933107,16.7793365 12.6981841,17.3231754 12.9534854,18.2700948 C13.0556059,18.6447393 12.9853981,19.0172512 12.7563361,19.318673 C12.5889719,19.5383412 12.0790784,20.2080095 9.50620856,20.2080095 L9.50620856,20.2080095 Z"/>
    <path fill="#2D2F33" d="M9.68704699,24.0511374 L25.9171186,24.0511374 C26.3490033,24.0511374 26.6993334,24.4016114 26.6993334,24.8352607 L26.6993334,26.7490047 C26.6993334,26.9324171 26.7170627,27.1677251 26.7993265,27.2494787 C26.9709457,27.4208057 27.6829527,27.4357346 28.3360985,27.4357346 L29.7360007,27.4293365 C31.5918994,27.4293365 32.0344217,27.2715166 32.131578,27.1762559 C32.1294505,27.175545 32.1436339,27.1321801 32.1436339,27.025545 L32.1436339,16.8369194 C32.1436339,15.9937915 32.0769719,15.2445024 32.0372583,14.8727014 C32.011019,14.6373934 32.093992,14.4027962 32.260647,14.2350237 C32.427302,14.0672512 32.6592007,13.9847867 32.8974819,14.0089573 C33.4619815,14.0693839 33.8023832,14.0580095 33.9690383,14.0395261 C34.0208077,13.6954502 33.9286155,12.9056398 33.4662365,12.0809953 C33.1130697,11.4511374 32.1485981,11.5570616 31.7479169,11.6317062 C31.3564548,11.7077725 30.9579011,11.4625118 30.8508164,11.068673 C30.1054784,8.35090047 28.892088,4.76227488 27.9233614,3.5963981 C27.2957457,2.8414218 25.1462505,1.57459716 17.8020828,1.57459716 C10.4579151,1.57459716 8.30841991,2.8414218 7.68080419,3.5963981 C6.71136838,4.76227488 5.49797799,8.35018957 4.75334917,11.068673 C4.64626445,11.4618009 4.24912908,11.7063507 3.85553956,11.6317062 C3.45627668,11.5563507 2.49180507,11.4511374 2.13863825,12.0802844 C1.66633083,12.9205687 1.57910288,13.7253081 1.63299983,14.0423697 C1.78759895,14.0587204 2.13580157,14.068673 2.70739284,14.0089573 C2.9470924,13.9854976 3.17544524,14.0672512 3.34280943,14.2350237 C3.50946445,14.4020853 3.59172821,14.6359716 3.56690725,14.8712796 C3.51868367,15.3333649 3.4605317,16.0485308 3.4605317,16.8369194 L3.4605317,27.025545 C3.4605317,27.1456872 3.47755179,27.1847867 3.47755179,27.1847867 C3.56548891,27.2693839 4.00304699,27.4293365 5.86887406,27.4293365 L7.26806707,27.4357346 C7.92121293,27.4357346 8.63321991,27.4208057 8.80483913,27.2494787 C8.88710288,27.1677251 8.90412297,26.9324171 8.90412297,26.7490047 L8.90412297,24.8352607 C8.90412297,24.4016114 9.25516227,24.0511374 9.68704699,24.0511374 L9.68704699,24.0511374 Z M28.3360985,29.003981 C27.1312182,29.003981 26.2958155,28.9591943 25.6965666,28.3620379 C25.1930557,27.8608531 25.1341946,27.2018483 25.1341946,26.7490047 L25.1341946,25.6193839 L10.469971,25.6193839 L10.469971,26.7490047 C10.469971,27.2018483 10.4111099,27.8608531 9.90759895,28.3627488 C9.30835004,28.9591943 8.47294742,29.003981 7.26806707,29.003981 L5.86887406,28.9975829 C4.00659284,28.9975829 1.89539284,28.9975829 1.89539284,27.025545 L1.89539284,16.8369194 C1.89539284,16.4025592 1.91170376,15.9895261 1.93439721,15.6227014 C1.308909,15.6198578 1.01389415,15.5167773 0.836601572,15.4264929 C0.606830393,15.3099052 0.301887162,15.0646445 0.149415546,14.5591943 C-0.101630742,13.7295735 0.150833886,12.4243602 0.774903755,11.31109 C1.26848629,10.4317062 2.23863127,9.96677725 3.42578236,10.0094313 C3.97609852,8.0907109 5.22494742,4.10042654 6.47876052,2.59260664 C7.92546795,0.852322275 11.6287553,0.0063507109 17.8013736,0.0063507109 C23.973992,0.0063507109 27.6786976,0.852322275 29.1254051,2.59189573 C30.378509,4.10113744 31.6273579,8.0907109 32.1783832,10.0094313 C33.3853911,9.96393365 34.3356793,10.4324171 34.8292618,11.3118009 L34.829971,11.3118009 C35.4540409,12.4250711 35.7050872,13.7295735 35.45475,14.5591943 C35.3029876,15.0632227 34.9973352,15.3091943 34.7682732,15.425782 C34.5902714,15.5167773 34.2945474,15.6205687 33.6690592,15.6234123 C33.6917527,15.9809953 33.7087728,16.396872 33.7087728,16.8369194 L33.7087728,27.025545 C33.7087728,28.9975829 31.5975728,28.9975829 29.7360007,28.9975829 L28.3360985,29.003981 Z"/>
    <path fill="#2D2F33" d="M7.65768524,11.2716351 C9.03205729,11.6569431 14.0522739,12.1453318 17.8023665,12.1453318 C21.552459,12.1453318 26.5726756,11.6569431 27.9470477,11.2716351 C27.6974197,9.93940758 26.2109988,5.85315166 25.479135,5.08040284 C24.9472573,4.51879147 22.6509638,3.91950237 17.8023665,3.91950237 C12.9530599,3.91950237 10.6567665,4.51950237 10.1241796,5.08111374 C9.39231581,5.85386256 7.90660402,9.93940758 7.65768524,11.2716351 L7.65768524,11.2716351 Z M17.8023665,13.7142891 C17.6945726,13.7142891 6.91376559,13.593436 6.16559092,12.0927251 C5.59116297,10.9424882 8.14843109,4.88917062 8.98950707,4.00054502 C10.0277324,2.90575829 12.9927734,2.35125592 17.8023665,2.35125592 C22.6112503,2.35125592 25.5762914,2.90575829 26.6138075,3.99983412 C27.4555927,4.88917062 30.01357,10.9424882 29.439142,12.0920142 C28.689549,13.593436 17.9101603,13.7142891 17.8023665,13.7142891 L17.8023665,13.7142891 Z"/>
    <path fill="#3E92CB" d="M24.4542421,18.4916825 C24.766277,18.5649052 25.2924814,18.6395498 26.0973897,18.6395498 C26.4704133,18.6395498 26.8604569,18.6231991 27.256174,18.5904976 C28.0178229,18.5286493 28.5645932,18.3125355 28.7950735,17.9819668 C28.9305251,17.7893128 28.9581827,17.5404976 28.875919,17.2419194 C28.8276954,17.0627725 28.7830176,17.0059005 28.7752168,16.9959479 L28.7752168,16.9966588 C28.7695434,16.9966588 28.7298299,16.9859953 28.6433111,16.9859953 C28.3142561,16.9859953 27.7674858,17.1338626 26.8710945,17.466564 C26.277519,17.6855213 25.0542002,18.1390758 24.4542421,18.4916825 M26.0973897,20.2077962 C23.5238107,20.2077962 23.0153355,19.538128 22.8472622,19.3177488 C22.6182002,19.0170379 22.5479923,18.6438152 22.6501128,18.2691706 C22.9068325,17.3229621 24.2109967,16.7791232 26.3292884,15.995 C27.4504866,15.5791232 28.1000866,15.4170379 28.6433111,15.4170379 C29.5446666,15.4170379 30.1304412,15.8919194 30.3857425,16.8281754 C30.5892744,17.5781754 30.479353,18.3075592 30.0758351,18.8833886 C29.5666508,19.6113507 28.6355102,20.0513981 27.3838246,20.1537678 C26.9462666,20.1900237 26.5129635,20.2077962 26.0973897,20.2077962"/>
  </g>
</svg>
