<?xml version="1.0" encoding="UTF-8"?>
<svg width="30px" height="30px" viewBox="0 0 30 30" version="1.1" xmlns="http://www.w3.org/2000/svg" xmlns:xlink="http://www.w3.org/1999/xlink">
    <!-- Generator: Sketch 42 (36781) - http://www.bohemiancoding.com/sketch -->
    <title>icn-blog</title>
    <desc>Created with Sketch.</desc>
    <defs>
        <polygon id="path-1" points="14.9084235 29.816449 0 29.816449 0 0.00012244898 29.8168469 0.00012244898 29.8168469 29.816449"></polygon>
    </defs>
    <g id="Page-1" stroke="none" stroke-width="1" fill="none" fill-rule="evenodd">
        <g id="Artboard" transform="translate(-108.000000, -103.000000)">
            <g id="icn-blog" transform="translate(102.000000, 98.000000)">
                <g id="Page-1" transform="translate(6.000000, 5.000000)">
                    <mask id="mask-2" fill="white">
                        <use xlink:href="#path-1"></use>
                    </mask>
                    <g id="Clip-2"></g>
                    <path d="M26.4885306,8.67318367 L21.1442449,3.32889796 L21.909551,2.56420408 L27.252,7.9084898 L26.4885306,8.67318367 Z M9.4497551,24.1831837 L21.526898,12.1066531 C21.736898,11.8960408 21.736898,11.5525714 21.526898,11.3419592 C21.3162857,11.1313469 20.9752653,11.1313469 20.7640408,11.3419592 L8.68812245,23.419102 L6.11118367,23.7062449 L6.39832653,21.1293061 L18.4748571,9.05216327 C18.6860816,8.84155102 18.6860816,8.5017551 18.4748571,8.29053061 C18.2636327,8.07991837 17.924449,8.07991837 17.7132245,8.29053061 L5.63363265,20.3682857 L3.91567347,20.5574694 L18.8562857,5.61869388 L24.1987347,10.9599184 L9.25934694,25.9017551 L9.4497551,24.1831837 Z M2.67710204,27.1397143 C2.46710204,26.9284898 2.12608163,26.9284898 1.91240816,27.1397143 L1.50404082,27.5480816 L2.88220408,21.7586939 L5.26995918,21.4929796 L4.96444898,24.2566531 C4.96138776,24.2774694 4.97057143,24.2970612 4.97057143,24.3178776 C4.97057143,24.3386939 4.96138776,24.3570612 4.96444898,24.3754286 C4.96444898,24.3937959 4.97485714,24.4097143 4.97730612,24.4256327 C4.98587755,24.4568571 4.99383673,24.4862449 5.00730612,24.5150204 C5.02016327,24.5499184 5.03546939,24.5811429 5.05689796,24.6129796 C5.07281633,24.6393061 5.09118367,24.6601224 5.10955102,24.6809388 C5.13587755,24.7097143 5.16465306,24.7311429 5.19710204,24.7556327 C5.2197551,24.7709388 5.24363265,24.7862449 5.26995918,24.7997143 C5.30363265,24.8150204 5.34404082,24.8260408 5.38077551,24.834 C5.40281633,24.8395102 5.4175102,24.8499184 5.43893878,24.8523673 C5.4597551,24.8554286 5.47873469,24.8578776 5.49893878,24.8578776 L5.50261224,24.8578776 C5.52036735,24.8578776 5.53873469,24.8554286 5.55955102,24.8523673 L8.32506122,24.5468571 L8.0575102,26.934 L2.26812245,28.3121633 L2.67710204,27.9037959 C2.88832653,27.6931837 2.88832653,27.3503265 2.67710204,27.1397143 L2.67710204,27.1397143 Z M24.9634286,10.1982857 L19.6179184,4.85522449 L20.3826122,4.09359184 L25.7238367,9.43420408 L24.9634286,10.1982857 Z M27.6346531,2.18216327 C28.9754694,3.52665306 29.0917959,5.63706122 27.9842449,7.11502041 L22.7011837,1.83195918 C24.1822041,0.725020408 26.2913878,0.840734694 27.6346531,2.18216327 L27.6346531,2.18216327 Z M28.3956735,1.42114286 C26.5013878,-0.473755102 23.4205714,-0.473755102 21.526898,1.42114286 L2.06485714,20.8807347 C2.05506122,20.8917551 2.04955102,20.9027755 2.04159184,20.9125714 C2.03179592,20.9266531 2.02138776,20.938898 2.01097959,20.9529796 C1.98220408,20.9946122 1.96016327,21.0368571 1.94485714,21.081551 C1.93873469,21.0974694 1.932,21.1078776 1.92832653,21.1237959 C1.92587755,21.1293061 1.92342857,21.1342041 1.92159184,21.139102 L0.0132244898,29.1527755 C0.00587755102,29.1901224 0.00220408163,29.2262449 0.00220408163,29.2611429 C0.00220408163,29.269102 -0.000244897959,29.2770612 -0.000244897959,29.2819592 C-0.000244897959,29.3456327 0.0132244898,29.4031837 0.0346530612,29.4613469 C0.0395510204,29.4748163 0.0450612245,29.4876735 0.0493469388,29.5011429 C0.0756734694,29.5586939 0.111183673,29.6144082 0.158326531,29.6584898 C0.207918367,29.7111429 0.268530612,29.751551 0.334040816,29.7778776 C0.401387755,29.8042041 0.468734694,29.816449 0.537306122,29.816449 C0.580163265,29.816449 0.621795918,29.8146122 0.663428571,29.8042041 L8.67710204,27.8958367 C8.6942449,27.894 8.70404082,27.8854286 8.72057143,27.8799184 C8.73771429,27.8750204 8.75363265,27.8676735 8.772,27.859102 C8.81118367,27.8413469 8.84669388,27.8193061 8.8797551,27.7929796 C8.89383673,27.7831837 8.90608163,27.7746122 8.92077551,27.7642041 C8.92506122,27.7593061 8.92995918,27.7568571 8.93240816,27.7513469 L28.3956735,8.29053061 C30.2905714,6.3962449 30.2905714,3.31236735 28.3956735,1.42114286 L28.3956735,1.42114286 Z" id="Fill-1" fill="#42A2DB" mask="url(#mask-2)"></path>
                </g>
            </g>
        </g>
    </g>
</svg>