<svg xmlns="http://www.w3.org/2000/svg" width="75" height="75" viewBox="0 0 75 75">
  <g fill="none" fill-rule="evenodd">
    <path fill="#F26722" d="M74.8629887,37.51 C74.8629887,58.0888043 58.1889152,74.7725 37.6223958,74.7725 C17.0564197,74.7725 0.382889351,58.0888043 0.382889351,37.51 C0.382889351,16.9306522 17.0564197,0.248586957 37.6223958,0.248586957 C58.1889152,0.248586957 74.8629887,16.9306522 74.8629887,37.51"/>
    <path fill="#FFFFFF" d="M37.3971924 30.593913C37.3971924 30.1118478 37.3472196 29.6721739 37.253249 29.2765217 37.1598216 28.8786957 36.9957805 28.5417391 36.7600393 28.2607609 36.5232117 27.9797826 36.208709 27.7618478 35.8110994 27.6058696 35.4124035 27.4477174 34.9132187 27.3705435 34.3081134 27.3705435 33.7035513 27.3705435 33.2038234 27.4477174 32.8078433 27.6058696 32.4069746 27.7618478 32.0941015 27.9797826 31.8589035 28.2607609 31.6242486 28.5417391 31.4612939 28.8786957 31.3738415 29.2765217 31.2820437 29.6721739 31.2375027 30.1118478 31.2375027 30.593913 31.2375027 31.0754348 31.2820437 31.5156522 31.3738415 31.9123913 31.4612939 32.3096739 31.6242486 32.6498913 31.8589035 32.9352174 32.0941015 33.221087 32.4069746 33.446087 32.8078433 33.6058696 33.2038234 33.7705435 33.7035513 33.8515217 34.3081134 33.8515217 34.9132187 33.8515217 35.4124035 33.7705435 35.8110994 33.6058696 36.208709 33.446087 36.5232117 33.221087 36.7600393 32.9352174 36.9957805 32.6498913 37.1598216 32.3096739 37.253249 31.9123913 37.3472196 31.5156522 37.3971924 31.0754348 37.3971924 30.593913M27.6964959 30.5102174C27.6964959 29.57 27.818712 28.7325 28.0587987 27.9998913 28.2967126 27.2661957 28.6856313 26.6498913 29.2168638 26.1531522 29.7497258 25.6542391 30.4303335 25.2754348 31.2641186 25.0194565 32.0973606 24.7618478 33.1131119 24.633587 34.3081134 24.633587 35.4960536 24.633587 36.509089 24.7618478 37.3472196 25.0194565 38.1831774 25.2754348 38.869217 25.6542391 39.4015358 26.1531522 39.9338547 26.6498913 40.3211438 27.2661957 40.5579714 27.9998913 40.800774 28.7325 40.9197309 29.57 40.9197309 30.5102174 40.9197309 31.4607609 40.800774 32.3036957 40.5579714 33.0357609 40.3211438 33.7705435 39.9338547 34.3852174 39.4015358 34.8841304 38.869217 35.381413 38.1831774 35.7596739 37.3472196 36.0161957 36.509089 36.2738043 35.4960536 36.4042391 34.3081134 36.4042391 33.1131119 36.4042391 32.0973606 36.2738043 31.2641186 36.0161957 30.4303335 35.7596739 29.7497258 35.381413 29.2168638 34.8841304 28.6856313 34.3852174 28.2967126 33.7705435 28.0587987 33.0357609 27.818712 32.3036957 27.6964959 31.4607609 27.6964959 30.5102174M51.7692584 30.593913C51.7692584 30.1118478 51.7225447 29.6721739 51.6280309 29.2765217 51.5324308 28.8786957 51.3689329 28.5417391 51.1348212 28.2607609 50.89908 27.9797826 50.580775 27.7618478 50.1837086 27.6058696 49.7855558 27.4477174 49.2880007 27.3705435 48.6828954 27.3705435 48.0799628 27.3705435 47.5775189 27.4477174 47.1804525 27.6058696 46.7812134 27.7618478 46.4694266 27.9797826 46.235315 28.2607609 45.9984874 28.5417391 45.8344463 28.8786957 45.7469939 29.2765217 45.6573688 29.6721739 45.6122846 30.1118478 45.6122846 30.593913 45.6122846 31.0754348 45.6573688 31.5156522 45.7469939 31.9123913 45.8344463 32.3096739 45.9984874 32.6498913 46.235315 32.9352174 46.4694266 33.221087 46.7812134 33.446087 47.1804525 33.6058696 47.5775189 33.7705435 48.0799628 33.8515217 48.6828954 33.8515217 49.2880007 33.8515217 49.7855558 33.7705435 50.1837086 33.6058696 50.580775 33.446087 50.89908 33.221087 51.1348212 32.9352174 51.3689329 32.6498913 51.5324308 32.3096739 51.6280309 31.9123913 51.7225447 31.5156522 51.7692584 31.0754348 51.7692584 30.593913M42.0723642 30.5102174C42.0723642 29.57 42.190778 28.7325 42.4324942 27.9998913 42.669865 27.2661957 43.0609564 26.6498913 43.5889298 26.1531522 44.1207055 25.6542391 44.8045722 25.2754348 45.6378142 25.0194565 46.4710562 24.7618478 47.4851779 24.633587 48.6828954 24.633587 49.8681196 24.633587 50.8800686 24.7618478 51.7225447 25.0194565 52.5574162 25.2754348 53.2445421 25.6542391 53.7763177 26.1531522 54.3075502 26.6498913 54.6964689 27.2661957 54.9343829 27.9998913 55.1750127 28.7325 55.2934265 29.57 55.2934265 30.5102174 55.2934265 31.4607609 55.1750127 32.3036957 54.9343829 33.0357609 54.6964689 33.7705435 54.3075502 34.3852174 53.7763177 34.8841304 53.2445421 35.381413 52.5574162 35.7596739 51.7225447 36.0161957 50.8800686 36.2738043 49.8681196 36.4042391 48.6828954 36.4042391 47.4851779 36.4042391 46.4710562 36.2738043 45.6378142 36.0161957 44.8045722 35.7596739 44.1207055 35.381413 43.5889298 34.8841304 43.0609564 34.3852174 42.669865 33.7705435 42.4324942 33.0357609 42.190778 32.3036957 42.0723642 31.4607609 42.0723642 30.5102174M60.601243 33.4349457C60.7066204 33.5295109 60.7609387 33.6420109 60.7609387 33.77625L60.7609387 35.8691848C60.7609387 36.014837 60.7066204 36.1349457 60.601243 36.237663 60.4947792 36.3382065 60.3638723 36.3854891 60.2074357 36.3854891L59.2584959 36.3854891 59.2449163 36.3854891 57.068384 36.3854891C56.8907633 36.3854891 56.7424745 36.3300543 56.619172 36.2208152 56.4953264 36.1077717 56.4366627 35.9757065 56.4366627 35.8191848L56.4366627 34.6469022 56.4366627 34.6316848 56.4366627 22.0670109 56.4366627 21.5175543C56.4366627 21.3849457 56.4866355 21.2675543 56.5930993 21.1659239 56.7006494 21.0670109 56.8310132 21.0175543 56.9847339 21.0175543L59.3443187 21.0175543C59.5012984 21.0175543 59.6311191 21.0670109 59.7386692 21.1659239 59.8424171 21.2675543 59.8961921 21.3849457 59.8961921 21.5175543L59.8961921 23.1039674 59.8961921 32.2539674C59.8961921 33.102337 59.8978217 32.9604891 59.8978217 33.275163L60.190597 33.275163 60.2242744 33.275163C60.3676745 33.2860326 60.4947792 33.339837 60.601243 33.4349457M34.6886671 50.8345109C34.7989331 50.9345109 34.8554241 51.0519022 34.8554241 51.1921196L34.8554241 53.3828804C34.8554241 53.5345109 34.7989331 53.6600543 34.6886671 53.7692935 34.5778579 53.8736413 34.4393463 53.9230978 34.2758484 53.9230978L33.2829108 53.9230978 33.2693312 53.9230978 30.9906806 53.9230978C30.8054553 53.9230978 30.6501051 53.8649457 30.5197413 53.7508152 30.3915503 53.6328804 30.3301706 53.49375 30.3301706 53.3296196L30.3301706 52.1029891 30.3301706 52.0866848 30.3301706 38.9366848 30.3301706 38.3611413C30.3301706 38.2220109 30.381773 38.0986413 30.4931254 37.99375 30.6055642 37.8899457 30.7413598 37.8383152 30.9037714 37.8383152L33.3725359 37.8383152C33.5360338 37.8383152 33.6729158 37.8899457 33.7864409 37.99375 33.8939911 38.0986413 33.9504821 38.2220109 33.9504821 38.3611413L33.9504821 38.8421196 33.9504821 49.5980978C33.9504821 50.4866848 33.953198 50.3388587 33.953198 50.667663L34.2579234 50.667663 34.2937734 50.667663C34.4447781 50.6796196 34.5778579 50.7345109 34.6886671 50.8345109M26.8300655 33.97125L25.926753 32.7989674C25.8327824 32.6690761 25.7181709 32.5978804 25.5807457 32.5859239 25.4460365 32.5761413 25.3064386 32.62125 25.1662975 32.7266848 24.9158903 32.8940761 24.0239847 33.7544022 21.5916134 33.7544022 19.8170361 33.7544022 17.7268698 32.8033152 17.7268698 30.522337 17.7268698 28.2772283 19.9457704 27.2902717 21.5916134 27.2902717 23.876239 27.2902717 24.9158903 28.1505978 25.1662975 28.3174457 25.3064386 28.4234239 25.4460365 28.4690761 25.5807457 28.4582065 25.7181709 28.4457065 25.8327824 28.3745109 25.926753 28.2457065L26.8300655 27.0728804C26.9859589 26.8832065 26.9859589 26.8794022 27.0440794 26.8027717 27.3710753 26.3864674 26.7377245 25.9750543 26.7149108 25.9630978 26.2993762 25.6788587 26.0652645 25.5527717 25.7062209 25.3674457 25.3477204 25.1853804 24.9653199 25.0375543 24.566624 24.9266848 24.1624962 24.8158152 23.7257775 24.734837 23.2521223 24.6859239 22.783899 24.6408152 22.2309392 24.6169022 21.5916134 24.6169022 20.1771661 24.6169022 19.0234465 24.7832065 18.1347999 25.1120109 17.2434374 25.4435326 14.3640269 26.7886413 14.3640269 30.3957065 14.3640269 34.1571196 17.2434374 35.6016848 18.1347999 35.932663 19.0234465 36.2614674 20.1771661 36.4277717 21.5916134 36.4277717 22.2309392 36.4277717 22.783899 36.4033152 23.2521223 36.35875 23.7257775 36.3092935 24.1624962 36.2294022 24.566624 36.1185326 24.9653199 36.0065761 25.3477204 35.859837 25.7062209 35.6766848 26.0652645 35.4919022 26.2993762 35.3658152 26.7149108 35.0815761 26.7377245 35.070163 27.3710753 34.657663 27.0440794 34.2408152 26.9859589 34.1647283 26.9859589 34.1614674 26.8300655 33.97125M25.4137171 49.329837C25.3154011 49.7309239 25.1459281 50.0744022 24.8982369 50.3597283 24.6521752 50.6428804 24.3251794 50.8646196 23.913447 51.015163 23.5000851 51.167337 22.9797163 51.2417935 22.3458223 51.2417935 21.7173601 51.2417935 21.1986208 51.167337 20.7852589 51.015163 20.3735266 50.8646196 20.0432716 50.6428804 19.7982963 50.3597283 19.5544074 50.0744022 19.3838481 49.7309239 19.2849889 49.329837 19.1828705 48.927663 19.1339841 48.4749457 19.1339841 47.9754891 19.1339841 47.4749457 19.1828705 47.0146196 19.2849889 46.6004891 19.3838481 46.1890761 19.5544074 45.8325543 19.7982963 45.5363587 20.0432716 45.2379891 20.3735266 45.0086413 20.7852589 44.8450543 21.1986208 44.6820109 21.7173601 44.5999457 22.3458223 44.5999457 22.9797163 44.5999457 23.5000851 44.6820109 23.913447 44.8450543 24.3251794 45.0086413 24.6521752 45.2379891 24.8982369 45.5363587 25.1459281 45.8325543 25.3154011 46.1890761 25.4137171 46.6004891 25.5120331 47.0146196 25.5636355 47.4749457 25.5636355 47.9754891 25.5636355 48.4749457 25.5120331 48.927663 25.4137171 49.329837L25.4137171 49.329837zM15.15137 53.4428804C15.15137 53.5939674 15.2105769 53.7189674 15.3284475 53.8184239 15.4419726 53.9184239 15.5848296 53.9689674 15.7439821 53.9689674 15.7439821 53.9689674 18.5457175 53.9564674 18.6565267 53.9309239 18.7651632 53.9102717 18.8200246 53.8271196 18.8200246 53.6890761L18.8422951 53.3309239C19.3040002 53.5113587 19.8287145 53.6689674 20.4180676 53.8021196 21.0171979 53.9352717 21.6858555 54.0032065 22.4196951 54.0032065 23.6548921 54.0032065 24.7032344 53.8684239 25.5701537 53.5988587 26.4397889 53.3309239 27.1453829 52.9428804 27.6923677 52.4292935 28.2415253 51.9157065 28.6369621 51.2820109 28.8808511 50.517337 29.1258264 49.7553804 29.2469561 48.8760326 29.2469561 47.8874457 29.2469561 46.8955978 29.1198514 46.0189674 28.862926 45.2564674 28.6087166 44.4934239 28.205132 43.8504891 27.6565177 43.3222283 27.1100761 42.8004891 26.3979638 42.4042935 25.517465 42.1374457 24.6391389 41.8705978 23.5793898 41.7336413 22.3458223 41.7336413 21.6136123 41.7336413 20.9612501 41.7825543 20.3827607 41.8749457 19.8080736 41.9678804 19.2974821 42.1010326 18.8422951 42.2760326L18.8422951 39.7450543 18.8422951 39.7254891 18.8422951 38.5032065C18.8422951 38.4885326 18.8406656 38.4711413 18.8384928 38.4570109L18.8384928 38.4189674C18.8259996 38.2782065 18.7651632 38.1575543 18.6565267 38.0602717 18.5457175 37.9591848 18.40449 37.9102717 18.243708 37.9102717L18.1790693 37.9102717 15.7320321 37.9102717C15.5728796 37.9102717 15.4349112 37.9624457 15.3251884 38.06625 15.2127496 38.1700543 15.1578882 38.3015761 15.1578882 38.4499457L15.15137 53.4428804zM47.142647 41.8933696C47.2561722 41.995 47.31212 42.118913 47.31212 42.2596739L47.31212 42.6102174 47.31212 44.3754348 47.31212 48.046087C47.31212 49.0808696 47.2300994 49.9727174 47.0638856 50.7161957 46.9003876 51.4640217 46.609785 52.07 46.1833867 52.5444565 45.7580748 53.0145652 45.1725241 53.3618478 44.428364 53.581413 43.6831176 53.8058696 42.734721 53.9167391 41.5820877 53.9167391 40.4272817 53.9167391 39.4761691 53.8058696 38.7292931 53.581413 37.9742695 53.3618478 37.3832869 53.0145652 36.9563454 52.5444565 36.523429 52.07 36.2235922 51.4667391 36.0541193 50.7265217 35.8846463 49.9857609 35.8026258 49.0977174 35.8026258 48.0607609L35.8026258 44.3754348 35.8026258 43.0825 35.8026258 42.2596739C35.8026258 42.118913 35.8564009 41.995 35.9655805 41.8933696 36.0780193 41.7868478 36.2154445 41.733587 36.3794856 41.733587L36.7102838 41.733587 38.3333131 41.733587 38.5788316 41.733587C38.7390704 41.733587 38.8781252 41.7868478 38.9959958 41.8933696 39.1160391 41.995 39.1736164 42.118913 39.1736164 42.2596739L39.1736164 44.3754348 39.1736164 48.131413C39.1736164 48.5493478 39.1698142 48.9384783 39.1975165 49.293913 39.2263051 49.6488043 39.318103 49.9493478 39.4761691 50.2004348 39.6353216 50.4526087 39.8792105 50.6477174 40.2089223 50.7879348 40.5435227 50.9270652 41.0035983 50.9966304 41.5983832 50.9966304 42.1920816 50.9966304 42.6510709 50.9270652 42.9796963 50.7879348 43.3045194 50.6477174 43.5456925 50.4482609 43.7043017 50.1928261 43.8601951 49.9357609 43.9525362 49.6297826 43.9840407 49.2754348 44.0106567 48.92 44.0247794 48.533587 44.0247794 48.1145652L44.0247794 44.3754348 44.0247794 42.2596739C44.0247794 42.118913 44.0850727 41.995 44.1909933 41.8933696 44.3012593 41.7868478 44.4397709 41.733587 44.6027256 41.733587L44.8998464 41.733587 45.9308069 41.733587 46.7352601 41.733587C46.8987581 41.733587 47.0340105 41.7868478 47.142647 41.8933696M51.8615451 46.6626087C51.9033701 46.3011957 51.9919089 45.9783696 52.1130386 45.6930435 52.2374274 45.4088043 52.4204799 45.166413 52.664912 44.9675 52.908801 44.7702174 53.2162423 44.6147826 53.5921246 44.5044565 53.962575 44.3930435 54.4280824 44.3376087 54.9864741 44.3376087 55.5443225 44.3376087 55.9919049 44.3973913 56.3248758 44.5120652 56.6545875 44.6305435 56.9109697 44.7930435 57.0896767 44.9946739 57.2716429 45.1995652 57.3965748 45.4419565 57.4677318 45.7278261 57.5334568 46.0142391 57.5823433 46.3251087 57.6057001 46.6626087L53.9788705 46.6626087C53.688811 46.6626087 53.6763178 46.953913 53.6763178 46.953913L53.6763178 48.7278261C53.6763178 48.7278261 53.6763178 48.9870652 53.9788705 48.9870652L60.8713134 48.9870652C60.8854361 48.3359783 60.8854361 47.7017391 60.8713134 47.0908696 60.8626224 46.4816304 60.8006996 45.9033696 60.6898904 45.3626087 60.5774516 44.8202174 60.4041764 44.3267391 60.1630034 43.8859783 59.9261758 43.4403261 59.590489 43.0615217 59.161918 42.7408696 58.7300879 42.4196739 58.1820168 42.1723913 57.5187909 41.9952174 56.8555651 41.8229348 56.0521981 41.7338043 55.1081469 41.7338043 53.7241179 41.7338043 52.5959278 41.9001087 51.7219472 42.2338043 50.846337 42.566413 50.1646429 43.0109783 49.6692605 43.568587 49.1749644 44.1283696 48.8371049 44.778913 48.6567683 45.5175 48.4737158 46.2571739 48.3835475 47.0354348 48.3835475 47.8533696 48.3835475 48.691413 48.4737158 49.481087 48.6567683 50.2196739 48.8371049 50.9598913 49.1689894 51.6098913 49.6583968 52.1680435 50.1478043 52.7278261 50.8333006 53.1691304 51.7143426 53.4957609 52.590496 53.8207609 53.7295497 53.9854348 55.1255288 53.9854348 55.75725 53.9854348 56.3026053 53.9615217 56.7648536 53.916413 57.2336201 53.868587 57.6632775 53.7892391 58.0630598 53.6794565 58.4563239 53.5691304 58.8327494 53.4229348 59.1879908 53.243587 59.5421458 53.0609783 59.7729983 52.9365217 60.1841875 52.6566304 60.206458 52.6452174 60.831661 52.2370652 60.5079243 51.8267391 60.4508901 51.7517391 60.4508901 51.7473913 60.2960831 51.5604348L59.4063501 50.4028261C59.3129227 50.2756522 59.1999408 50.205 59.0646883 50.1930435 58.9310654 50.1827174 58.7941834 50.2272826 58.6556719 50.3316304 58.409067 50.4963043 58.1820168 50.6397826 57.9739779 50.7604348 57.7621367 50.8832609 57.5291114 50.9886957 57.2754451 51.0740217 57.0179766 51.1631522 56.7208558 51.228913 56.385169 51.2772826 56.0462231 51.3223913 55.6274294 51.3452174 55.1255288 51.3452174 54.5437803 51.3452174 54.057632 51.293587 53.6665406 51.181087 53.2787082 51.0702174 52.9571442 50.9093478 52.7067371 50.6990217 52.4579595 50.4892391 52.2651297 50.2397826 52.1304204 49.9463043 51.9962543 49.6577174 51.9033701 49.3370652 51.8615451 48.9870652 51.7181449 47.9484783 51.8615451 46.6626087 51.8615451 46.6626087"/>
    <path fill="#FFFFFF" d="M51.7692584 30.593913C51.7692584 30.1118478 51.7225447 29.6721739 51.6280309 29.2765217 51.5324308 28.8786957 51.3689329 28.5417391 51.1348212 28.2607609 50.89908 27.9797826 50.580775 27.7618478 50.1837086 27.6058696 49.7855558 27.4477174 49.2880007 27.3705435 48.6828954 27.3705435 48.0799628 27.3705435 47.5775189 27.4477174 47.1804525 27.6058696 46.7812134 27.7618478 46.4694266 27.9797826 46.235315 28.2607609 45.9984874 28.5417391 45.8344463 28.8786957 45.7469939 29.2765217 45.6573688 29.6721739 45.6122846 30.1118478 45.6122846 30.593913 45.6122846 31.0754348 45.6573688 31.5156522 45.7469939 31.9123913 45.8344463 32.3096739 45.9984874 32.6498913 46.235315 32.9352174 46.4694266 33.221087 46.7812134 33.446087 47.1804525 33.6058696 47.5775189 33.7705435 48.0799628 33.8515217 48.6828954 33.8515217 49.2880007 33.8515217 49.7855558 33.7705435 50.1837086 33.6058696 50.580775 33.446087 50.89908 33.221087 51.1348212 32.9352174 51.3689329 32.6498913 51.5324308 32.3096739 51.6280309 31.9123913 51.7225447 31.5156522 51.7692584 31.0754348 51.7692584 30.593913M42.0723642 30.5102174C42.0723642 29.57 42.190778 28.7325 42.4324942 27.9998913 42.669865 27.2661957 43.0609564 26.6498913 43.5889298 26.1531522 44.1207055 25.6542391 44.8045722 25.2754348 45.6378142 25.0194565 46.4710562 24.7618478 47.4851779 24.633587 48.6828954 24.633587 49.8681196 24.633587 50.8800686 24.7618478 51.7225447 25.0194565 52.5574162 25.2754348 53.2445421 25.6542391 53.7763177 26.1531522 54.3075502 26.6498913 54.6964689 27.2661957 54.9343829 27.9998913 55.1750127 28.7325 55.2934265 29.57 55.2934265 30.5102174 55.2934265 31.4607609 55.1750127 32.3036957 54.9343829 33.0357609 54.6964689 33.7705435 54.3075502 34.3852174 53.7763177 34.8841304 53.2445421 35.381413 52.5574162 35.7596739 51.7225447 36.0161957 50.8800686 36.2738043 49.8681196 36.4042391 48.6828954 36.4042391 47.4851779 36.4042391 46.4710562 36.2738043 45.6378142 36.0161957 44.8045722 35.7596739 44.1207055 35.381413 43.5889298 34.8841304 43.0609564 34.3852174 42.669865 33.7705435 42.4324942 33.0357609 42.190778 32.3036957 42.0723642 31.4607609 42.0723642 30.5102174M51.8615451 46.6626087C51.9033701 46.3011957 51.9919089 45.9783696 52.1130386 45.6930435 52.2374274 45.4088043 52.4204799 45.166413 52.664912 44.9675 52.908801 44.7702174 53.2162423 44.6147826 53.5921246 44.5044565 53.962575 44.3930435 54.4280824 44.3376087 54.9864741 44.3376087 55.5443225 44.3376087 55.9919049 44.3973913 56.3248758 44.5120652 56.6545875 44.6305435 56.9109697 44.7930435 57.0896767 44.9946739 57.2716429 45.1995652 57.3965748 45.4419565 57.4677318 45.7278261 57.5334568 46.0142391 57.5823433 46.3251087 57.6057001 46.6626087L53.9788705 46.6626087C53.688811 46.6626087 53.6763178 46.953913 53.6763178 46.953913L53.6763178 48.7278261C53.6763178 48.7278261 53.6763178 48.9870652 53.9788705 48.9870652L60.8713134 48.9870652C60.8854361 48.3359783 60.8854361 47.7017391 60.8713134 47.0908696 60.8626224 46.4816304 60.8006996 45.9033696 60.6898904 45.3626087 60.5774516 44.8202174 60.4041764 44.3267391 60.1630034 43.8859783 59.9261758 43.4403261 59.590489 43.0615217 59.161918 42.7408696 58.7300879 42.4196739 58.1820168 42.1723913 57.5187909 41.9952174 56.8555651 41.8229348 56.0521981 41.7338043 55.1081469 41.7338043 53.7241179 41.7338043 52.5959278 41.9001087 51.7219472 42.2338043 50.846337 42.566413 50.1646429 43.0109783 49.6692605 43.568587 49.1749644 44.1283696 48.8371049 44.778913 48.6567683 45.5175 48.4737158 46.2571739 48.3835475 47.0354348 48.3835475 47.8533696 48.3835475 48.691413 48.4737158 49.481087 48.6567683 50.2196739 48.8371049 50.9598913 49.1689894 51.6098913 49.6583968 52.1680435 50.1478043 52.7278261 50.8333006 53.1691304 51.7143426 53.4957609 52.590496 53.8207609 53.7295497 53.9854348 55.1255288 53.9854348 55.75725 53.9854348 56.3026053 53.9615217 56.7648536 53.916413 57.2336201 53.868587 57.6632775 53.7892391 58.0630598 53.6794565 58.4563239 53.5691304 58.8327494 53.4229348 59.1879908 53.243587 59.5421458 53.0609783 59.7729983 52.9365217 60.1841875 52.6566304 60.206458 52.6452174 60.831661 52.2370652 60.5079243 51.8267391 60.4508901 51.7517391 60.4508901 51.7473913 60.2960831 51.5604348L59.4063501 50.4028261C59.3129227 50.2756522 59.1999408 50.205 59.0646883 50.1930435 58.9310654 50.1827174 58.7941834 50.2272826 58.6556719 50.3316304 58.409067 50.4963043 58.1820168 50.6397826 57.9739779 50.7604348 57.7621367 50.8832609 57.5291114 50.9886957 57.2754451 51.0740217 57.0179766 51.1631522 56.7208558 51.228913 56.385169 51.2772826 56.0462231 51.3223913 55.6274294 51.3452174 55.1255288 51.3452174 54.5437803 51.3452174 54.057632 51.293587 53.6665406 51.181087 53.2787082 51.0702174 52.9571442 50.9093478 52.7067371 50.6990217 52.4579595 50.4892391 52.2651297 50.2397826 52.1304204 49.9463043 51.9962543 49.6577174 51.9033701 49.3370652 51.8615451 48.9870652 51.7181449 47.9484783 51.8615451 46.6626087 51.8615451 46.6626087"/>
  </g>
</svg>
