<?xml version="1.0" encoding="UTF-8"?>
<svg width="30px" height="29px" viewBox="0 0 30 29" version="1.1" xmlns="http://www.w3.org/2000/svg" xmlns:xlink="http://www.w3.org/1999/xlink">
    <!-- Generator: Sketch 42 (36781) - http://www.bohemiancoding.com/sketch -->
    <title>icn-customer</title>
    <desc>Created with Sketch.</desc>
    <defs></defs>
    <g id="Page-1" stroke="none" stroke-width="1" fill="none" fill-rule="evenodd">
        <g id="Artboard" transform="translate(-177.000000, -104.000000)" fill="#2FA7DF">
            <g id="icn-customer" transform="translate(172.000000, 98.000000)">
                <g id="Group-2" transform="translate(5.000000, 6.000000)">
                    <path d="M23.55408,14.7156271 C22.68888,15.5874396 20.54568,16.1378354 18.04428,16.1378354 C15.53928,16.1378354 13.35228,15.5874396 12.53508,14.7597312 C12.44268,14.5748562 12.00588,9.59410625 16.17768,9.38808542 C17.12628,9.33975208 19.86768,9.38808542 19.86768,9.38808542 C23.95668,9.39171042 23.64588,14.5790854 23.55408,14.7156271 M19.81608,8.52050208 L16.17288,8.52050208 C13.71108,8.52050208 11.75628,10.4931062 11.70828,12.9278979 C11.57268,13.6631687 11.38968,14.9494396 11.84388,15.4073979 C13.07268,16.6000229 15.85368,17.0579812 17.99148,17.0579812 C20.17848,17.0579812 22.91148,16.6000229 24.14088,15.4073979 C24.59508,14.9494396 24.41628,13.6631687 24.27588,12.9278979 C24.23688,10.4931062 22.23348,8.52050208 19.81608,8.52050208" id="Fill-1"></path>
                    <path d="M17.94846,1.3561125 C19.45266,1.3561125 20.68146,2.59344583 20.68146,4.0639875 C20.68146,5.53513333 19.45266,6.77246667 17.94846,6.77246667 C16.44426,6.77246667 15.21546,5.53513333 15.21546,4.0639875 C15.21546,2.59344583 16.44846,1.3561125 17.94846,1.3561125 M17.94846,7.6926125 C19.95126,7.6926125 21.59106,6.041425 21.54726,4.0639875 C21.54726,2.04365417 19.95126,0.436570833 17.94846,0.436570833 C15.98946,0.436570833 14.34966,2.08715417 14.34966,4.0639875 C14.34966,6.08552917 15.94566,7.6926125 17.94846,7.6926125" id="Fill-3"></path>
                    <path d="M29.59104,19.6749292 C29.04504,18.7221583 27.82824,18.3971167 26.91624,18.9293875 L21.21624,21.7230542 C20.32944,22.1695333 19.43604,22.1695333 17.47584,22.1695333 C15.55944,22.1695333 12.63444,21.6813667 12.60504,21.6765333 C12.33264,21.6324292 12.07944,21.8160958 12.03504,22.0861583 C11.99004,22.3580333 12.17244,22.6148042 12.44184,22.6601167 C12.56484,22.6818667 15.47724,23.1658042 17.47584,23.1658042 C19.53204,23.1658042 20.56404,23.1658042 21.65364,22.6166167 L27.37944,19.8096583 C27.60924,19.6761375 27.87624,19.6398875 28.13184,19.7099708 C28.38684,19.7788458 28.60164,19.9431792 28.73244,20.1739708 C28.86564,20.4047625 28.90104,20.6730125 28.83204,20.9309917 C28.76424,21.1889708 28.60044,21.4028458 28.35684,21.5454292 L21.66084,25.7413667 C21.64704,25.7516375 20.21844,26.6572833 16.98024,26.6572833 C14.17404,26.6572833 9.83544,24.2496792 9.77364,24.21645 C9.72864,24.1934917 6.91284,23.6648458 4.83864,23.6648458 C4.56504,23.6648458 4.34364,23.8889917 4.34364,24.1638875 C4.34364,24.4393875 4.56504,24.6629292 4.83864,24.6629292 C6.63984,24.6629292 9.30984,25.0991375 9.31164,25.0991375 L9.31164,25.0985333 C9.49884,25.2018458 13.91604,27.6535542 16.98024,27.6535542 C20.55564,27.6535542 22.14204,26.6162 22.19424,26.5817625 L28.86624,22.4009292 C29.32464,22.1332833 29.65224,21.7031167 29.78844,21.189575 C29.92644,20.6736167 29.85564,20.1371167 29.59104,19.6749292" id="Fill-5"></path>
                    <path d="M3.60936,14.6885 L0.63816,14.6885 C0.36456,14.6885 0.14256,14.9120417 0.14256,15.1869375 C0.14256,15.4624375 0.36456,15.6859792 0.63816,15.6859792 L3.60936,15.6859792 C3.88176,15.6859792 4.10436,15.9095208 4.10436,16.1850208 L4.10436,27.1554792 C4.10436,27.430375 3.88176,27.6539167 3.60936,27.6539167 L0.63816,27.6539167 C0.36456,27.6539167 0.14256,27.8774583 0.14256,28.1523542 C0.14256,28.4278542 0.36456,28.6513958 0.63816,28.6513958 L3.60936,28.6513958 C4.42836,28.6513958 5.09496,27.9801667 5.09496,27.1554792 L5.09496,16.1850208 C5.09496,15.3597292 4.42836,14.6885 3.60936,14.6885" id="Fill-7"></path>
                    <path d="M4.8387,17.6806958 L10.5423,17.6806958 C11.1207,17.6806958 12.1023,18.4232167 12.9693,19.0775292 C14.0553,19.8979875 15.0825,20.671925 15.9903,20.671925 L18.9615,20.671925 C19.7139,20.671925 20.0871,21.0163 20.0973,21.0247583 C20.1939,21.1220292 20.3205,21.1709667 20.4477,21.1709667 C20.5743,21.1709667 20.7009,21.1220292 20.7975,21.0247583 C20.9907,20.8308208 20.9907,20.5142375 20.7975,20.3196958 C20.7321,20.2544458 20.1237,19.6756542 18.9615,19.6756542 L15.9903,19.6756542 C15.4125,19.6756542 14.4297,18.9331333 13.5633,18.2788208 C12.4767,17.4583625 11.4501,16.6838208 10.5423,16.6838208 L4.8387,16.6838208 C4.5651,16.6838208 4.3437,16.9073625 4.3437,17.1822583 C4.3437,17.4577583 4.5651,17.6806958 4.8387,17.6806958" id="Fill-9"></path>
                    <path d="M2.61858,25.4098 C2.61858,24.9971542 2.28558,24.66305 1.87638,24.66305 C1.46598,24.66305 1.13298,24.9971542 1.13298,25.4098 C1.13298,25.82305 1.46598,26.1577583 1.87638,26.1577583 C2.28558,26.1577583 2.61858,25.82305 2.61858,25.4098" id="Fill-11"></path>
                </g>
            </g>
        </g>
    </g>
</svg>