<?xml version="1.0" encoding="UTF-8"?>
<svg width="23px" height="30px" viewBox="0 0 23 30" version="1.1" xmlns="http://www.w3.org/2000/svg" xmlns:xlink="http://www.w3.org/1999/xlink">
    <!-- Generator: Sketch 42 (36781) - http://www.bohemiancoding.com/sketch -->
    <title>icn-ebooks</title>
    <desc>Created with Sketch.</desc>
    <defs></defs>
    <g id="Page-1" stroke="none" stroke-width="1" fill="none" fill-rule="evenodd">
        <g id="Artboard" transform="translate(-260.000000, -103.000000)" fill="#42A2DB">
            <g id="icn-ebooks" transform="translate(251.000000, 98.000000)">
                <g id="Page-1" transform="translate(9.000000, 5.000000)">
                    <path d="M21.4567,27.32286 C21.4567,28.09326 20.8235947,28.72086 20.0452263,28.72086 L2.95501579,28.72086 C2.17664737,28.72086 1.54414737,28.09326 1.54414737,27.32286 L1.54414737,2.76426 C1.54414737,1.99326 2.17664737,1.36506 2.95501579,1.36506 L20.0452263,1.36506 C20.8235947,1.36506 21.4567,1.99326 21.4567,2.76426 L21.4567,27.32286 Z M20.0452263,0.43386 L2.95501579,0.43386 C1.65793684,0.43386 0.602963158,1.47966 0.602963158,2.76426 L0.602963158,27.32286 C0.602963158,28.60866 1.65793684,29.65446 2.95501579,29.65446 L20.0452263,29.65446 C21.3423053,29.65446 22.3972789,28.60866 22.3972789,27.32286 L22.3972789,2.76426 C22.3972789,1.47966 21.3423053,0.43386 20.0452263,0.43386 L20.0452263,0.43386 Z" id="Fill-1"></path>
                    <path d="M20.0463763,2.29836 L6.71787632,2.29656 C6.45882368,2.29656 6.24879737,2.50596 6.24819211,2.76276 C6.24819211,3.02016 6.45882368,3.22956 6.71787632,3.22956 L19.5760868,3.23136 L19.5760868,24.99096 L3.42463947,24.99096 L3.42585,3.22956 L4.83732368,3.22956 C5.09698158,3.22956 5.30640263,3.02076 5.30640263,2.76276 C5.30640263,2.50596 5.09698158,2.29656 4.83732368,2.29656 L2.95556053,2.29656 C2.69529737,2.29656 2.48527105,2.50596 2.48527105,2.76276 L2.48406053,25.45716 C2.48406053,25.58076 2.53248158,25.69896 2.62085,25.78656 C2.70861316,25.87356 2.82966579,25.92336 2.95435,25.92336 L20.0457711,25.92336 C20.3060342,25.92336 20.5154553,25.71456 20.5154553,25.45716 L20.5154553,2.76456 C20.5154553,2.50716 20.3060342,2.29836 20.0463763,2.29836" id="Fill-3"></path>
                    <path d="M12.4410026,26.85588 L10.5598447,26.85588 C10.2995816,26.85588 10.08895,27.06528 10.08895,27.32208 C10.08895,27.57948 10.2995816,27.78888 10.5598447,27.78888 L12.4410026,27.78888 C12.7006605,27.78888 12.9106868,27.57948 12.9106868,27.32208 C12.9106868,27.06528 12.7006605,26.85588 12.4410026,26.85588" id="Fill-5"></path>
                    <path d="M17.5372579,4.78386 L5.46467895,4.78386 C5.20441579,4.78386 4.99378421,4.99266 4.99378421,5.24946 C4.99378421,5.50746 5.20441579,5.71626 5.46467895,5.71626 L17.5372579,5.71626 C17.7975211,5.71626 18.0069421,5.50746 18.0069421,5.24946 C18.0069421,4.99266 17.7975211,4.78386 17.5372579,4.78386" id="Fill-7"></path>
                    <path d="M17.5372579,6.99876 L5.46467895,6.99876 C5.20441579,6.99876 4.99378421,7.20756 4.99378421,7.46496 C4.99378421,7.72236 5.20441579,7.93176 5.46467895,7.93176 L17.5372579,7.93176 C17.7975211,7.93176 18.0069421,7.72236 18.0069421,7.46496 C18.0069421,7.20756 17.7975211,6.99876 17.5372579,6.99876" id="Fill-9"></path>
                    <path d="M5.46419474,10.14636 L11.5004842,10.14636 C11.7601421,10.14636 11.9707737,9.93756 11.9707737,9.68016 C11.9707737,9.42276 11.7601421,9.21336 11.5004842,9.21336 L5.46419474,9.21336 C5.20393158,9.21336 4.99390526,9.42276 4.99390526,9.68016 C4.99390526,9.93756 5.20393158,10.14636 5.46419474,10.14636" id="Fill-11"></path>
                    <path d="M17.5372579,11.42898 L5.46467895,11.42898 C5.20441579,11.42898 4.99378421,11.63778 4.99378421,11.89458 C4.99378421,12.15258 5.20441579,12.36138 5.46467895,12.36138 L17.5372579,12.36138 C17.7975211,12.36138 18.0069421,12.15258 18.0069421,11.89458 C18.0069421,11.63778 17.7975211,11.42898 17.5372579,11.42898" id="Fill-13"></path>
                    <path d="M17.5372579,13.64382 L5.46467895,13.64382 C5.20441579,13.64382 4.99378421,13.85262 4.99378421,14.11002 C4.99378421,14.36742 5.20441579,14.57682 5.46467895,14.57682 L17.5372579,14.57682 C17.7975211,14.57682 18.0069421,14.36742 18.0069421,14.11002 C18.0069421,13.85262 17.7975211,13.64382 17.5372579,13.64382" id="Fill-15"></path>
                    <path d="M17.5372579,15.85842 L5.46467895,15.85842 C5.20441579,15.85842 4.99378421,16.06842 4.99378421,16.32462 C4.99378421,16.58202 5.20441579,16.79202 5.46467895,16.79202 L17.5372579,16.79202 C17.7975211,16.79202 18.0069421,16.58202 18.0069421,16.32462 C18.0069421,16.06842 17.7975211,15.85842 17.5372579,15.85842" id="Fill-17"></path>
                    <path d="M17.5372579,18.0738 L5.46467895,18.0738 C5.20441579,18.0738 4.99378421,18.2832 4.99378421,18.54 C4.99378421,18.7974 5.20441579,19.0068 5.46467895,19.0068 L17.5372579,19.0068 C17.7975211,19.0068 18.0069421,18.7974 18.0069421,18.54 C18.0069421,18.2832 17.7975211,18.0738 17.5372579,18.0738" id="Fill-19"></path>
                    <path d="M18.0077895,20.75568 C18.0077895,20.49708 17.7965526,20.28948 17.5375,20.28948 L5.46431579,20.28948 C5.20465789,20.28948 4.99402632,20.49708 4.99402632,20.75568 C4.99402632,21.01308 5.20465789,21.22068 5.46431579,21.22068 L17.5375,21.22068 C17.7965526,21.22068 18.0077895,21.01308 18.0077895,20.75568" id="Fill-21"></path>
                    <path d="M5.46419474,22.50354 C5.20393158,22.50354 4.99390526,22.71354 4.99390526,22.96974 C4.99390526,23.22714 5.20393158,23.43714 5.46419474,23.43714 L11.5004842,23.43714 C11.7601421,23.43714 11.9707737,23.22714 11.9707737,22.96974 C11.9707737,22.71354 11.7601421,22.50354 11.5004842,22.50354 L5.46419474,22.50354 Z" id="Fill-23"></path>
                </g>
            </g>
        </g>
    </g>
</svg>