<svg xmlns="http://www.w3.org/2000/svg" width="47" height="45" viewBox="0 0 47 45">
  <g fill="none" fill-rule="evenodd" transform="translate(-1)">
    <path fill="#2D2F33" d="M34.0531224,39.6264929 C33.6332936,39.5198578 33.2092098,39.7772038 33.1049617,40.1966351 L32.3227469,43.3338389 C32.2170805,43.7546919 32.4723818,44.1798104 32.8922107,44.2850237 C32.9553268,44.3013744 33.0191521,44.3084834 33.0822683,44.3084834 C33.4325984,44.3084834 33.7510159,44.0710427 33.8403714,43.7148815 L34.6232954,40.5776777 C34.7275434,40.1568246 34.4722421,39.7309953 34.0531224,39.6264929"/>
    <path fill="#3E92CB" d="M24.4741464,23.9172275 C24.5762669,23.9172275 24.6776783,23.8980332 24.7727071,23.8575118 L33.3799071,20.2880806 C33.7798791,20.1224408 33.9692276,19.6631991 33.8032817,19.2629621 C33.6380451,18.8627251 33.1792119,18.6743365 32.7806582,18.8378436 L24.4741464,22.2842891 L2.56432978,13.1975592 L2.56432978,12.9373697 C2.56432978,12.5044313 2.21399965,12.1532464 1.78211493,12.1532464 C1.35093939,12.1532464 0.999900087,12.5044313 0.999900087,12.9373697 L0.999900087,13.7214929 C0.999900087,14.0392654 1.1906669,14.3250474 1.48355424,14.4459005 L24.1748765,23.8575118 C24.2706145,23.8980332 24.372735,23.9172275 24.4741464,23.9172275"/>
    <path fill="#2D2F33" d="M33.7827158 31.9523934C33.5912398 31.5642417 33.1238966 31.4042891 32.7345621 31.5962322 31.2488503 32.3327251 28.7667542 33.1886493 25.2570704 33.305237L25.2570704 26.2701659C25.2570704 25.8372275 24.9060311 25.4860427 24.4741464 25.4860427 24.0422617 25.4860427 23.6919315 25.8372275 23.6919315 26.2701659L23.6919315 33.2995498C13.9755892 32.9881754 10.8403472 27.0891232 10.3900241 26.1066588L10.3900241 20.7798815C10.3900241 20.3469431 10.0389848 19.9957583 9.60710009 19.9957583 9.17521537 19.9957583 8.82488524 20.3469431 8.82488524 20.7798815L8.82488524 26.2701659C8.82488524 26.368981 8.84332367 26.4685071 8.88020052 26.5616351 9.01636122 26.9014455 12.346625 34.8969431 24.4741464 34.8969431 28.7128573 34.8969431 31.6835717 33.8661374 33.4281307 33.0023934 33.8160468 32.8104502 33.974901 32.340545 33.7827158 31.9523934M36.2111277 40.3873697C35.7785338 40.3873697 35.4289128 40.7385545 35.4289128 41.1714929L35.4289128 43.5238626C35.4289128 43.9568009 35.7785338 44.3086967 36.2111277 44.3086967 36.6444307 44.3086967 36.9940517 43.9568009 36.9940517 43.5238626L36.9940517 41.1714929C36.9940517 40.7385545 36.6444307 40.3873697 36.2111277 40.3873697M39.3175064 40.1964218C39.2132583 39.7769905 38.787047 39.5203555 38.3693457 39.6262796 37.9495169 39.7314929 37.6949247 40.1566114 37.7998819 40.5774645L38.5820968 43.7146682C38.6714522 44.0708294 38.9898697 44.3082701 39.3401998 44.3082701 39.403316 44.3082701 39.4671413 44.3011611 39.5302575 44.2848104 39.9500863 44.1803081 40.2046784 43.7544787 40.1004304 43.3336256L39.3175064 40.1964218z"/>
    <path fill="#3E92CB" d="M47.1658232 12.1530332C46.7332293 12.1530332 46.3828992 12.504218 46.3828992 12.9378673L46.3828992 13.1959242 38.4040241 16.4881043C38.4054424 17.0582464 38.4068608 17.6945024 38.4061516 18.182891L47.4636748 14.447109C47.7572713 14.3262559 47.9487472 14.0390521 47.9487472 13.7212796L47.9487472 12.9378673C47.9487472 12.504218 47.5984171 12.1530332 47.1658232 12.1530332M32.3802606 15.86891L24.47443 19.146872 3.82835493 10.5840758 24.47443 2.02127962 45.119796 10.5840758 37.7891025 13.6245972C38.4479217 13.7219905 38.3982798 15.0698578 38.3982798 15.0698578L47.4650222 11.3084834C47.7572003 11.1883412 47.9486763 10.9018483 47.9486763 10.5840758 47.9486763 10.2670142 47.7572003 9.98123223 47.4657314 9.85966825L24.7729907.448056872C24.5808056.369146919 24.3666362.369146919 24.1751602.448056872L1.48312873 9.85966825C1.19095057 9.98123223.999474585 10.2670142.999474585 10.5840758.999474585 10.9025592 1.19095057 11.1883412 1.48312873 11.3091943L24.1751602 20.7200948C24.2708982 20.7599052 24.3723095 20.7798104 24.47443 20.7798104 24.5758414 20.7798104 24.6772528 20.7599052 24.7729907 20.7200948L32.9780912 17.3177251C33.3780632 17.1527962 33.5674117 16.6942654 33.402175 16.2933175 33.2369383 15.8930806 32.7788143 15.703981 32.3802606 15.86891"/>
    <path fill="#2D2F33" d="M36.2111277,38.0345735 C35.7799521,38.0345735 35.4289128,37.6819668 35.4289128,37.2497393 C35.4289128,36.8175118 35.7799521,36.4656161 36.2111277,36.4656161 C36.6430124,36.4656161 36.9940517,36.8175118 36.9940517,37.2497393 C36.9940517,37.6819668 36.6430124,38.0345735 36.2111277,38.0345735 M24.4743591,11.3686967 C23.5191067,11.3686967 22.9092203,10.9044787 22.9092203,10.5845735 C22.9092203,10.2646682 23.5191067,9.79973934 24.4743591,9.79973934 C25.4296115,9.79973934 26.0387888,10.2646682 26.0387888,10.5845735 C26.0387888,10.9044787 25.4296115,11.3686967 24.4743591,11.3686967 M39.3414054,19.9961848 C38.9081024,19.9961848 38.5584814,20.3473697 38.5584814,20.7803081 L38.5584814,26.1255687 C38.423739,26.4582701 37.95285,27.4826777 36.9940517,28.4942891 L36.9940517,18.766327 L36.9940517,17.0694076 L36.9940517,15.6525829 C36.9940517,14.5222512 36.1359556,14.3104028 36.1359556,14.3104028 L27.5315923,11.0900237 C27.57627,10.9272275 27.6039277,10.759455 27.6039277,10.5845735 C27.6039277,9.26514218 26.2295556,8.23149289 24.4743591,8.23149289 C22.7191626,8.23149289 21.3447906,9.26514218 21.3447906,10.5845735 C21.3447906,11.9032938 22.7191626,12.937654 24.4743591,12.937654 C25.2572831,12.937654 25.9565251,12.7229621 26.4997495,12.3781754 L35.4289128,15.7194076 L35.4289128,35.0416825 C34.5204657,35.366564 33.863774,36.2288863 33.863774,37.2497393 C33.863774,38.5471327 34.9168919,39.6028199 36.2111277,39.6028199 C37.5053635,39.6028199 38.5584814,38.5471327 38.5584814,37.2497393 C38.5584814,36.2288863 37.9024989,35.366564 36.9940517,35.0416825 L36.9940517,30.5900237 C39.2399941,28.8902607 40.0456115,26.6267536 40.0803609,26.5265166 C40.1087277,26.4440521 40.1236203,26.3573223 40.1236203,26.2698815 L40.1236203,20.7803081 C40.1236203,20.3473697 39.7739993,19.9961848 39.3414054,19.9961848"/>
  </g>
</svg>
