<svg version="1.1" id="Layer_1" xmlns="http://www.w3.org/2000/svg" xmlns:xlink="http://www.w3.org/1999/xlink" x="0px" y="0px"
         viewBox="0 0 63.2 53.5" style="enable-background:new 0 0 63.2 53.5;" xml:space="preserve">
<style type="text/css">
        .st0{fill:none;stroke:#FFFFFF;stroke-width:2;stroke-miterlimit:10;}
        .st1{fill:#FFFFFF;stroke:#FFFFFF;stroke-miterlimit:10;}
</style>
<path class="st0" d="M39.4,21.7h18.2c2,0,3.6,1.6,3.6,3.6v17.2c0,2-1.6,3.6-3.6,3.6h-3.5c-0.3,0-0.5,0.2-0.6,0.4l-2.2,5.4
        c-0.1,0.2-0.4,0.2-0.5,0l-2.7-5.4c-0.1-0.3-0.4-0.4-0.7-0.4H27c-2,0-3.6-1.6-3.6-3.6V26.9"/>
<path class="st1" d="M35.6,36.1c-1,0-1.7-0.8-1.7-1.7c0-1,0.8-1.7,1.7-1.7c1,0,1.7,0.8,1.7,1.7C37.3,35.3,36.5,36.1,35.6,36.1z"/>
<circle class="st1" cx="42.2" cy="34.4" r="1.7"/>
<path class="st1" d="M48.9,36.1c-1,0-1.7-0.8-1.7-1.7c0-1,0.8-1.7,1.7-1.7c1,0,1.7,0.8,1.7,1.7C50.6,35.3,49.8,36.1,48.9,36.1z"/>
<path class="st0" d="M5.6,26.2h3.5c0.3,0,0.5,0.2,0.6,0.4l2.2,5.4c0.1,0.2,0.4,0.2,0.5,0l2.7-5.4c0.1-0.3,0.4-0.4,0.7-0.4h20.4
        c2,0,3.6-1.6,3.6-3.6V5.4c0-2-1.6-3.6-3.6-3.6H5.6c-2,0-3.6,1.6-3.6,3.6v17.2C1.9,24.6,3.5,26.2,5.6,26.2z"/>
<path class="st1" d="M27.6,16.1c1,0,1.7-0.8,1.7-1.7s-0.8-1.7-1.7-1.7s-1.7,0.8-1.7,1.7S26.7,16.1,27.6,16.1z"/>
<circle class="st1" cx="21" cy="14.4" r="1.7"/>
<path class="st1" d="M14.4,16.1c1,0,1.7-0.8,1.7-1.7s-0.8-1.7-1.7-1.7c-1,0-1.7,0.8-1.7,1.7C12.6,15.3,13.4,16.1,14.4,16.1z"/>
</svg>
