<svg xmlns="http://www.w3.org/2000/svg" width="25" height="20" viewBox="0 0 25 20">
  <path fill-rule="evenodd" d="M19.956,25.448 L23.284,25.448 L23.284,21.706 L19.956,21.706 L19.956,25.448 Z M19.956,30.022 L23.284,30.022 L23.284,26.278 L19.956,26.278 L19.956,30.022 Z M19.956,34.593 L23.284,34.593 L23.284,30.852 L19.956,30.852 L19.956,34.593 Z M19.956,39.167 L23.284,39.167 L23.284,35.425 L19.956,35.425 L19.956,39.167 Z M15.191,30.787 L10.618,33.698 C10.551,33.741 10.472,33.764 10.394,33.764 C10.326,33.764 10.256,33.745 10.193,33.712 C10.061,33.64 9.978,33.5 9.978,33.347 L9.978,27.527 C9.978,27.375 10.061,27.234 10.193,27.162 C10.327,27.088 10.49,27.094 10.618,27.176 L15.191,30.087 C15.311,30.162 15.385,30.294 15.385,30.436 C15.385,30.578 15.311,30.712 15.191,30.787 L15.191,30.787 Z M0.833,25.448 L4.158,25.448 L4.158,21.706 L0.833,21.706 L0.833,25.448 Z M0.833,30.022 L4.158,30.022 L4.158,26.278 L0.833,26.278 L0.833,30.022 Z M0.833,34.593 L4.158,34.593 L4.158,30.852 L0.833,30.852 L0.833,34.593 Z M0.833,39.167 L4.158,39.167 L4.158,35.425 L0.833,35.425 L0.833,39.167 Z M23.7,20.874 L0.416,20.874 C0.187,20.874 0,21.061 0,21.291 L0,39.583 C0,39.813 0.187,40 0.416,40 L23.7,40 C23.93,40 24.114,39.813 24.114,39.583 L24.114,21.291 C24.114,21.061 23.93,20.874 23.7,20.874 L23.7,20.874 Z" transform="translate(0 -20)"/>
</svg>
