<svg xmlns="http://www.w3.org/2000/svg" width="31" height="41" viewBox="0 0 31 41">
  <g fill="none" fill-rule="evenodd">
    <path fill="#2D2F33" d="M24.3085003,34.7761374 L24.5077771,34.6012559 C24.5389806,34.5770853 24.5630924,34.5536256 24.5872042,34.5216351 C24.6907431,34.4014929 27.0132758,31.7135782 27.896902,29.6484123 L28.3181492,29.6484123 C29.5194837,29.6484123 30.4981387,28.6673697 30.4981387,27.4631043 L30.4981387,24.0095498 C30.4981387,22.8059953 29.5194837,21.8249526 28.3181492,21.8249526 L27.8486784,21.8249526 C27.1253247,19.9353791 25.8913684,18.2285071 24.253185,16.8408294 C24.0141946,15.9870379 24.1893597,15.0785071 24.786481,14.129455 C25.1205003,13.5948578 25.1205003,12.9251896 24.777971,12.3905924 C24.4361509,11.8567062 23.8397387,11.5687915 23.2107046,11.6491232 C20.9115745,11.936327 19.5357841,12.9806398 18.7322941,13.9538626 C17.9763186,13.7462796 17.1969404,13.5870379 16.4083431,13.4995972 C15.979295,13.4512559 15.5814505,13.7548104 15.5339361,14.1927251 C15.4864217,14.6235308 15.7885282,15.022346 16.2260863,15.0706872 C17.1012024,15.1737678 17.9685177,15.3657109 18.7954103,15.6287441 C19.1294295,15.7318246 19.4875605,15.6045735 19.6861282,15.3173697 C20.2272252,14.5126303 21.3172199,13.4917773 23.4021806,13.2280332 C23.4177824,13.2280332 23.4340933,13.2280332 23.449695,13.2522038 C23.4660059,13.2756635 23.4574959,13.2920142 23.449695,13.300545 C22.6220933,14.6235308 22.375302,16.0033886 22.7412339,17.2950948 C22.7497439,17.5268483 22.8525736,17.7422512 23.0355396,17.8858531 C24.7141457,19.2408294 25.9317911,20.9640521 26.5516059,22.8699763 C26.655854,23.1969905 26.9657614,23.4123934 27.3004898,23.4123934 L28.3181492,23.4123934 C28.6521684,23.4123934 28.9230714,23.6832464 28.9230714,24.0180806 L28.9230714,27.4716351 C28.9230714,27.8057583 28.6521684,28.0773223 28.3181492,28.0773223 L27.3558051,28.0773223 C27.0132758,28.0773223 26.7033684,28.300545 26.5998295,28.6353791 C26.1544706,30.0948578 24.1971605,32.5673697 23.4340933,33.4531517 L23.2589282,33.6045735 C21.6200356,35.0868009 21.4533806,36.8420142 21.4448706,37.3680806 L21.4448706,38.4763744 L16.9026348,38.4763744 L16.9026348,37.407891 C16.9026348,37.1846682 16.8068968,36.9692654 16.6395326,36.8178436 C16.4721684,36.6664218 16.2501981,36.5946209 16.0268094,36.6187915 C14.8658976,36.7382227 13.6964758,36.721872 12.5660583,36.5704502 C12.3433789,36.5384597 12.1128985,36.6109716 11.9455343,36.7623934 C11.7710784,36.9138152 11.6760496,37.129218 11.6760496,37.3602607 L11.6760496,38.4678436 L7.13310463,38.4678436 L7.13310463,38.1259005 C7.09339109,37.2877488 6.83028891,35.1671327 5.17579459,33.4602607 C4.39641642,32.6555213 3.69646533,31.586327 3.09154306,30.29391 C3.08303301,30.2868009 3.08303301,30.2782701 3.07594131,30.2626303 C2.71781031,29.5766114 2.44761642,28.850782 2.26394131,28.0851422 L2.25614044,28.0538626 C2.25614044,28.0453318 2.24833956,28.0375118 2.24833956,28.0296919 C1.96183476,27.0728199 1.99374742,25.8685545 1.99374742,25.8607346 L1.99374742,25.836564 C1.99374742,25.3104976 2.041971,24.7759005 2.12068891,24.257654 C2.19231511,23.8268483 1.90581031,23.4202133 1.47676227,23.3484123 C1.04700507,23.2766114 0.641359651,23.5638152 0.56973345,23.99391 C0.466194585,24.5924882 0.417971004,25.2059953 0.417971004,25.8202133 C0.410879301,25.9801659 0.394568384,27.3195024 0.737097642,28.4761374 C0.943466201,29.329218 1.26188367,30.1673697 1.66752908,30.9642891 C2.33627668,32.4159479 3.13905747,33.6202133 4.03828541,34.5536256 C5.30273607,35.8602607 5.51761467,37.5038626 5.54952734,38.1735308 L5.54952734,38.500545 C5.54952734,38.5325355 5.54952734,38.5559953 5.55803738,38.6043365 C5.61335266,39.4097867 6.28990114,40.0474645 7.09339109,40.0474645 L11.6994522,40.0474645 C12.5504566,40.0474645 13.2426068,39.3536256 13.2426068,38.500545 L13.2426068,38.2375118 C13.934757,38.2929621 14.6191064,38.300782 15.3190575,38.2687915 L15.3190575,38.500545 C15.3190575,39.3536256 16.0112077,40.0474645 16.8622121,40.0474645 L21.4689824,40.0474645 C22.3199867,40.0474645 23.0121369,39.3536256 23.0121369,38.500545 L23.0121369,37.3759005 C23.0277387,37.129218 23.1149666,35.8531517 24.3085003,34.7761374"/>
    <path fill="#3E92CB" d="M11.8744755 16.2267536C11.8744755 18.938128 9.67108332 21.1468957 6.9655986 21.1468957 4.26082306 21.1468957 2.05672175 18.938128 2.05672175 16.2267536 2.05672175 13.5153791 4.26082306 11.3066114 6.9655986 11.3066114 9.67108332 11.3066114 11.8744755 13.5153791 11.8744755 16.2267536M.482363668 16.2267536C.482363668 19.8075592 3.3857069 22.7265166 6.9655986 22.7265166 10.5376894 22.7265166 13.4495427 19.8153791 13.4495427 16.2267536 13.4495427 12.6459479 10.5461995 9.72699052 6.9655986 9.72699052 3.39350777 9.72699052.482363668 12.638128.482363668 16.2267536M11.4208901 5.49279621C11.4208901 3.86554502 12.7413652 2.54184834 14.3639469 2.54184834 15.9872377 2.54184834 17.308422 3.86554502 17.308422 5.49279621 17.308422 7.12004739 15.9872377 8.44303318 14.3639469 8.44303318 12.7413652 8.44303318 11.4208901 7.12004739 11.4208901 5.49279621M18.890581 5.49279621C18.890581 2.99611374 16.8623539.962938389 14.3724569.962938389 11.8818508.962938389 9.85362376 2.99611374 9.85362376 5.49279621 9.85362376 7.98876777 11.8818508 10.0219431 14.3724569 10.0219431 16.8623539 10.0219431 18.890581 7.98876777 18.890581 5.49279621"/>
  </g>
</svg>
