<svg xmlns="http://www.w3.org/2000/svg" width="25" height="16" viewBox="0 0 25 16">
  <path fill-rule="evenodd" d="M7.9546875,10.821875 L7.95625,10.821875 L15.4671875,10.821875 C15.5359375,11.2171875 15.5921875,11.61875 15.5921875,12.140625 C15.5921875,16.6859375 12.5453125,19.9140625 7.9546875,19.9140625 C3.55625,19.9140625 2.27373675e-13,16.359375 2.27373675e-13,11.959375 C2.27373675e-13,7.559375 3.55625,4.0046875 7.9546875,4 C10.0984375,4 11.89375,4.7859375 13.28125,6.0796875 L11.1234375,8.159375 C10.5328125,7.59375 9.503125,6.934375 7.9546875,6.934375 C5.240625,6.934375 3.0234375,9.1859375 3.0234375,11.959375 C3.0234375,14.7328125 5.240625,16.984375 7.9546875,16.984375 C11.10625,16.984375 12.2859375,14.7234375 12.4671875,13.5515625 L7.9546875,13.5515625 L7.9546875,10.821875 Z M25.0003125,10.5921875 L25.0003125,12.9359375 L22.6565625,12.9359375 L22.6565625,15.2796875 L20.3128125,15.2796875 L20.3128125,12.9359375 L17.9690625,12.9359375 L17.9690625,10.5921875 L20.3128125,10.5921875 L20.3128125,8.2484375 L22.6565625,8.2484375 L22.6565625,10.5921875 L25.0003125,10.5921875 Z" transform="translate(0 -4)"/>
</svg>
