<svg xmlns="http://www.w3.org/2000/svg" width="40" height="40" viewBox="0 0 40 40">
  <g fill="none" fill-rule="evenodd">
    <path fill="#2D2F33" d="M5.9702329 32.0262638L7.26919651 32.0262638 7.26919651 29.4225908 5.9702329 29.4225908 5.9702329 32.0262638zM7.91867831 28.1204581L5.32075109 28.1204581C4.96202911 28.1204581 4.67186026 28.4125197 4.67186026 28.7715245L4.67186026 32.6773302C4.67186026 33.0363349 4.96202911 33.3283965 5.32075109 33.3283965L7.91867831 33.3283965C8.27740029 33.3283965 8.56697817 33.0363349 8.56697817 32.6773302L8.56697817 28.7715245C8.56756914 28.4125197 8.27740029 28.1204581 7.91867831 28.1204581L7.91867831 28.1204581zM13.7623598 24.2156596L12.4633962 24.2156596 12.4633962 22.2630529C12.4633962 21.9046406 12.754156 21.6119866 13.112287 21.6119866 13.471009 21.6119866 13.7617689 21.9046406 13.7617689 22.2630529L13.7617689 24.2156596 13.7623598 24.2156596zM15.0607325 24.8667259L15.0607325 22.2630529C15.0607325 21.1860387 14.1866801 20.3104463 13.112287 20.3104463 12.038485 20.3104463 11.1644326 21.1860387 11.1644326 22.2630529L11.1644326 24.8667259C11.1644326 25.2257306 11.4551924 25.5171998 11.8139144 25.5171998L14.4112507 25.5171998C14.7705636 25.5171998 15.0607325 25.2257306 15.0607325 24.8667259L15.0607325 24.8667259z"/>
    <path fill="#3E92CB" d="M26.0984364 28.1207543L14.4113098 28.1207543C14.0519968 28.1207543 13.7624189 28.4122235 13.7624189 28.7718207 13.7624189 29.1308254 14.0519968 29.4222946 14.4113098 29.4222946L15.0607916 29.4222946 15.0607916 35.280707C15.0607916 35.6397117 15.3503694 35.9317733 15.7096824 35.9317733 16.0689953 35.9317733 16.3597552 35.6397117 16.3597552 35.280707L16.3597552 29.4222946 19.6059822 29.4222946 19.6059822 32.02656C19.2466693 32.02656 18.9565004 32.3180292 18.9565004 32.677034 18.9565004 33.0366311 19.2466693 33.3281003 19.6059822 33.3281003L19.6059822 35.280707C19.6059822 35.6397117 19.8961511 35.9317733 20.2548731 35.9317733 20.614186 35.9317733 20.9043549 35.6397117 20.9043549 35.280707L20.9043549 33.3281003C21.2630769 33.3281003 21.5538367 33.0366311 21.5538367 32.677034 21.5538367 32.3180292 21.2630769 32.02656 20.9043549 32.02656L20.9043549 29.422887 24.1511729 29.422887 24.1511729 35.280707C24.1511729 35.6397117 24.4407508 35.9317733 24.8000638 35.9317733 25.1593767 35.9317733 25.4495456 35.6397117 25.4495456 35.280707L25.4495456 29.422887 26.0984364 29.422887C26.4577493 29.422887 26.7485092 29.1314179 26.7485092 28.7718207 26.7485092 28.4122235 26.4577493 28.1207543 26.0984364 28.1207543M13.1125234 15.1031596C13.4712454 15.1031596 13.7620052 14.8116904 13.7620052 14.4520932 13.7620052 11.6718799 15.5958015 9.51844392 18.3261071 8.82946288 17.3775918 9.96334913 16.3593415 11.7939179 16.3593415 14.4520932 16.3593415 14.8116904 16.6489194 15.1031596 17.0088233 15.1031596 17.3675453 15.1031596 17.6577141 14.8116904 17.6577141 14.4520932 17.6577141 11.1446288 19.4785089 9.35493681 20.2526865 8.7435624 21.0185904 9.35375197 22.8517956 11.1576619 22.8517956 14.4520932 22.8517956 14.8116904 23.1425555 15.1031596 23.5012774 15.1031596 23.8605904 15.1031596 24.1507592 14.8116904 24.1507592 14.4520932 24.1507592 11.7939179 23.1325089 9.96334913 22.1845846 8.82946288 24.9148902 9.51844392 26.7480955 11.6718799 26.7480955 14.4520932 26.7480955 14.8116904 27.0376734 15.1031596 27.3969863 15.1031596 27.7562993 15.1031596 28.0470591 14.8116904 28.0470591 14.4520932 28.0470591 10.5729463 25.0183109 7.60552923 20.9045322 7.32057662L20.9045322 2.08538705 24.7996501 2.08538705 24.7996501 3.38751975 22.8517956 3.38751975C22.4930737 3.38751975 22.2029048 3.67898894 22.2029048 4.03799368 22.2029048 4.39759084 22.4930737 4.68906003 22.8517956 4.68906003L25.4491319 4.68906003C25.8084448 4.68906003 26.0986137 4.39759084 26.0986137 4.03799368L26.0986137 1.4343207C26.0986137 1.07531596 25.8084448.783846761 25.4491319.783846761L20.2550504.783846761C19.8963284.783846761 19.6055686 1.07531596 19.6055686 1.4343207L19.6055686 7.32057662C15.4911988 7.60552923 12.4630416 10.5729463 12.4630416 14.4520932 12.4630416 14.8116904 12.7538015 15.1031596 13.1125234 15.1031596M26.0984364 37.2331951L14.4113098 37.2331951C14.0519968 37.2331951 13.7624189 37.5246643 13.7624189 37.8848539L13.7624189 39.1858017C13.7624189 39.5453989 14.0519968 39.8374605 14.4113098 39.8374605 14.7706227 39.8374605 15.0607916 39.5453989 15.0607916 39.1858017L15.0607916 38.5347354 25.4495456 38.5347354 25.4495456 39.1858017C25.4495456 39.5453989 25.7403054 39.8374605 26.0984364 39.8374605 26.4577493 39.8374605 26.7485092 39.5453989 26.7485092 39.1858017L26.7485092 37.8848539C26.7485092 37.5246643 26.4577493 37.2331951 26.0984364 37.2331951"/>
    <path fill="#2D2F33" d="M26.7482728 22.2631122C26.7482728 21.9046998 27.0390326 21.6120458 27.3977546 21.6120458 27.7558856 21.6120458 28.0466454 21.9046998 28.0466454 22.2631122L28.0466454 24.2157188 26.7482728 24.2157188 26.7482728 22.2631122zM28.6961272 25.5172591C29.0548492 25.5172591 29.345609 25.2257899 29.345609 24.8667852L29.345609 22.2631122C29.345609 21.1860979 28.4715566 20.3105055 27.3977546 20.3105055 26.3233616 20.3105055 25.4499001 21.1860979 25.4499001 22.2631122L25.4499001 24.8667852C25.4499001 25.2257899 25.740069 25.5172591 26.0982 25.5172591L28.6961272 25.5172591zM33.2409042 22.2631122C33.2409042 21.9046998 33.531664 21.6120458 33.890386 21.6120458 34.249108 21.6120458 34.5398678 21.9046998 34.5398678 22.2631122L34.5398678 24.2157188 33.2409042 24.2157188 33.2409042 22.2631122zM32.5920134 25.5172591L35.1887587 25.5172591C35.5480716 25.5172591 35.8388314 25.2257899 35.8388314 24.8667852L35.8388314 22.2631122C35.8388314 21.1860979 34.9641881 20.3105055 33.890386 20.3105055 32.815993 20.3105055 31.9425316 21.1860979 31.9425316 22.2631122L31.9425316 24.8667852C31.9425316 25.2257899 32.2327004 25.5172591 32.5920134 25.5172591L32.5920134 25.5172591z"/>
    <path fill="#2D2F33" d="M38.4355767,38.5349131 L29.3451953,38.5349131 L29.3451953,36.5823065 C29.3451953,36.9419036 29.6353642,37.2333728 29.9946771,37.2333728 C30.3539901,37.2333728 30.643568,36.9419036 30.643568,36.5823065 C30.643568,36.9419036 30.9343278,37.2333728 31.2930498,37.2333728 C31.6517718,37.2333728 31.9425316,36.9419036 31.9425316,36.5823065 C31.9425316,36.9419036 32.2327004,37.2333728 32.5914224,37.2333728 C32.9507354,37.2333728 33.2409042,36.9419036 33.2409042,36.5823065 C33.2409042,36.9419036 33.5310731,37.2333728 33.890386,37.2333728 C34.249108,37.2333728 34.5392769,36.9419036 34.5392769,36.5823065 C34.5392769,36.9419036 34.8294457,37.2333728 35.1887587,37.2333728 C35.5474806,37.2333728 35.8376495,36.9419036 35.8376495,36.5823065 C35.8376495,36.9419036 36.1284093,37.2333728 36.4871313,37.2333728 C36.8464443,37.2333728 37.1366131,36.9419036 37.1366131,36.5823065 C37.1366131,36.9419036 37.426782,37.2333728 37.7855039,37.2333728 C38.1448169,37.2333728 38.4349857,36.9419036 38.4349857,36.5823065 L38.4349857,38.5349131 L38.4355767,38.5349131 Z M2.72353304,37.2333728 C3.082846,37.2333728 3.37301485,36.9419036 3.37301485,36.5828989 C3.37301485,36.9419036 3.6631837,37.2333728 4.02249665,37.2333728 C4.38121863,37.2333728 4.67197846,36.9419036 4.67197846,36.5828989 C4.67197846,36.9419036 4.96155633,37.2333728 5.32086929,37.2333728 C5.68018224,37.2333728 5.96976012,36.9419036 5.96976012,36.5828989 C5.96976012,36.9419036 6.26051994,37.2333728 6.61924192,37.2333728 C6.97855488,37.2333728 7.2693147,36.9419036 7.2693147,36.5828989 C7.2693147,36.9419036 7.55889258,37.2333728 7.91761456,37.2333728 C8.27751849,37.2333728 8.56709636,36.9419036 8.56709636,36.5828989 C8.56709636,36.9419036 8.85726521,37.2333728 9.21657817,37.2333728 C9.57589112,37.2333728 9.865469,36.9419036 9.865469,36.5828989 C9.865469,36.9419036 10.1556378,37.2333728 10.5155418,37.2333728 C10.8742638,37.2333728 11.1644326,36.9419036 11.1644326,36.5828989 L11.1644326,38.5349131 L2.07464221,38.5349131 L2.07464221,36.5828989 C2.07464221,36.9419036 2.36481106,37.2333728 2.72353304,37.2333728 L2.72353304,37.2333728 Z M0.775678603,16.4051738 L0.775678603,39.1859795 C0.775678603,39.5455766 1.06643843,39.8370458 1.42516041,39.8370458 L11.8139144,39.8370458 C12.1732274,39.8370458 12.4633962,39.5455766 12.4633962,39.1859795 L12.4633962,36.5828989 C12.4633962,35.864297 11.8801036,35.2807662 11.1644326,35.2807662 C10.9286335,35.2807662 10.7064268,35.3441548 10.5155418,35.4561216 C10.1337718,35.2333728 9.59893916,35.2333728 9.21716914,35.4561216 C8.83480815,35.2333728 8.29997555,35.2333728 7.91820553,35.4561216 C7.53643552,35.2333728 7.00160291,35.2333728 6.61924192,35.4561216 C6.23806288,35.2333728 5.7026393,35.2333728 5.32086929,35.4561216 C4.9385083,35.2333728 4.40367569,35.2333728 4.02249665,35.4561216 C3.64013566,35.2333728 3.10530306,35.2333728 2.72353304,35.4561216 C2.53264803,35.3447472 2.31044134,35.2807662 2.07464221,35.2807662 L2.07464221,17.7067141 L38.4355767,17.7067141 L38.4355767,35.2807662 C38.1991866,35.2807662 37.9769799,35.3441548 37.7855039,35.4561216 C37.4043249,35.2333728 36.8694923,35.2333728 36.4871313,35.4561216 C36.1059523,35.2333728 35.5705287,35.2333728 35.1887587,35.4561216 C34.8069886,35.2333728 34.272156,35.2333728 33.890386,35.4561216 C33.508616,35.2333728 32.9737834,35.2333728 32.5914224,35.4561216 C32.2096524,35.2333728 31.6748198,35.2333728 31.2930498,35.4561216 C30.9112798,35.2333728 30.3758562,35.2333728 29.9940862,35.4561216 C29.8037921,35.3447472 29.5815854,35.2807662 29.3451953,35.2807662 C28.6283424,35.2807662 28.0468227,35.864297 28.0468227,36.5828989 L28.0468227,39.1859795 C28.0468227,39.5455766 28.3364006,39.8370458 28.6957135,39.8370458 L39.0844675,39.8370458 C39.4431895,39.8370458 39.7339493,39.5455766 39.7339493,39.1859795 L39.7339493,16.4051738 L0.775678603,16.4051738 Z"/>
    <path fill="#2D2F33" d="M33.240786 32.0268562L34.5397496 32.0268562 34.5397496 29.4231833 33.240786 29.4231833 33.240786 32.0268562zM31.9424134 32.6773302C31.9424134 33.0363349 32.2325822 33.3283965 32.5924862 33.3283965L35.1886405 33.3283965C35.5479534 33.3283965 35.8387132 33.0363349 35.8387132 32.6773302L35.8387132 28.7715245C35.8387132 28.4125197 35.5479534 28.1204581 35.1886405 28.1204581L32.5924862 28.1204581C32.2325822 28.1204581 31.9424134 28.4125197 31.9424134 28.7715245L31.9424134 32.6773302zM19.6057459 22.2631122C19.6057459 21.9046998 19.8965057 21.6120458 20.2552277 21.6120458 20.6133587 21.6120458 20.9041185 21.9046998 20.9041185 22.2631122L20.9041185 24.2157188 19.6057459 24.2157188 19.6057459 22.2631122zM21.5536003 25.5172591C21.9129132 25.5172591 22.2030821 25.2257899 22.2030821 24.8667852L22.2030821 22.2631122C22.2030821 21.1860979 21.3290297 20.3105055 20.2552277 20.3105055 19.1808346 20.3105055 18.3073732 21.1860979 18.3073732 22.2631122L18.3073732 24.8667852C18.3073732 25.2257899 18.5975421 25.5172591 18.956264 25.5172591L21.5536003 25.5172591zM7.26913741 24.2156596L5.9701738 24.2156596 5.9701738 22.2630529C5.9701738 21.9046406 6.2615246 21.6119866 6.6196556 21.6119866 6.97778661 21.6119866 7.26913741 21.9046406 7.26913741 22.2630529L7.26913741 24.2156596zM8.56751004 22.2630529C8.56751004 21.1860387 7.69345764 20.3104463 6.6196556 20.3104463 5.54585357 20.3104463 4.67180116 21.1860387 4.67180116 22.2630529L4.67180116 24.8667259C4.67180116 25.2257306 4.96197001 25.5171998 5.32069199 25.5171998L7.91861921 25.5171998C8.27734119 25.5171998 8.56691907 25.2257306 8.56691907 24.8667259L8.56691907 22.2630529 8.56751004 22.2630529z"/>
  </g>
</svg>
