<svg xmlns="http://www.w3.org/2000/svg" width="42" height="42" viewBox="0 0 42 42">
  <path fill-rule="evenodd" d="M825,0.5 C819.432519,0.5 818.734416,0.523452704 816.547914,0.623373806 C814.365814,0.723025335 812.875617,1.06951433 811.571785,1.57621855 C810.223653,2.10008547 809.080396,2.80106075 807.940734,3.94071842 C806.801071,5.08037608 806.100092,6.22371789 805.576313,7.57175419 C805.069337,8.8757605 804.722847,10.3659507 804.623374,12.5479508 C804.523543,14.7344438 804.5,15.4324538 804.5,20.9999101 C804.5,26.5675462 804.523543,27.2655562 804.623374,29.4520492 C804.722847,31.6340493 805.069337,33.1242395 805.576313,34.4282458 C806.100092,35.7762821 806.801071,36.9196239 807.940734,38.0592816 C809.080396,39.1989392 810.223653,39.8999145 811.571785,40.4237814 C812.875617,40.9304857 814.365814,41.2769747 816.547914,41.3766262 C818.734416,41.4763676 819.432519,41.5 825,41.5 C830.567481,41.5 831.265674,41.4763676 833.452176,41.3766262 C835.634186,41.2769747 837.124383,40.9304857 838.428305,40.4237814 C839.776437,39.8999145 840.919604,39.1989392 842.059266,38.0592816 C843.198929,36.9196239 843.899908,35.7762821 844.423777,34.4282458 C844.930663,33.1242395 845.277153,31.6340493 845.376716,29.4520492 C845.476547,27.2655562 845.5,26.5675462 845.5,20.9999101 C845.5,15.4324538 845.476547,14.7344438 845.376716,12.5479508 C845.277153,10.3659507 844.930663,8.8757605 844.423777,7.57175419 C843.899908,6.22371789 843.198929,5.08037608 842.059266,3.94071842 C840.919604,2.80106075 839.776437,2.10008547 838.428305,1.57621855 C837.124383,1.06951433 835.634186,0.723025335 833.452176,0.623373806 C831.265674,0.523452704 830.567481,0.5 825,0.5 M825,4.19366617 C830.473759,4.19366617 831.121991,4.21451302 833.283783,4.31308626 C835.282483,4.40429122 836.367962,4.73837994 837.090327,5.01900368 C838.047309,5.39092224 838.730226,5.83517577 839.447468,6.55250504 C840.164981,7.26992417 840.609236,7.95274831 840.980977,8.90963663 C841.261601,9.6319979 841.595692,10.7175616 841.686897,12.7161633 C841.785471,14.8779456 841.806407,15.5261747 841.806407,20.9999101 C841.806407,26.4738253 841.785471,27.1220544 841.686897,29.283657 C841.595692,31.2824384 841.261601,32.3680021 840.980977,33.0903634 C840.609236,34.0471618 840.164981,34.7300758 839.447468,35.447495 C838.730226,36.1648242 838.047309,36.6090778 837.090327,36.9809065 C836.367962,37.2616201 835.282483,37.5957088 833.283783,37.686734 C831.122351,37.785487 830.474209,37.806244 825,37.806244 C819.525791,37.806244 818.877649,37.785487 816.716217,37.686734 C814.717606,37.5957088 813.632038,37.2616201 812.909673,36.9809065 C811.952781,36.6090778 811.269864,36.1648242 810.552532,35.447495 C809.835289,34.7300758 809.391034,34.0471618 809.019113,33.0903634 C808.738399,32.3680021 808.404398,31.2824384 808.313103,29.283657 C808.214619,27.1220544 808.193682,26.4738253 808.193682,20.9999101 C808.193682,15.5261747 808.214619,14.8779456 808.313103,12.7161633 C808.404398,10.7175616 808.738399,9.6319979 809.019113,8.90963663 C809.391034,7.95274831 809.835289,7.26992417 810.552532,6.55250504 C811.269864,5.83517577 811.952781,5.39092224 812.909673,5.01900368 C813.632038,4.73837994 814.717606,4.40429122 816.716217,4.31308626 C818.878009,4.21451302 819.526241,4.19366617 825,4.19366617 Z M825,10.4729705 C819.18613,10.4729705 814.473014,15.1861554 814.473014,20.9999101 C814.473014,26.8139344 819.18613,31.5269396 825,31.5269396 C830.81387,31.5269396 835.526986,26.8139344 835.526986,20.9999101 C835.526986,15.1861554 830.81387,10.4729705 825,10.4729705 Z M825,27.8332734 C821.226075,27.8332734 818.166607,24.7739086 818.166607,20.9999101 C818.166607,17.2260016 821.226075,14.1666367 825,14.1666367 C828.774015,14.1666367 831.833393,17.2260016 831.833393,20.9999101 C831.833393,24.7739086 828.774015,27.8332734 825,27.8332734 Z M838.403055,10.057022 C838.403055,8.69838257 837.301671,7.59700403 835.943026,7.59700403 C834.58447,7.59700403 833.482997,8.69838257 833.482997,10.057022 C833.482997,11.4155716 834.58447,12.51704 835.943026,12.51704 C837.301671,12.51704 838.403055,11.4155716 838.403055,10.057022 Z" transform="translate(-804)"/>
</svg>
