<svg xmlns="http://www.w3.org/2000/svg" width="38" height="40" viewBox="0 0 38 40">
  <g fill="none" fill-rule="evenodd">
    <path fill="#2D2F33" d="M19.4064524,4.40815166 L17.8547878,4.40815166 C7.93207686,4.81549763 0.0120628821,13.0079147 0.0120628821,23.055782 L0.0120628821,23.2249763 C1.34175721,21.5294787 3.40544279,20.4425118 5.72230218,20.4425118 C8.5327441,20.4425118 10.9694533,22.0420379 12.1764611,24.384455 C13.2714201,22.2602844 15.3769467,20.7474882 17.8547878,20.4837441 L19.4064524,20.4837441 C21.8850026,20.7474882 23.9905293,22.2609953 25.084779,24.384455 C26.2917869,22.0420379 28.7292052,20.4425118 31.5396472,20.4425118 C33.8565066,20.4425118 35.919483,21.5294787 37.2491773,23.2249763 L37.2491773,23.055782 C37.2491773,13.0079147 29.3291633,4.81549763 19.4064524,4.40815166 M31.5396472,18.8870616 C29.8922445,18.8870616 28.2852646,19.3463033 26.891745,20.2143128 C26.2237066,20.6301896 25.6166568,21.1327962 25.084779,21.705782 C24.5529013,21.1327962 23.9458515,20.6301896 23.2778131,20.2143128 C21.8850026,19.3463033 20.2780227,18.8870616 18.6306201,18.8870616 C16.9832175,18.8870616 15.3769467,19.3463033 13.9834271,20.2143128 C13.3146795,20.6301896 12.7083389,21.1327962 12.1764611,21.705782 C11.6452926,21.1327962 11.0382428,20.6301896 10.3694952,20.2143128 C8.97668472,19.3463033 7.36899563,18.8870616 5.72230218,18.8870616 C4.37346026,18.8870616 3.08064279,19.1849289 1.87647162,19.7707109 C2.10056943,18.6162085 2.44380786,17.4887204 2.90405939,16.3967773 C3.76428297,14.3600474 4.99469345,12.5294787 6.562669,10.9583886 C8.13064454,9.38587678 9.95533974,8.15246445 11.988531,7.29085308 C14.0905118,6.39938389 16.3265258,5.94725118 18.6306201,5.94725118 C20.9347144,5.94725118 23.1714376,6.39938389 25.2734183,7.29085308 C27.3051913,8.15246445 29.1305956,9.38587678 30.6985712,10.9583886 C32.2665467,12.5294787 33.4976664,14.3600474 34.35789,16.3967773 C34.8181415,17.4887204 35.1613799,18.6162085 35.3847686,19.7707109 C34.1805974,19.1849289 32.8870707,18.8870616 31.5396472,18.8870616"/>
    <path fill="#3E92CB" d="M19.4064524,3.31748815 L19.4064524,3.31748815 L19.4064524,0.967962085 C19.4064524,0.538578199 19.058959,0.190236967 18.6306201,0.190236967 C18.2022812,0.190236967 17.8547878,0.538578199 17.8547878,0.967962085 L17.8547878,3.31748815 L19.4064524,3.31748815 Z M17.8547878,21.5385782 L17.8547878,35.7750711 C17.8547878,37.9227014 19.5915459,39.6636967 21.7339493,39.6636967 C23.8756437,39.6636967 25.6116926,37.9227014 25.6116926,35.7750711 C25.6116926,35.3449763 25.2656175,34.997346 24.8372786,34.997346 C24.4089397,34.997346 24.0607371,35.3449763 24.0607371,35.7750711 C24.0607371,37.0618009 23.0168384,38.1082464 21.7339493,38.1082464 C20.4510603,38.1082464 19.4064524,37.0618009 19.4064524,35.7750711 L19.4064524,21.5385782 L17.8547878,21.5385782 Z"/>
  </g>
</svg>
