<svg xmlns="http://www.w3.org/2000/svg" width="38" height="36" viewBox="0 0 38 36">
  <g fill="none" fill-rule="evenodd">
    <path fill="#2D2F33" d="M26.46867 34.0209716C25.4417914 34.0209716 24.6560307 33.1501185 24.6560307 32.2046209 24.6560307 31.175237 25.5247644 30.3882701 26.46867 30.3882701 27.4948395 30.3882701 28.2806002 31.175237 28.2806002 32.2046209 28.2806002 33.2347156 27.4118666 34.0209716 26.46867 34.0209716M26.46867 28.8896919C24.6560307 28.8896919 23.1610997 30.3882701 23.1610997 32.2046209 23.1610997 34.0209716 24.6560307 35.5195498 26.46867 35.5195498 28.3557722 35.5195498 29.774822 34.0209716 29.774822 32.2046209 29.774822 30.3882701 28.2806002 28.8896919 26.46867 28.8896919M14.3427797 34.0209716C13.3159011 34.0209716 12.5301404 33.1501185 12.5301404 32.2046209 12.5301404 31.175237 13.3988741 30.3882701 14.3427797 30.3882701 15.2866854 30.3882701 16.155419 31.175237 16.155419 32.2046209 16.155419 33.2347156 15.2866854 34.0209716 14.3427797 34.0209716M14.3427797 28.8896919C12.5301404 28.8896919 11.0359186 30.3882701 11.0359186 32.2046209 11.0359186 34.0209716 12.5301404 35.5195498 14.3427797 35.5195498 16.155419 35.5195498 17.6496409 34.0209716 17.6496409 32.2046209 17.6496409 30.3882701 16.155419 28.8896919 14.3427797 28.8896919"/>
    <polygon fill="#3E92CB" points="26.111 6.606 25.34 4.437 30.927 2.621 32.255 6.606 33.869 6.606 31.946 .653 23.445 3.416 24.49 6.606"/>
    <polygon fill="#3E92CB" points="14.591 6.606 13.821 4.437 19.408 2.621 20.735 6.606 22.407 6.606 20.427 .653 11.926 3.416 12.971 6.606"/>
    <path fill="#2D2F33" d="M32.7646131,19.5808057 L11.5114882,19.5808057 L8.7556524,8.84834123 L35.7551843,8.84834123 L32.7646131,19.5808057 Z M22.7461642,7.34976303 L22.3461921,7.34976303 L12.9078445,7.34976303 L8.36348122,7.34976303 L7.41957555,3.56563981 C6.94372227,1.67393365 5.29844716,0.333886256 3.40283493,0.333886256 L0.805853275,0.333886256 L0.805853275,1.91563981 L3.40283493,1.91563981 C4.58076681,1.91563981 5.60764541,2.70260664 5.92393537,3.89123223 L10.0995301,20.2689573 C9.23859738,20.8902844 8.67267948,21.9040284 8.67267948,23.0613744 C8.67267948,24.9537915 10.2505834,26.535545 12.1376856,26.535545 L33.3915197,26.535545 L33.3915197,24.9537915 L12.1376856,24.9537915 C11.1115162,24.9537915 10.2505834,24.0836493 10.2505834,23.0613744 C10.2505834,22.0248815 11.119317,21.1547393 12.1376856,21.1547393 L33.942545,21.1547393 L37.8011406,7.34976303 L32.1235231,7.34976303 L22.7461642,7.34976303 Z"/>
  </g>
</svg>
