<svg xmlns="http://www.w3.org/2000/svg" width="20" height="19" viewBox="0 0 20 19">
  <path fill-rule="evenodd" d="M9.14285714,7.71428571 L13.0957143,7.71428571 L13.0957143,9.74 L13.1528571,9.74 C13.7028571,8.75285714 15.0485714,7.71428571 17.0557143,7.71428571 C21.2285714,7.71428571 22,10.3114286 22,13.69 L22,20.5714286 L17.8785714,20.5714286 L17.8785714,14.4714286 C17.8785714,13.0171429 17.8485714,11.1442857 15.7357143,11.1442857 C13.59,11.1442857 13.2614286,12.7285714 13.2614286,14.3657143 L13.2614286,20.5714286 L9.14285714,20.5714286 L9.14285714,7.71428571 Z M2,20.5714286 L2,7.71428571 L6.28571429,7.71428571 L6.28571429,20.5714286 L2,20.5714286 Z M6.28571429,4.14285714 C6.28571429,5.32571429 5.32571429,6.28571429 4.14285714,6.28571429 C2.96,6.28571429 2,5.32571429 2,4.14285714 C2,2.96 2.96,2 4.14285714,2 C5.32571429,2 6.28571429,2.96 6.28571429,4.14285714 Z" transform="translate(-2 -2)"/>
</svg>
