<svg xmlns="http://www.w3.org/2000/svg" width="18" height="24" viewBox="0 0 18 24">
  <path d="M18.6982698,8.60843488 L7.6939694,8.60843488 C7.74181418,3.82625666 8.98577858,2.00447449 12.0956896,2.00447449 C14.5836184,2.00447449 15.8275828,3.14308835 16.3060306,5.83021706 C16.4017202,6.33120716 16.880168,6.65001904 17.4064606,6.55892993 C17.9327533,6.46784082 18.2676668,6.01239528 18.1719772,5.51140518 C17.549995,1.95892993 15.4926693,0.182692308 12.0956896,0.182692308 C6.01940194,0.228236862 5.78017802,5.87576161 5.78017802,8.60843488 L5.30173017,8.60843488 C4.24914491,8.60843488 3.38793879,9.42823686 3.38793879,10.4302171 L3.38793879,21.3609101 C3.38793879,22.3628903 4.24914491,23.1826923 5.30173017,23.1826923 L18.6982698,23.1826923 C19.7508551,23.1826923 20.6120612,22.3628903 20.6120612,21.3609101 L20.6120612,10.4302171 C20.6120612,9.42823686 19.7508551,8.60843488 18.6982698,8.60843488 Z M18.6982698,21.3609101 L5.30173017,21.3609101 L5.30173017,10.4302171 L18.6982698,10.4302171 L18.6982698,21.3609101 Z M11.0431043,16.0777418 L11.0431043,18.6282369 C11.0431043,19.129227 11.4737074,19.539128 12,19.539128 C12.5262926,19.539128 12.9568957,19.129227 12.9568957,18.6282369 L12.9568957,16.0777418 C13.4353435,15.8044745 13.7224122,15.2579398 13.7224122,14.7114052 C13.7224122,13.8005141 12.9568957,13.0718012 12,13.0718012 C11.0431043,13.0718012 10.2775878,13.8005141 10.2775878,14.7114052 C10.2775878,15.3034844 10.5646565,15.8044745 11.0431043,16.0777418 Z" transform="translate(-3)"/>
</svg>
