<svg xmlns="http://www.w3.org/2000/svg" width="22" height="17" viewBox="0 0 22 17">
  <path d="M3.8331467,3.25307938 C2.27825913,3.25307938 1,4.53135267 1,6.08622608 L1,16.8521864 C1,18.4070456 2.27825913,19.6853331 3.8331467,19.6853331 L20.1668533,19.6853331 C21.7217409,19.6853331 23,18.4070456 23,16.8521864 L23,6.08622608 C23,4.53135267 21.7217409,3.25307938 20.1668533,3.25307938 L3.8331467,3.25307938 Z M3.87740045,4.9529674 L20.1137318,4.9529674 L12.6905795,12.6024663 C12.2149508,12.97596 11.7663221,12.9757617 11.2917133,12.6024663 L3.87740045,4.9529674 Z M21.300112,6.18361549 L21.300112,16.8521864 C21.300112,17.4947157 20.8093826,17.985445 20.1668533,17.985445 L3.8331467,17.985445 C3.19061736,17.985445 2.69988802,17.4947157 2.69988802,16.8521864 L2.69988802,6.19246908 L10.2469905,13.9393716 C11.2694165,14.7435319 12.712933,14.7421437 13.7353024,13.9393716 L21.300112,6.18361549 Z" transform="translate(-1 -3)"/>
</svg>
