<svg xmlns="http://www.w3.org/2000/svg" width="33" height="26" viewBox="0 0 33 26">
  <g fill-rule="evenodd">
    <path d="M4.9894.7568L4.9874.7568C4.6834.7568 4.3984.8748 4.1834 1.0898 3.9654 1.3068 3.8454 1.5958 3.8454 1.9038L3.8454 19.1018C3.8454 19.7328 4.3614 20.2468 4.9944 20.2478 7.6634 20.2548 12.1364 20.8108 15.2214 24.0398L15.2214 6.0418C15.2214 5.8278 15.1674 5.6278 15.0644 5.4618 12.5314 1.3828 7.6654.7628 4.9894.7568M28.3785 19.1016L28.3785 1.9046C28.3785 1.5966 28.2585 1.3076 28.0405 1.0896 27.8255.8746 27.5405.7566 27.2365.7566L27.2345.7566C24.5595.7636 19.6925 1.3826 17.1605 5.4616 17.0565 5.6276 17.0025 5.8286 17.0025 6.0416L17.0025 24.0396C20.0875 20.8106 24.5605 20.2546 27.2305 20.2476 27.8625 20.2466 28.3785 19.7316 28.3785 19.1016"/>
    <path d="M30.9904 4.7231L30.1584 4.7231 30.1584 19.1011C30.1584 20.7121 28.8464 22.0241 27.2344 22.0291 24.9694 22.0341 21.2364 22.4771 18.5924 24.9791 23.1654 23.8601 27.9864 24.5871 30.7334 25.2141 31.0764 25.2921 31.4314 25.2111 31.7054 24.9921 31.9804 24.7731 32.1364 24.4471 32.1364 24.0961L32.1364 5.8691C32.1374 5.2371 31.6224 4.7231 30.9904 4.7231M2.0651 19.1016L2.0651 4.7236 1.2331 4.7236C.6011 4.7236.0871 5.2376.0871 5.8696L.0871 24.0956C.0871 24.4466.2441 24.7736.5181 24.9916.7931 25.2106 1.1471 25.2916 1.4901 25.2136 4.2381 24.5876 9.0591 23.8596 13.6321 24.9786 10.9881 22.4766 7.2541 22.0346 4.9901 22.0286 3.3771 22.0246 2.0651 20.7116 2.0651 19.1016"/>
  </g>
</svg>
