<?xml version="1.0" encoding="utf-8"?>
<!-- Generator: Adobe Illustrator 23.0.2, SVG Export Plug-In . SVG Version: 6.00 Build 0)  -->
<svg version="1.1" id="Layer_1" xmlns="http://www.w3.org/2000/svg" xmlns:xlink="http://www.w3.org/1999/xlink" x="0px" y="0px"
	 viewBox="0 0 76 57" style="enable-background:new 0 0 76 57;" xml:space="preserve">
<style type="text/css">
	.st0{fill:#C5D3E0;}
	.st1{fill:#00A7F0;}
</style>
<g>
	<path class="st1" d="M38.4,5C21.5,5,7.8,18.7,7.8,35.6c0,0.6,0.5,1,1,1H68c0.6,0,1-0.5,1-1C69.1,18.7,55.3,5,38.4,5L38.4,5z
		 M33.4,34.6L33.4,34.6C33.4,34.6,33.4,34.6,33.4,34.6c0.1-0.4,0.2-0.6,0.3-0.9c0-0.1,0.1-0.2,0.1-0.3c0.1-0.2,0.2-0.4,0.3-0.5
		c0.1-0.1,0.1-0.2,0.2-0.3c0.1-0.2,0.2-0.3,0.4-0.4c0.1-0.1,0.2-0.2,0.3-0.3c0.1-0.1,0.3-0.2,0.4-0.4c0.1-0.1,0.2-0.1,0.3-0.2
		c0.2-0.1,0.3-0.2,0.5-0.3c0.1,0,0.2-0.1,0.3-0.1c0.2-0.1,0.4-0.1,0.6-0.2c0.1,0,0.2-0.1,0.3-0.1c0.3-0.1,0.6-0.1,1-0.1
		c0.6,0,1.2,0.1,1.8,0.3c0.2,0.1,0.4,0.2,0.7,0.3c0.1,0,0.1,0.1,0.2,0.1c0.1,0.1,0.3,0.2,0.4,0.3c0.1,0,0.1,0.1,0.2,0.2
		c0.1,0.1,0.2,0.2,0.3,0.3c0.1,0.1,0.1,0.1,0.2,0.2c0.1,0.1,0.2,0.2,0.3,0.4c0,0.1,0.1,0.1,0.1,0.2c0.1,0.2,0.2,0.4,0.3,0.6
		c0,0,0,0,0,0c0.1,0.2,0.2,0.4,0.3,0.7c0,0.1,0,0.1,0.1,0.2c0,0.1,0.1,0.2,0.1,0.3L33.4,34.6L33.4,34.6z M45.5,34.6L45.5,34.6
		C45.5,34.6,45.5,34.6,45.5,34.6c0-0.1,0-0.2-0.1-0.3c0-0.2-0.1-0.5-0.2-0.7c0-0.1-0.1-0.2-0.1-0.4c-0.1-0.2-0.2-0.4-0.2-0.6
		c-0.1-0.1-0.1-0.2-0.2-0.4c-0.1-0.2-0.2-0.4-0.3-0.5c-0.1-0.1-0.2-0.2-0.2-0.3c-0.1-0.2-0.2-0.3-0.4-0.5c-0.1-0.1-0.2-0.2-0.3-0.3
		c-0.2-0.1-0.3-0.3-0.5-0.4c-0.1-0.1-0.2-0.2-0.3-0.2c-0.2-0.1-0.4-0.3-0.6-0.4c-0.1-0.1-0.2-0.1-0.3-0.2l0,0l5.7-14.8l-1.9-0.7
		L40,28.7c-0.5-0.1-1-0.2-1.6-0.2c-0.2,0-0.5,0-0.7,0c-0.1,0-0.2,0-0.2,0c-0.2,0-0.3,0-0.5,0.1c-0.1,0-0.2,0-0.3,0.1
		c-0.1,0-0.3,0.1-0.4,0.1c-0.1,0-0.2,0.1-0.3,0.1c-0.1,0-0.2,0.1-0.4,0.1c-0.1,0-0.2,0.1-0.3,0.1c-0.1,0-0.2,0.1-0.3,0.2
		c-0.1,0-0.2,0.1-0.3,0.1c-0.1,0.1-0.2,0.1-0.3,0.2c-0.1,0-0.2,0.1-0.2,0.2c-0.1,0.1-0.2,0.1-0.3,0.2c-0.1,0.1-0.2,0.1-0.2,0.2
		c-0.1,0.1-0.2,0.2-0.3,0.3c-0.1,0.1-0.1,0.1-0.2,0.2c-0.1,0.1-0.2,0.2-0.3,0.3c0,0.1-0.1,0.1-0.2,0.2c-0.1,0.1-0.2,0.3-0.3,0.4
		c0,0-0.1,0.1-0.1,0.1c-0.1,0.2-0.2,0.4-0.3,0.6c0,0.1-0.1,0.1-0.1,0.2c-0.1,0.1-0.1,0.3-0.2,0.4c0,0.1-0.1,0.2-0.1,0.2
		c0,0.1-0.1,0.2-0.1,0.4c0,0.1,0,0.2-0.1,0.3c0,0.1-0.1,0.2-0.1,0.4c0,0.1,0,0.2,0,0.3c0,0.1,0,0.2,0,0.2H9.8
		c0.2-6.9,2.9-13.1,7.2-17.9l2.6,2.6l1.4-1.4l-2.7-2.7c4.9-4.8,11.6-7.9,19-8.1v4.1h2V7.1c7.4,0.3,14,3.3,19,8.1l-2.7,2.7l1.4,1.4
		l2.6-2.6c4.3,4.8,6.9,11,7.2,17.9H45.5z"/>
	<path class="st1" d="M20.7,46.4c-0.2-0.2-0.5-0.3-0.8-0.2L8.7,47.9c-0.5,0.1-0.9,0.5-0.9,1V53c0,0.6,0.5,1,1,1h11.2
		c0.6,0,1-0.5,1-1v-5.8C21.1,46.8,20.9,46.6,20.7,46.4L20.7,46.4z M19,52H9.8v-2.2l9.2-1.4V52z"/>
	<path class="st1" d="M37,43.8c-0.2-0.2-0.5-0.3-0.8-0.2L24,45.5c-0.5,0.1-0.9,0.5-0.9,1V53c0,0.6,0.5,1,1,1h12.2c0.6,0,1-0.5,1-1
		v-8.4C37.4,44.3,37.3,44,37,43.8L37,43.8z M35.4,52H25.2v-4.6l10.2-1.6V52z"/>
	<path class="st1" d="M53.4,41.3c-0.2-0.2-0.5-0.3-0.8-0.2L40.3,43c-0.5,0.1-0.9,0.5-0.9,1v9c0,0.6,0.5,1,1,1h12.2c0.6,0,1-0.5,1-1
		V42.1C53.7,41.8,53.6,41.5,53.4,41.3L53.4,41.3z M51.7,52H41.5v-7.1l10.2-1.6V52z"/>
	<path class="st1" d="M68.7,38.9c-0.2-0.2-0.5-0.3-0.8-0.2l-11.2,1.8c-0.5,0.1-0.9,0.5-0.9,1V53c0,0.6,0.5,1,1,1H68c0.6,0,1-0.5,1-1
		V39.7C69.1,39.4,68.9,39.1,68.7,38.9L68.7,38.9z M67,52h-9.2v-9.6l9.2-1.4C67,40.9,67,52,67,52z"/>
</g>
</svg>
