<svg version="1.1" id="Layer_1" xmlns="http://www.w3.org/2000/svg" xmlns:xlink="http://www.w3.org/1999/xlink" x="0px" y="0px"
	 viewBox="0 0 76 57" style="enable-background:new 0 0 76 57;" xml:space="preserve">
<style type="text/css">
	.st0{fill:#C5D3E0;}
	.st1{fill:#00A7F0;}
</style>
<g>
	<path class="st0" d="M38.79,5C21.9,5,8.16,18.74,8.16,35.62c0,0.56,0.46,1.02,1.02,1.02h59.21c0.56,0,1.02-0.46,1.02-1.02
		C69.42,18.74,55.68,5,38.79,5L38.79,5z M33.79,34.6L33.79,34.6c0-0.02,0.01-0.04,0.02-0.06c0.06-0.29,0.15-0.58,0.26-0.85
		c0.04-0.1,0.09-0.19,0.14-0.28c0.09-0.19,0.18-0.37,0.3-0.55c0.07-0.1,0.14-0.19,0.21-0.29c0.11-0.15,0.23-0.3,0.36-0.44
		c0.08-0.09,0.17-0.18,0.27-0.26c0.14-0.13,0.28-0.24,0.43-0.36c0.1-0.07,0.2-0.15,0.31-0.21c0.16-0.1,0.33-0.19,0.5-0.27
		c0.11-0.05,0.21-0.11,0.33-0.15c0.2-0.08,0.4-0.14,0.61-0.19c0.1-0.03,0.2-0.06,0.3-0.08c0.31-0.06,0.64-0.1,0.97-0.1
		c0.62,0,1.25,0.12,1.82,0.34c0.23,0.09,0.44,0.19,0.65,0.31c0.07,0.04,0.13,0.08,0.19,0.12c0.14,0.09,0.28,0.18,0.4,0.27
		c0.07,0.05,0.14,0.11,0.2,0.16c0.12,0.1,0.23,0.2,0.34,0.31c0.06,0.06,0.12,0.12,0.18,0.19c0.11,0.12,0.21,0.25,0.3,0.37
		c0.04,0.06,0.09,0.12,0.13,0.18c0.13,0.19,0.24,0.38,0.34,0.58c0.01,0.01,0.01,0.02,0.02,0.03c0.1,0.21,0.19,0.43,0.26,0.66
		c0.02,0.07,0.04,0.14,0.06,0.21c0.03,0.11,0.06,0.23,0.08,0.35H33.79z M45.86,34.6L45.86,34.6c0-0.01-0.01-0.03-0.01-0.04
		c-0.01-0.09-0.04-0.18-0.06-0.27c-0.05-0.24-0.1-0.49-0.17-0.73c-0.04-0.12-0.08-0.24-0.13-0.36c-0.07-0.2-0.15-0.4-0.24-0.59
		c-0.06-0.12-0.12-0.24-0.19-0.36c-0.1-0.18-0.2-0.35-0.31-0.52c-0.08-0.12-0.15-0.23-0.24-0.34c-0.12-0.16-0.24-0.32-0.38-0.47
		c-0.09-0.1-0.18-0.21-0.27-0.3c-0.15-0.15-0.3-0.29-0.46-0.42c-0.1-0.08-0.2-0.17-0.3-0.25c-0.18-0.14-0.37-0.26-0.56-0.38
		c-0.09-0.06-0.18-0.13-0.28-0.18c0,0-0.01-0.01-0.01-0.01l5.65-14.84L46,13.82l-5.65,14.84c-0.51-0.12-1.04-0.18-1.57-0.18
		c-0.24,0-0.47,0.01-0.7,0.04c-0.08,0.01-0.15,0.02-0.23,0.03c-0.15,0.02-0.31,0.04-0.45,0.07c-0.09,0.02-0.17,0.04-0.26,0.06
		c-0.13,0.03-0.27,0.06-0.4,0.1c-0.09,0.03-0.18,0.06-0.27,0.09c-0.12,0.04-0.24,0.09-0.37,0.13c-0.09,0.04-0.18,0.08-0.26,0.12
		c-0.12,0.05-0.23,0.11-0.34,0.16c-0.09,0.04-0.17,0.09-0.26,0.14c-0.11,0.06-0.22,0.13-0.32,0.19c-0.08,0.05-0.16,0.1-0.24,0.16
		c-0.1,0.07-0.2,0.15-0.3,0.23c-0.07,0.06-0.15,0.12-0.22,0.18c-0.1,0.08-0.19,0.17-0.29,0.26c-0.07,0.06-0.13,0.12-0.2,0.19
		c-0.1,0.1-0.18,0.2-0.28,0.3c-0.05,0.06-0.11,0.12-0.16,0.19c-0.1,0.13-0.2,0.26-0.3,0.4c-0.03,0.04-0.07,0.09-0.1,0.13
		c-0.12,0.18-0.24,0.37-0.34,0.56c-0.03,0.06-0.06,0.12-0.09,0.18c-0.07,0.14-0.14,0.28-0.2,0.42c-0.03,0.08-0.06,0.16-0.09,0.24
		c-0.05,0.13-0.1,0.25-0.14,0.39c-0.03,0.09-0.05,0.18-0.08,0.27c-0.04,0.13-0.07,0.25-0.1,0.38c-0.02,0.1-0.04,0.19-0.05,0.29
		c-0.01,0.08-0.03,0.15-0.04,0.23H10.22c0.24-6.85,2.91-13.1,7.17-17.91l2.63,2.62l1.44-1.44l-2.66-2.66
		c4.93-4.83,11.6-7.89,18.97-8.15v4.06h2.04V7.07c7.37,0.26,14.04,3.32,18.97,8.15l-2.66,2.66l1.44,1.44l2.63-2.63
		c4.26,4.81,6.93,11.05,7.17,17.91H45.86z M45.86,34.6"/>
	<path class="st0" d="M21.08,46.38c-0.23-0.19-0.52-0.28-0.82-0.23L9.03,47.89c-0.5,0.08-0.86,0.51-0.86,1.01v4.08
		c0,0.56,0.46,1.02,1.02,1.02h11.23c0.56,0,1.02-0.46,1.02-1.02v-5.83C21.44,46.85,21.31,46.57,21.08,46.38L21.08,46.38z
		 M19.39,51.96h-9.19v-2.19l9.19-1.43V51.96z M19.39,51.96"/>
	<path class="st0" d="M37.41,43.84c-0.23-0.19-0.52-0.28-0.82-0.23l-12.25,1.9c-0.5,0.08-0.86,0.51-0.86,1.01v6.46
		c0,0.56,0.46,1.02,1.02,1.02h12.25c0.56,0,1.02-0.46,1.02-1.02v-8.36C37.77,44.32,37.64,44.04,37.41,43.84L37.41,43.84z
		 M35.73,51.96H25.52v-4.57l10.21-1.58V51.96z M35.73,51.96"/>
	<path class="st0" d="M53.75,41.31c-0.23-0.19-0.52-0.28-0.82-0.23l-12.25,1.9c-0.5,0.08-0.86,0.51-0.86,1.01v8.99
		c0,0.56,0.46,1.02,1.02,1.02h12.25c0.56,0,1.02-0.46,1.02-1.02V42.09C54.1,41.79,53.97,41.51,53.75,41.31L53.75,41.31z
		 M52.06,51.96H41.85v-7.1l10.21-1.58V51.96z M52.06,51.96"/>
	<path class="st0" d="M69.06,38.93c-0.23-0.19-0.53-0.28-0.82-0.23l-11.23,1.75c-0.5,0.08-0.86,0.51-0.86,1.01v11.53
		c0,0.56,0.46,1.02,1.02,1.02h11.23c0.56,0,1.02-0.46,1.02-1.02V39.71C69.42,39.41,69.29,39.13,69.06,38.93L69.06,38.93z
		 M67.37,51.96h-9.19v-9.63l9.19-1.43V51.96z M67.37,51.96"/>
</g>
<g>
	<path class="st1" d="M-49.21,5C-66.1,5-79.84,18.74-79.84,35.62c0,0.56,0.46,1.02,1.02,1.02h59.21c0.56,0,1.02-0.46,1.02-1.02
		C-18.58,18.74-32.32,5-49.21,5L-49.21,5z M-54.21,34.6L-54.21,34.6c0-0.02,0.01-0.04,0.02-0.06c0.06-0.29,0.15-0.58,0.26-0.85
		c0.04-0.1,0.09-0.19,0.14-0.28c0.09-0.19,0.18-0.37,0.3-0.55c0.07-0.1,0.14-0.19,0.21-0.29c0.11-0.15,0.23-0.3,0.36-0.44
		c0.08-0.09,0.17-0.18,0.27-0.26c0.14-0.13,0.28-0.24,0.43-0.36c0.1-0.07,0.2-0.15,0.31-0.21c0.16-0.1,0.33-0.19,0.5-0.27
		c0.11-0.05,0.21-0.11,0.33-0.15c0.2-0.08,0.4-0.14,0.61-0.19c0.1-0.03,0.2-0.06,0.3-0.08c0.31-0.06,0.64-0.1,0.97-0.1
		c0.62,0,1.25,0.12,1.82,0.34c0.23,0.09,0.44,0.19,0.65,0.31c0.07,0.04,0.13,0.08,0.19,0.12c0.14,0.09,0.28,0.18,0.4,0.27
		c0.07,0.05,0.14,0.11,0.2,0.16c0.12,0.1,0.23,0.2,0.34,0.31c0.06,0.06,0.12,0.12,0.18,0.19c0.11,0.12,0.21,0.25,0.3,0.37
		c0.04,0.06,0.09,0.12,0.13,0.18c0.13,0.19,0.24,0.38,0.34,0.58c0.01,0.01,0.01,0.02,0.02,0.03c0.1,0.21,0.19,0.43,0.26,0.66
		c0.02,0.07,0.04,0.14,0.06,0.21c0.03,0.11,0.06,0.23,0.08,0.35H-54.21z M-42.14,34.6L-42.14,34.6c0-0.01-0.01-0.03-0.01-0.04
		c-0.01-0.09-0.04-0.18-0.06-0.27c-0.05-0.24-0.1-0.49-0.17-0.73c-0.04-0.12-0.08-0.24-0.13-0.36c-0.07-0.2-0.15-0.4-0.24-0.59
		c-0.06-0.12-0.12-0.24-0.19-0.36c-0.1-0.18-0.2-0.35-0.31-0.52c-0.08-0.12-0.15-0.23-0.24-0.34c-0.12-0.16-0.24-0.32-0.38-0.47
		c-0.09-0.1-0.18-0.21-0.27-0.3c-0.15-0.15-0.3-0.29-0.46-0.42c-0.1-0.08-0.2-0.17-0.3-0.25c-0.18-0.14-0.37-0.26-0.56-0.38
		c-0.09-0.06-0.18-0.13-0.28-0.18c0,0-0.01-0.01-0.01-0.01l5.65-14.84L-42,13.82l-5.65,14.84c-0.51-0.12-1.04-0.18-1.57-0.18
		c-0.24,0-0.47,0.01-0.7,0.04c-0.08,0.01-0.15,0.02-0.23,0.03c-0.15,0.02-0.31,0.04-0.45,0.07c-0.09,0.02-0.17,0.04-0.26,0.06
		c-0.13,0.03-0.27,0.06-0.4,0.1c-0.09,0.03-0.18,0.06-0.27,0.09c-0.12,0.04-0.24,0.09-0.37,0.13c-0.09,0.04-0.18,0.08-0.26,0.12
		c-0.12,0.05-0.23,0.11-0.34,0.16c-0.09,0.04-0.17,0.09-0.26,0.14c-0.11,0.06-0.22,0.13-0.32,0.19c-0.08,0.05-0.16,0.1-0.24,0.16
		c-0.1,0.07-0.2,0.15-0.3,0.23c-0.07,0.06-0.15,0.12-0.22,0.18c-0.1,0.08-0.19,0.17-0.29,0.26c-0.07,0.06-0.13,0.12-0.2,0.19
		c-0.1,0.1-0.18,0.2-0.28,0.3c-0.05,0.06-0.11,0.12-0.16,0.19c-0.1,0.13-0.2,0.26-0.3,0.4c-0.03,0.04-0.07,0.09-0.1,0.13
		c-0.12,0.18-0.24,0.37-0.34,0.56c-0.03,0.06-0.06,0.12-0.09,0.18c-0.07,0.14-0.14,0.28-0.2,0.42c-0.03,0.08-0.06,0.16-0.09,0.24
		c-0.05,0.13-0.1,0.25-0.14,0.39c-0.03,0.09-0.05,0.18-0.08,0.27c-0.04,0.13-0.07,0.25-0.1,0.38c-0.02,0.1-0.04,0.19-0.05,0.29
		c-0.01,0.08-0.03,0.15-0.04,0.23h-21.49c0.24-6.85,2.91-13.1,7.17-17.91l2.63,2.62l1.44-1.44l-2.66-2.66
		c4.93-4.83,11.6-7.89,18.97-8.15v4.06h2.04V7.07c7.37,0.26,14.04,3.32,18.97,8.15l-2.66,2.66l1.44,1.44l2.63-2.63
		c4.26,4.81,6.93,11.05,7.17,17.91H-42.14z M-42.14,34.6"/>
	<path class="st1" d="M-66.92,46.38c-0.23-0.19-0.52-0.28-0.82-0.23l-11.23,1.75c-0.5,0.08-0.86,0.51-0.86,1.01v4.08
		c0,0.56,0.46,1.02,1.02,1.02h11.23c0.56,0,1.02-0.46,1.02-1.02v-5.83C-66.56,46.85-66.69,46.57-66.92,46.38L-66.92,46.38z
		 M-68.61,51.96h-9.19v-2.19l9.19-1.43V51.96z M-68.61,51.96"/>
	<path class="st1" d="M-50.59,43.84c-0.23-0.19-0.52-0.28-0.82-0.23l-12.25,1.9c-0.5,0.08-0.86,0.51-0.86,1.01v6.46
		c0,0.56,0.46,1.02,1.02,1.02h12.25c0.56,0,1.02-0.46,1.02-1.02v-8.36C-50.23,44.32-50.36,44.04-50.59,43.84L-50.59,43.84z
		 M-52.27,51.96h-10.21v-4.57l10.21-1.58V51.96z M-52.27,51.96"/>
	<path class="st1" d="M-34.25,41.31c-0.23-0.19-0.52-0.28-0.82-0.23l-12.25,1.9c-0.5,0.08-0.86,0.51-0.86,1.01v8.99
		c0,0.56,0.46,1.02,1.02,1.02h12.25c0.56,0,1.02-0.46,1.02-1.02V42.09C-33.9,41.79-34.03,41.51-34.25,41.31L-34.25,41.31z
		 M-35.94,51.96h-10.21v-7.1l10.21-1.58V51.96z M-35.94,51.96"/>
	<path class="st1" d="M-18.94,38.93c-0.23-0.19-0.53-0.28-0.82-0.23l-11.23,1.75c-0.5,0.08-0.86,0.51-0.86,1.01v11.53
		c0,0.56,0.46,1.02,1.02,1.02h11.23c0.56,0,1.02-0.46,1.02-1.02V39.71C-18.58,39.41-18.71,39.13-18.94,38.93L-18.94,38.93z
		 M-20.63,51.96h-9.19v-9.63l9.19-1.43V51.96z M-20.63,51.96"/>
</g>
</svg>
