<svg xmlns="http://www.w3.org/2000/svg" viewBox="0 0 30 30"><defs><style>.cls-1{fill:#002649;}.cls-2{fill:#fff;}</style></defs><title>Instagram</title><g id="Layer_2" data-name="Layer 2"><g id="Layer_1-2" data-name="Layer 1"><circle class="cls-1" cx="15" cy="15" r="15"/><path class="cls-2" d="M18.68,5.41H11.32a5.92,5.92,0,0,0-5.91,5.91v7.36a5.92,5.92,0,0,0,5.91,5.91h7.36a5.92,5.92,0,0,0,5.91-5.91V11.32A5.92,5.92,0,0,0,18.68,5.41ZM22.75,18A4.78,4.78,0,0,1,18,22.75H12A4.78,4.78,0,0,1,7.25,18V12A4.78,4.78,0,0,1,12,7.25H18A4.78,4.78,0,0,1,22.75,12Z"/><path class="cls-2" d="M15.26,10a5.06,5.06,0,1,0,5,5A5.06,5.06,0,0,0,15.26,10Zm0,8.09a3,3,0,1,1,3-3A3,3,0,0,1,15.26,18.07Z"/><path class="cls-2" d="M20,8.62A1.29,1.29,0,1,0,21.24,9.9,1.28,1.28,0,0,0,20,8.62Z"/></g></g></svg>
