<svg xmlns="http://www.w3.org/2000/svg" viewBox="0 0 30 30"><defs><style>.cls-1{fill:#002649;}.cls-2{fill:#fff;}</style></defs><title>Messenger</title><g id="Layer_2" data-name="Layer 2"><g id="Layer_1-2" data-name="Layer 1"><circle class="cls-1" cx="15" cy="15" r="15"/><path class="cls-2" d="M22.85,12.57A7.46,7.46,0,0,0,18.77,7.7,8.3,8.3,0,0,0,13.34,7,7.94,7.94,0,0,0,8.55,9.82,7.06,7.06,0,0,0,7.1,16.08a7.32,7.32,0,0,0,2.72,4.14.22.22,0,0,1,.09.19v2.77l.07,0,2.59-1.44a.26.26,0,0,1,.21,0,8.09,8.09,0,0,0,2.08.29,8.72,8.72,0,0,0,1.76-.15A8,8,0,0,0,21.41,19,7,7,0,0,0,22.85,12.57Zm-7,4.38c-.18-.17-.37-.33-.54-.51l-1.52-1.57a.09.09,0,0,0-.15,0L9.89,16.94a.18.18,0,0,1-.11,0l4.36-4.62q.45.45.87.9c.4.4.79.81,1.18,1.22,0,0,.07,0,.12,0l2-1.11,1.81-1a.12.12,0,0,1,.09,0Z"/></g></g></svg>
