<svg xmlns="http://www.w3.org/2000/svg" viewBox="0 0 30 30"><defs><style>.cls-1{fill:#002649;}.cls-2{fill:#fff;fill-rule:evenodd;}</style></defs><title>Pinterest</title><g id="Layer_2" data-name="Layer 2"><g id="Layer_1-2" data-name="Layer 1"><circle class="cls-1" cx="15" cy="15" r="15"/><path class="cls-2" d="M15,6.46A8.54,8.54,0,0,0,11.88,23v0a3.48,3.48,0,0,1-.07-.64A7.88,7.88,0,0,1,12,20c.29-1.11.53-2.24.81-3.36a1,1,0,0,0,0-.57,2.75,2.75,0,0,1,.37-2.6A1.23,1.23,0,0,1,14.39,13a.94.94,0,0,1,.84.78,2.16,2.16,0,0,1,0,1.1c-.15.68-.42,1.33-.56,2a2.23,2.23,0,0,0,0,.89c.3,1.09,1.76.86,2.45.34a3.3,3.3,0,0,0,1-1.43,4.68,4.68,0,0,0,.36-1.92,4.56,4.56,0,0,0-.25-1.51,3.37,3.37,0,0,0-2.62-2,4,4,0,0,0-3.45,1,3.63,3.63,0,0,0-.52,4.42.47.47,0,0,1,.07.46,4,4,0,0,1-.13.6c-.06.18-.11.39-.33.4a.67.67,0,0,1-.42-.16,2.17,2.17,0,0,1-.6-.77c-.06-.12-.13-.24-.2-.36a4.4,4.4,0,0,1-.49-2.47,5.38,5.38,0,0,1,.19-1.05,5.06,5.06,0,0,1,2.41-3,5.54,5.54,0,0,1,1-.45A6,6,0,0,1,17,10a5,5,0,0,1,2.34,1.57,5,5,0,0,1,1,4.26,5.38,5.38,0,0,1-1.65,3.08,3.66,3.66,0,0,1-1.09.69,5.33,5.33,0,0,1-.63.23,2.81,2.81,0,0,1-2.91-.8c-.07.29-.27,1-.31,1.16-.1.4-.21.8-.35,1.19a7.83,7.83,0,0,1-.84,1.72l-.08.1A8.54,8.54,0,1,0,15,6.46Z"/></g></g></svg>
