<svg xmlns="http://www.w3.org/2000/svg" viewBox="0 0 45.89 64.4"><defs><style>.cls-1{fill:none;stroke:#fff;stroke-miterlimit:10;stroke-width:2px;}</style></defs><title>icoon 3</title><g id="Layer_2" data-name="Layer 2"><g id="Laag_1" data-name="Laag 1"><rect class="cls-1" x="1" y="19.4" width="43.89" height="44" rx="3"/><path class="cls-1" d="M38.31,2.09C35.57-.33,30,1.42,26,6.06s-2.39,12.76-2.39,12.76,8.25.62,12.32-4S41.05,4.51,38.31,2.09Z"/><path class="cls-1" d="M7.75,2.09c2.74-2.42,8.29-.67,12.34,4s2.38,12.76,2.38,12.76-8.25.62-12.32-4S5,4.51,7.75,2.09Z"/><path class="cls-1" d="M34.61,6.15c-2.08-1.84-6.29-.51-9.35,3s-1.81,9.66-1.81,9.66,6.25.48,9.33-3S36.69,8,34.61,6.15Z"/><path class="cls-1" d="M11.45,6.15c2.08-1.84,6.28-.51,9.35,3s1.81,9.66,1.81,9.66-6.25.48-9.34-3S9.37,8,11.45,6.15Z"/><line class="cls-1" x1="25.63" y1="44.63" x2="25.63" y2="63.4"/><line class="cls-1" x1="20.35" y1="44.63" x2="20.35" y2="63.4"/><line class="cls-1" x1="25.55" y1="19.4" x2="25.55" y2="38.17"/><line class="cls-1" x1="20.27" y1="19.4" x2="20.27" y2="38.17"/><line class="cls-1" x1="1.41" y1="38.76" x2="44.82" y2="38.76"/><line class="cls-1" x1="1.41" y1="44.04" x2="44.82" y2="44.04"/></g></g></svg>
