<svg xmlns="http://www.w3.org/2000/svg" viewBox="0 0 30 30"><defs><style>.cls-1{fill:#002649;}.cls-2{fill:#fff;}</style></defs><title>Snapchat</title><g id="Layer_2" data-name="Layer 2"><g id="Layer_1-2" data-name="Layer 1"><circle class="cls-1" cx="15" cy="15" r="15"/><path class="cls-2" d="M11,9.9l.09-.19a4.14,4.14,0,0,1,.74-1.05A4.08,4.08,0,0,1,12.67,8a4.22,4.22,0,0,1,.87-.37,3.8,3.8,0,0,1,.76-.16,6.28,6.28,0,0,1,.75,0,4.6,4.6,0,0,1,.74,0,4.92,4.92,0,0,1,.78.18,4.79,4.79,0,0,1,.89.41,4.21,4.21,0,0,1,.85.73A4.12,4.12,0,0,1,19,9.9a8.31,8.31,0,0,1,.18,3.26l0,.51v.06l0,.06a.88.88,0,0,0,.59.22h0a1.45,1.45,0,0,0,.51-.1,3.43,3.43,0,0,1,.45-.16.68.68,0,0,1,.56.17c.11.12,0,.29-.11.37a1.63,1.63,0,0,1-.47.25l-.23.08c-.38.12-1,.31-1.16.77a1.08,1.08,0,0,0,.09.91,5.29,5.29,0,0,0,3.64,3s0,0,0,0-.31.44-2,.7c-.26,0-.33.33-.4.67,0,.12-.05.24-.09.37s0,0-.05,0h0a2.51,2.51,0,0,1-.32,0,4.39,4.39,0,0,0-1-.11,4.23,4.23,0,0,0-.7.06,3.44,3.44,0,0,0-1.36.69,6.49,6.49,0,0,1-.83.53,2.8,2.8,0,0,1-1,.3h-.24A3,3,0,0,1,14,22.46a3.79,3.79,0,0,1-.89-.47,4,4,0,0,1-.34-.23,3.44,3.44,0,0,0-1.36-.69,4.23,4.23,0,0,0-.7-.06,5.21,5.21,0,0,0-1,.11,1.57,1.57,0,0,1-.32.05c-.06,0-.06,0-.07-.05s-.06-.25-.09-.37c-.07-.34-.14-.63-.4-.67-1.65-.26-1.92-.6-2-.7s0,0,0,0a5.29,5.29,0,0,0,3.64-3,1.08,1.08,0,0,0,.09-.91c-.2-.46-.78-.65-1.16-.77l-.23-.08c-.22-.09-.92-.41-.47-.69a.54.54,0,0,1,.32-.09,1,1,0,0,1,.35.11,2.08,2.08,0,0,0,.7.14.86.86,0,0,0,.64-.22l0-.06v-.06l0-.51A8.31,8.31,0,0,1,11,9.9Zm1.91-2.47a4.14,4.14,0,0,0-1.23.82,4.69,4.69,0,0,0-1,1.49,8.52,8.52,0,0,0-.22,3.44h0c0,.12,0,.25,0,.38a.71.71,0,0,1-.27,0,1.44,1.44,0,0,1-.58-.13,1.68,1.68,0,0,0-.5-.13,1,1,0,0,0-.48.14.73.73,0,0,0-.36.46.65.65,0,0,0,.24.6,2,2,0,0,0,.64.36l.24.09c.32.1.8.25.92.54a.7.7,0,0,1-.08.58v0a5,5,0,0,1-.55.95,5.3,5.3,0,0,1-1.2,1.21,4,4,0,0,1-.79.43c-.25.09-.51.14-.77.21a.43.43,0,0,0-.36.43.59.59,0,0,0,0,.17,1,1,0,0,0,.58.49,6.43,6.43,0,0,0,1.66.44,1.92,1.92,0,0,1,.1.37c0,.12.06.26.1.39a.43.43,0,0,0,.45.34,2,2,0,0,0,.39-.06,4.69,4.69,0,0,1,.9-.1,3.63,3.63,0,0,1,.64.06,3.14,3.14,0,0,1,1.19.61l.1.08a6.59,6.59,0,0,0,.8.49,3.25,3.25,0,0,0,1,.32,4,4,0,0,0,.6,0,3.68,3.68,0,0,0,.66-.06,3.42,3.42,0,0,0,1-.35l.4-.25a2.45,2.45,0,0,0,.37-.26h0a3.14,3.14,0,0,1,1.19-.61,3.63,3.63,0,0,1,.64-.06,4.48,4.48,0,0,1,.9.1,2.3,2.3,0,0,0,.39,0h0a.43.43,0,0,0,.43-.33c0-.14.07-.27.1-.4a2.28,2.28,0,0,1,.1-.36A6.43,6.43,0,0,0,22.88,20a1,1,0,0,0,.58-.49.59.59,0,0,0,0-.17.4.4,0,0,0-.33-.42,4.91,4.91,0,0,1-3.34-2.81v0a.7.7,0,0,1-.08-.58c.12-.29.6-.44.92-.54l.24-.09a1.84,1.84,0,0,0,.68-.4.64.64,0,0,0,.21-.47.79.79,0,0,0-.83-.69,1.58,1.58,0,0,0-.6.13,1.64,1.64,0,0,1-.54.13.89.89,0,0,1-.24,0l0-.33v-.05a8.52,8.52,0,0,0-.22-3.44,4.63,4.63,0,0,0-1-1.5,4.53,4.53,0,0,0-1.24-.82A5.19,5.19,0,0,0,15.61,7L15,7a5.7,5.7,0,0,0-1.3.15A5.07,5.07,0,0,0,12.88,7.43Z"/><path class="cls-2" d="M21.13,20.08c1.65-.26,1.92-.6,2-.7s0,0,0,0a5.29,5.29,0,0,1-3.64-3,1.08,1.08,0,0,1-.09-.91c.2-.46.78-.65,1.16-.77l.23-.08a1.63,1.63,0,0,0,.47-.25c.1-.08.22-.25.11-.37a.68.68,0,0,0-.56-.17,3.43,3.43,0,0,0-.45.16,1.45,1.45,0,0,1-.51.1h0a.88.88,0,0,1-.59-.22l0-.06v-.06l0-.51A8.31,8.31,0,0,0,19,9.9a4.12,4.12,0,0,0-.72-1.12,4.21,4.21,0,0,0-.85-.73,4.79,4.79,0,0,0-.89-.41,4.92,4.92,0,0,0-.78-.18,4.6,4.6,0,0,0-.74,0,6.28,6.28,0,0,0-.75,0,3.8,3.8,0,0,0-.76.16,4.22,4.22,0,0,0-.87.37,4.08,4.08,0,0,0-.87.68,4.14,4.14,0,0,0-.74,1.05L11,9.9a8.31,8.31,0,0,0-.18,3.26l0,.51v.06l0,.06a.86.86,0,0,1-.64.22,2.08,2.08,0,0,1-.7-.14,1,1,0,0,0-.35-.11.54.54,0,0,0-.32.09c-.45.28.25.6.47.69l.23.08c.38.12,1,.31,1.16.77a1.08,1.08,0,0,1-.09.91,5.29,5.29,0,0,1-3.64,3s0,0,0,0,.31.44,2,.7c.26,0,.33.33.4.67,0,.12.05.25.09.37s0,.05.07.05a1.57,1.57,0,0,0,.32-.05,5.21,5.21,0,0,1,1-.11,4.23,4.23,0,0,1,.7.06,3.44,3.44,0,0,1,1.36.69,4,4,0,0,0,.34.23,3.79,3.79,0,0,0,.89.47,3,3,0,0,0,1.12.14h.24a2.8,2.8,0,0,0,1-.3,6.49,6.49,0,0,0,.83-.53,3.44,3.44,0,0,1,1.36-.69,4.23,4.23,0,0,1,.7-.06,4.39,4.39,0,0,1,1,.11,2.51,2.51,0,0,0,.32,0h0s0,0,.05,0,.06-.25.09-.37C20.8,20.41,20.87,20.12,21.13,20.08Z"/></g></g></svg>
