<svg xmlns="http://www.w3.org/2000/svg" viewBox="0 0 30 30"><defs><style>.cls-1{fill:#002649;}.cls-2{fill:#fff;}</style></defs><title>Twitter</title><g id="Layer_2" data-name="Layer 2"><g id="Layer_1-2" data-name="Layer 1"><circle class="cls-1" cx="15" cy="15" r="15"/><circle class="cls-1" cx="15" cy="15" r="15"/><path class="cls-2" d="M11.8,22A10,10,0,0,0,21.86,11.94c0-.15,0-.3,0-.45a7.29,7.29,0,0,0,1.76-1.83,6.85,6.85,0,0,1-2,.55,3.56,3.56,0,0,0,1.56-2,7.2,7.2,0,0,1-2.25.86,3.53,3.53,0,0,0-6.11,2.41,3.59,3.59,0,0,0,.09.81A10,10,0,0,1,7.59,8.65a3.45,3.45,0,0,0-.48,1.77,3.51,3.51,0,0,0,1.57,2.94,3.36,3.36,0,0,1-1.6-.44V13a3.53,3.53,0,0,0,2.83,3.46,3.48,3.48,0,0,1-.93.13,3.6,3.6,0,0,1-.66-.07A3.53,3.53,0,0,0,11.62,19a7.07,7.07,0,0,1-4.39,1.51,7.73,7.73,0,0,1-.84-.05A10,10,0,0,0,11.8,22"/></g></g></svg>
