<svg xmlns="http://www.w3.org/2000/svg" width="68" height="68" viewBox="0 0 68 68">
  <g fill="none" stroke="#000000" stroke-width="3" transform="translate(2 2)" opacity=".5">
    <path d="M61.798863,20.8702842 L55.5601034,23.1937984 C56.2331783,25.0021705 56.7135917,26.9114212 56.96,28.9074935 C58.6650129,42.7328165 48.8128165,55.3674419 34.9982429,57.0749354 C21.1811886,58.7816021 8.55483204,48.9219638 6.84816537,35.0982946 C5.14232558,21.2729716 14.9953488,8.63834625 28.8099225,6.93250646 C40.2356589,5.52103359 50.8981912,12.1385013 55.1937984,22.2428941 L61.3209302,19.6382429 C55.8999483,6.85312661 42.4574677,-1.46356589 27.9962791,0.32248062 C10.5095607,2.48392765 -1.91503876,18.4186047 0.243927649,35.9152455 C2.40206718,53.4118863 18.3276486,65.8447545 35.8127132,63.6849612 C53.3002584,61.5193798 65.7281654,45.5855297 63.5700258,28.0888889 C63.2591214,25.5644444 62.6521964,23.150801 61.8046512,20.865323 L61.798863,20.8702842 Z"/>
    <path d="M30.9192765,23.5394315 C26.259845,24.0826873 22.9110078,28.3171059 23.4542636,32.979845 C23.9975194,37.6434109 28.2302842,40.9922481 32.8888889,40.4489922 C37.5491473,39.9057364 40.8971576,35.6696641 40.3539018,31.0085788 C40.2761757,30.3388114 40.1124548,29.6938501 39.8908527,29.0819638 L31.8263566,32.1165891 L31.7792248,32.0090956 L39.7461499,28.734677 C38.321447,25.3196899 34.7683721,23.1036693 30.9151421,23.5526615"/>
    <path d="M53.7682687,22.8729716 C49.7992765,13.361447 39.889199,7.1954522 29.1605168,8.44651163 C16.1843928,9.95968992 6.85808786,21.7550388 8.37126615,34.7386047 C9.88444444,47.7221705 21.6715245,57.0559173 34.6476486,55.542739 C47.6229457,54.0295607 56.9500775,42.2325581 55.4368992,29.2481654 C55.2186047,27.3736434 54.7208269,25.4610853 54.1014987,23.7593798 L48.470491,25.8712145 C48.9335401,27.1429457 49.3139018,28.5420155 49.4792765,29.942739 C50.6038243,39.6419638 43.6415504,48.4531266 33.9505943,49.5851163 C24.2513695,50.7154522 15.445168,43.7440827 14.3206202,34.0448579 C13.1878036,24.3456331 20.1583463,15.5344703 29.8493023,14.4041344 C37.8617054,13.4697674 45.2622222,18.0754522 48.2306977,25.1782946 L53.7624806,22.8713178 L53.7682687,22.8729716 Z"/>
    <path d="M46.8026873,25.7794315 C44.0988114,19.2967442 37.3457364,15.0962274 30.0336951,15.947907 C21.191938,16.979845 14.8357623,25.0170543 15.8677003,33.8645995 C16.8979845,42.7121447 24.9302326,49.070801 33.7736434,48.0405168 C42.6162274,47.0069251 48.9715762,38.9697158 47.9404651,30.1221705 C47.7916279,28.8405168 47.4922997,27.6167442 47.0697674,26.4591214 L41.3478036,28.5428424 C41.6107494,29.2622222 41.8042377,30.0229457 41.8976744,30.8167442 C42.5393282,36.3319897 38.5786047,41.3395349 33.0683204,41.9820155 C27.5596899,42.6269767 22.5529716,38.6662532 21.910491,33.1510078 C21.2671835,27.6390698 25.227907,22.6306977 30.7390181,21.9882171 C35.2950904,21.4565375 39.4980879,24.0768992 41.1824289,28.1153488 L46.8026873,25.7719897 L46.8026873,25.7794315 Z"/>
  </g>
</svg>
