<svg xmlns="http://www.w3.org/2000/svg" viewBox="0 0 772 773">
  <g fill-rule="evenodd">
    <path d="M747.38 251.4l-75.45 28.1c8.14 21.87 13.95 44.96 16.93 69.1 20.62 167.2-98.53 320-265.6 340.65-167.1 20.64-319.8-98.6-340.44-265.78-20.63-167.2 98.53-320 265.6-340.63C486.6 65.77 615.55 145.8 667.5 268l74.1-31.5C676.04 81.88 513.47-18.7 338.58 2.9 127.1 29.04-23.16 221.75 2.95 433.35c26.1 211.6 218.7 361.96 430.16 335.84C644.6 743 794.9 550.3 768.8 338.7c-3.76-30.53-11.1-59.72-21.35-87.36z"/>
    <path d="M373.93 283.68c-56.35 6.57-96.85 57.78-90.28 114.17 6.57 56.4 57.76 96.9 114.1 90.33 56.36-6.57 96.85-57.8 90.28-114.17-.94-8.1-2.92-15.9-5.6-23.3l-97.53 36.7-.57-1.3 96.35-39.6c-17.23-41.3-60.2-68.1-106.8-62.67"/>
    <path d="M650.26 275.62c-48-115.03-167.85-189.6-297.6-174.47-156.93 18.3-269.72 160.95-251.42 317.97 18.3 157.02 160.85 269.9 317.78 251.6 156.92-18.3 269.72-160.97 251.42-318-2.64-22.67-8.66-45.8-16.15-66.38l-68.1 25.54c5.6 15.38 10.2 32.3 12.2 49.24 13.6 117.3-70.6 223.86-187.8 237.55-117.3 13.67-223.8-70.64-237.4-187.94-13.7-117.3 70.6-223.86 187.8-237.53 96.9-11.3 186.4 44.4 222.3 130.3l66.9-27.9z"/>
    <path d="M566.02 310.77c-32.7-78.4-114.37-129.2-202.8-118.9-106.93 12.48-183.8 109.68-171.32 216.68 12.46 107 109.6 183.9 216.55 171.44 106.94-12.5 183.8-109.7 171.33-216.7-1.8-15.5-5.42-30.3-10.53-44.3l-69.2 25.2c3.18 8.7 5.52 17.9 6.65 27.5 7.76 66.7-40.14 127.26-106.78 135.03-66.62 7.8-127.17-40.1-134.94-106.8-7.78-66.66 40.12-127.23 106.77-135 55.1-6.43 105.93 25.26 126.3 74.1l67.97-28.34z"/>
  </g>
</svg>
