<?xml version="1.0" encoding="utf-8"?>
<!-- Generator: Adobe Illustrator 21.0.2, SVG Export Plug-In . SVG Version: 6.00 Build 0)  -->
<svg version="1.1" id="Layer_1" xmlns="http://www.w3.org/2000/svg" xmlns:xlink="http://www.w3.org/1999/xlink" x="0px" y="0px" viewBox="0 0 80 80" style="enable-background:new 0 0 80 80;" xml:space="preserve">
	<g class="st0" opacity=".2">
		<path
			d="M78.6,35.2c-0.3-2.5-0.9-4.9-1.6-7.1l-7.7,2.5c0.6,1.8,1,3.7,1.3,5.6c2.1,16.8-9.9,32.2-26.8,34.3
			c-16.8,2.1-32.2-9.9-34.3-26.8C7.4,26.9,19.4,11.5,36.2,9.4c13.4-1.7,25.9,5.7,31.5,17.2l7.3-3.5C68,8.6,52.2-0.8,35.3,1.3
			C13.9,4-1.2,23.4,1.4,44.7c2.6,21.3,22,36.5,43.4,33.8C66.1,75.9,81.3,56.5,78.6,35.2"/>
		<path
			d="M67.5,31.1l-7,2.3c0.4,1.3,0.8,2.7,0.9,4c1.4,11.8-7.1,22.6-18.9,23.9C30.7,62.8,20,54.3,18.6,42.4
			c-1.4-11.8,7.1-22.6,18.9-23.9c9.4-1.1,18,4,21.9,12.1l6.6-3.1C60.9,16.7,49.2,9.8,36.7,11.3c-15.8,1.8-27.2,16.2-25.3,32
			c1.8,15.8,16.2,27.2,32,25.3c15.8-1.8,27.2-16.2,25.3-32C68.5,34.8,68.1,32.9,67.5,31.1"/>
		<path
			d="M58.8,34l-7.1,2.3c0.2,0.7,0.4,1.5,0.5,2.2c0.8,6.7-4,12.8-10.8,13.6c-6.7,0.8-12.8-4-13.6-10.8
			c-0.8-6.7,4-12.8,10.8-13.6c5.3-0.6,10.2,2.3,12.4,6.8l6.7-3.2c-3.5-7.3-11.4-12-20-11C27,21.7,19.2,31.4,20.5,42.2
			C21.7,53,31.5,60.8,42.3,59.5c10.8-1.3,18.5-11.1,17.3-21.8C59.4,36.4,59.1,35.2,58.8,34"/>
		<path d="M49.9,36.9L40,40.1l-0.1-0.3l9.4-4.5c-1.9-3.8-6-6.3-10.5-5.7c-5.7,0.7-9.8,5.8-9.1,11.5
			c0.7,5.7,5.8,9.8,11.5,9.1c5.7-0.7,9.8-5.8,9.1-11.5C50.2,38.1,50.1,37.5,49.9,36.9"/>

		<!-- ANIMATION START -->
		<animateTransform attributeType="xml" attributeName="transform" type="rotate" from="0 40 40" to="360 40 40" dur="0.8s" repeatCount="indefinite"/>
	</g>
</svg>
