<svg xmlns="http://www.w3.org/2000/svg" width="21" height="22" viewBox="0 0 21 22">
  <path d="M22.0432232,20.3474417 L17.2052038,15.4817765 C19.7969999,12.1304254 19.5007946,7.21511059 16.5140581,4.21130707 C14.9096129,2.57286879 12.7621247,1.704 10.4912177,1.704 C8.22031063,1.704 6.07282244,2.59769361 4.46837724,4.21130707 C2.86393203,5.80009571 2,7.95985527 2,10.2437389 C2,12.5276226 2.8886158,14.6873822 4.49306101,16.3009956 C6.07282244,17.8897843 8.22031063,18.7834779 10.4912177,18.7834779 C12.3671844,18.7834779 14.2184673,18.1628573 15.7241774,16.9960907 L20.537513,21.8617559 C20.7349832,22.0603544 21.0065047,22.1844786 21.2780262,22.1844786 C21.5495477,22.1844786 21.8210692,22.0603544 22.0185394,21.8617559 C22.4628473,21.4149091 22.4628473,20.7694637 22.0432232,20.3474417 Z M16.8102634,10.2189141 C16.8102634,11.9318269 16.1438016,13.5454403 14.9589805,14.7370318 C13.7741594,15.9534481 12.1697142,16.6237183 10.4665339,16.6237183 C8.76335363,16.6237183 7.15890842,15.9534481 5.97408735,14.7370318 L5.97408735,14.7370318 C3.50571011,12.2545496 3.50571011,8.20810349 5.97408735,5.70079642 C7.1835922,4.48438012 8.76335363,3.81410991 10.4665339,3.81410991 C12.1450304,3.81410991 13.7494756,4.48438012 14.9589805,5.70079642 C16.1438016,6.8923879 16.8102634,8.50600136 16.8102634,10.2189141 Z" transform="translate(-2 -1)"/>
</svg>
