<svg xmlns="http://www.w3.org/2000/svg" width="39" height="36" viewBox="0 0 39 36">
  <g fill="none" fill-rule="evenodd">
    <path fill="#2D2F33" d="M12.7367375,1.97670616 C15.2315986,1.97670616 17.2796824,3.95087678 17.4130065,6.42054502 L8.06046847,6.42054502 C8.19379249,3.95087678 10.2411672,1.97670616 12.7367375,1.97670616 M16.8477977,34.6553791 C16.8477977,34.2231517 16.503141,33.877654 16.0712562,33.877654 L5.23584314,33.877654 C3.33739424,33.877654 1.79991301,32.327891 1.79991301,30.4326303 L1.79991301,7.97741706 L6.5073855,7.97741706 L6.5073855,10.9113033 C6.5073855,11.3442417 6.85204227,11.6904502 7.28392699,11.6904502 C7.71510253,11.6904502 8.06046847,11.3442417 8.06046847,10.9113033 L8.06046847,7.97741706 L17.4200982,7.97741706 L17.4200982,10.9113033 C17.4200982,11.3442417 17.7654641,11.6904502 18.1973488,11.6904502 C18.6292335,11.6904502 18.9738903,11.3442417 18.9738903,10.9113033 L18.9738903,7.97741706 L23.6813628,7.97741706 L23.6813628,9.51154028 C23.6813628,9.94376777 24.0267287,10.2899763 24.4586134,10.2899763 C24.889789,10.2899763 25.2351549,9.94376777 25.2351549,9.51154028 L25.2351549,7.19898104 C25.2351549,6.76675355 24.889789,6.42054502 24.4586134,6.42054502 L18.9660894,6.42054502 C18.8334746,3.09353081 16.0946589,0.419834123 12.7367375,0.419834123 C9.37881607,0.419834123 6.64070952,3.0857109 6.5073855,6.42054502 L1.01486148,6.42054502 C0.582976769,6.42054502 0.23761083,6.76675355 0.23761083,7.19898104 L0.23761083,30.4326303 C0.23761083,33.1930569 2.47433397,35.4345261 5.22804227,35.4345261 L16.0627462,35.4345261 C16.503141,35.4345261 16.8477977,35.0804976 16.8477977,34.6553791"/>
    <path fill="#3E92CB" d="M32.0844636,16.0943365 L32.0844636,16.9829621 L24.9998522,16.9829621 L24.9998522,16.0943365 C24.9998522,14.1358057 26.5919396,12.5398341 28.5464129,12.5398341 C30.4916671,12.5469431 32.0844636,14.1358057 32.0844636,16.0943365 M32.8617142,21.2540521 C33.2928898,21.2540521 33.6375466,20.9078436 33.6375466,20.4749052 L33.6375466,18.5398341 L37.137302,18.5398341 L37.137302,31.4227725 C37.137302,32.776327 36.0387972,33.868981 34.697047,33.868981 L22.3872688,33.868981 C21.0370086,33.868981 19.9470138,32.7677962 19.9470138,31.4227725 L19.9470138,18.5398341 L23.4460601,18.5398341 L23.4460601,20.4749052 C23.4460601,20.9078436 23.791426,21.2540521 24.2233107,21.2540521 C24.6544863,21.2540521 24.9998522,20.9078436 24.9998522,20.4749052 L24.9998522,18.5398341 L32.0844636,18.5398341 L32.0844636,20.4749052 C32.0844636,20.9078436 32.4298295,21.2540521 32.8617142,21.2540521 M23.4460601,16.0943365 L23.4460601,16.9829621 L19.1704723,16.9829621 C18.7385876,16.9829621 18.3932217,17.3291706 18.3932217,17.7613981 L18.3932217,31.4227725 C18.3932217,33.6329621 20.1824583,35.4258531 22.3872688,35.4258531 L34.697047,35.4258531 C36.9018575,35.4258531 38.690385,33.6329621 38.690385,31.4227725 L38.690385,17.7613981 C38.690385,17.3291706 38.3457282,16.9829621 37.9138435,16.9829621 L33.6375466,16.9829621 L33.6375466,16.0943365 C33.6375466,13.2791706 31.3547273,10.9822512 28.5386121,10.9822512 C25.7295885,10.9900711 23.4460601,13.2791706 23.4460601,16.0943365"/>
  </g>
</svg>
