<svg xmlns="http://www.w3.org/2000/svg" width="41" height="39" viewBox="0 0 41 39">
  <g fill="none" fill-rule="evenodd">
    <path fill="#3E92CB" d="M38.3050816,31.1204186 L39.1482851,31.1204186 L39.1482851,29.4207148 L38.3050816,29.4207148 L38.3050816,31.1204186 Z M36.615614,33.2444708 C36.615614,33.4793641 36.4273852,33.6695893 36.1947774,33.6695893 C35.9614044,33.6695893 35.7724105,33.4793641 35.7724105,33.2444708 L35.7724105,27.2958926 C35.7724105,27.0625395 35.9614044,26.8715442 36.1947774,26.8715442 C36.4281504,26.8715442 36.615614,27.0625395 36.615614,27.2958926 L36.615614,33.2444708 Z M34.0829429,27.2958926 L34.0829429,33.2444708 L34.0829429,36.6438784 C34.0829429,36.8780016 33.8947141,37.0682267 33.6628714,37.0682267 C33.4287333,37.0682267 33.2397394,36.8780016 33.2397394,36.6438784 L33.2397394,23.8972551 C33.2397394,23.6639021 33.4287333,23.4729068 33.6628714,23.4729068 C33.8947141,23.4729068 34.0829429,23.6639021 34.0829429,23.8972551 L34.0829429,27.2958926 Z M31.5502718,31.1204186 L9.60173073,31.1204186 L9.60173073,29.4207148 L12.9783705,29.4207148 C12.9783705,29.8905016 13.3563583,30.2709518 13.8223391,30.2709518 C14.2890852,30.2709518 14.6670729,29.8905016 14.6670729,29.4207148 L16.3550103,29.4207148 C16.3550103,29.8905016 16.7337632,30.2709518 17.1997441,30.2709518 C17.6657249,30.2709518 18.0437127,29.8905016 18.0437127,29.4207148 L19.7324152,29.4207148 C19.7324152,29.8905016 20.1096378,30.2709518 20.5763838,30.2709518 C21.0423647,30.2709518 21.4203525,29.8905016 21.4203525,29.4207148 L23.1090549,29.4207148 C23.1090549,29.8905016 23.4870427,30.2709518 23.9522584,30.2709518 C24.4197696,30.2709518 24.7977574,29.8905016 24.7977574,29.4207148 L26.4849295,29.4207148 C26.4849295,29.8905016 26.8636825,30.2709518 27.3304285,30.2709518 C27.7956442,30.2709518 28.1743972,29.8905016 28.1743972,29.4207148 L31.5502718,29.4207148 L31.5502718,31.1204186 Z M7.91302827,36.6438784 C7.91302827,36.8780016 7.72403438,37.0682267 7.49066137,37.0682267 C7.2580535,37.0682267 7.06905962,36.8780016 7.06905962,36.6438784 L7.06905962,33.2444708 L7.06905962,27.2958926 L7.06905962,23.8972551 C7.06905962,23.6639021 7.25881866,23.4729068 7.49066137,23.4729068 C7.72403438,23.4729068 7.91302827,23.6639021 7.91302827,23.8972551 L7.91302827,36.6438784 Z M5.38035716,33.2444708 C5.38035716,33.4793641 5.19136327,33.6695893 4.95799026,33.6695893 C4.72538239,33.6695893 4.53638851,33.4793641 4.53638851,33.2444708 L4.53638851,27.2958926 C4.53638851,27.0625395 4.72538239,26.8715442 4.95799026,26.8715442 C5.19136327,26.8715442 5.38035716,27.0625395 5.38035716,27.2958926 L5.38035716,33.2444708 Z M2.0037174,31.1204186 L2.84768605,31.1204186 L2.84768605,29.4207148 L2.0037174,29.4207148 L2.0037174,31.1204186 Z M39.993784,27.7217812 L38.3050816,27.7217812 L38.3050816,27.2958926 C38.3050816,26.1252765 37.3570515,25.1726106 36.1947774,25.1726106 C36.0493975,25.1726106 35.9078433,25.1864731 35.7724105,25.2141983 L35.7724105,23.8972551 C35.7724105,22.7258689 34.8251456,21.773203 33.6628714,21.773203 C32.4975367,21.773203 31.5502718,22.7258689 31.5502718,23.8972551 L31.5502718,27.7217812 L9.60173073,27.7217812 L9.60173073,23.8972551 C9.60173073,22.726639 8.65446582,21.773203 7.49066137,21.773203 C6.32685691,21.773203 5.38035716,22.726639 5.38035716,23.8972551 L5.38035716,25.2141983 C5.24339398,25.1864731 5.10260501,25.1726106 4.95799026,25.1726106 C3.7941858,25.1726106 2.84768605,26.1252765 2.84768605,27.2958926 L2.84768605,27.7217812 L1.15898359,27.7217812 C0.693002712,27.7217812 0.315014939,28.1014613 0.315014939,28.571248 L0.315014939,31.9698855 C0.315014939,32.4389021 0.693002712,32.8201224 1.15898359,32.8201224 L2.84768605,32.8201224 L2.84768605,33.2444708 C2.84768605,34.415857 3.7941858,35.369293 4.95799026,35.369293 C5.10260501,35.369293 5.24339398,35.3538902 5.38035716,35.3261651 L5.38035716,36.6438784 C5.38035716,37.8152646 6.32685691,38.7679305 7.49066137,38.7679305 C8.65446582,38.7679305 9.60173073,37.8152646 9.60173073,36.6438784 L9.60173073,32.8193523 L31.5502718,32.8193523 L31.5502718,36.6438784 C31.5502718,37.8152646 32.4975367,38.7679305 33.6621063,38.7679305 C34.8251456,38.7679305 35.7724105,37.8152646 35.7724105,36.6438784 L35.7724105,35.3261651 C35.9078433,35.3538902 36.0493975,35.369293 36.1947774,35.369293 C37.3578167,35.369293 38.3050816,34.415857 38.3050816,33.2444708 L38.3050816,32.8201224 L39.993784,32.8201224 C40.4589998,32.8201224 40.8377527,32.4389021 40.8377527,31.9698855 L40.8377527,28.571248 C40.8377527,28.1014613 40.4589998,27.7217812 39.993784,27.7217812 L39.993784,27.7217812 Z"/>
    <path fill="#2D2F33" d="M33.4015702 3.36056675C32.4321157 2.15991509 30.9186343 1.34510466 28.9032096.940009874 27.7149201.702806082 26.6368133 1.43906201 26.2848409 2.73598144 25.9497019 3.97205964 26.4103267 5.50541272 27.9414067 6.04451224 28.6927913 6.30559044 29.3653647 6.04990324 29.8359365 5.84812599 29.9445889 6.27247433 30.0784914 6.86933452 30.2100985 7.45233215 30.3371146 8.01992694 30.4664262 8.59830371 30.596503 9.12816153 29.5398206 8.71767575 27.9796646 8.31027054 26.6039115 9.38461888 26.3843113 9.55559044 26.1945523 9.71655016 26.0216267 9.86364731 25.4860165 10.3180312 25.2541738 10.512107 24.7369274 10.4635881L23.2785373 11.8590857C23.3573485 11.8852705 23.4346294 11.9122255 23.5165013 11.9360999 25.434751 12.4775099 26.1318094 11.9954009 27.1127412 11.1605667 27.2688333 11.0288724 27.4394634 10.8825454 27.6384044 10.7277468 28.4203953 10.1170241 29.3776072 10.4481852 30.4610701 10.9048795 31.121401 11.1867516 31.7465346 11.4493701 32.2668417 10.9657208 32.7756714 10.4920833 32.545359 9.79279423 32.4696084 9.56252172 32.2936222 9.02881319 32.0617795 7.9937421 31.8574825 7.07881319 31.636352 6.09226106 31.4458278 5.24048381 31.291266 4.80997433 31.1351738 4.37792457 30.8528308 4.17922788 30.6439428 4.08835111 30.1335828 3.8673203 29.6484729 4.07833926 29.2574775 4.24931082 28.9858466 4.36791272 28.6774882 4.5026876 28.4999716 4.43953594 27.6781926 4.15073262 27.8878457 3.2812421 27.9146262 3.18420419 27.9452325 3.07176343 28.1158626 2.5180312 28.5741919 2.60582741 30.1940302 2.93159755 31.3777288 3.54617101 32.0939161 4.43183452 33.0036883 5.56086295 35.6067539 11.6773321 35.5822689 12.5645359 35.4751468 13.0551165 33.9999233 13.8837895 31.9577181 15.0305312L31.4221079 15.3324269C31.0119835 15.5626994 30.4518883 15.598126 29.8581261 15.6350928 28.7486478 15.7044056 27.2290451 15.7975928 26.548055 17.5304127 25.3368108 20.6132919 24.4989634 24.9337895 24.4645313 25.115543 24.3757731 25.5760881 24.6749496 26.0220004 25.1317486 26.1113369 25.1845445 26.1213487 25.2388707 26.1267397 25.2916665 26.1267397 25.6887832 26.1267397 26.0415208 25.8448677 26.1195669 25.4390028 26.1279836 25.3958748 26.9635355 21.0892397 28.1158626 18.1565383 28.3790768 17.4872848 28.8075649 17.401799 29.9606572 17.3309459 30.6806703 17.2862776 31.4986236 17.2354483 32.2446521 16.8157208L32.778732 16.5153653C35.7360655 14.8533985 36.9595522 14.1664317 37.2288877 12.928043 37.556375 11.4185644 34.2501298 4.41181082 33.4015702 3.36056675M12.2442784 4.44015205C12.0682922 4.50253357 11.7584035 4.36852883 11.4852423 4.24915679 11.0934817 4.07818523 10.6099022 3.86331556 10.098777 4.08819708 9.88988902 4.17907385 9.60831108 4.37777054 9.45298412 4.8098203 9.29612685 5.24187006 9.10560265 6.09441746 8.88523731 7.0848203 8.68094027 7.99666864 8.44986273 9.03019945 8.27464167 9.56236769 8.19812593 9.79187006 7.96781354 10.4919293 8.47664324 10.9663369 8.99618513 11.4507563 9.62131876 11.1873677 10.2824148 10.9054957 11.3658777 10.4488013 12.3230897 10.1184103 13.1050806 10.7275928 13.3040215 10.8823914 13.4738864 11.0287184 13.6307437 11.1611829 14.6132059 11.996017 15.3110294 12.478126 17.2269837 11.9359459 17.3080904 11.9128416 17.3853713 11.8851165 17.4641825 11.8597018L16.0065576 10.4649743C15.4877808 10.5142634 15.2559381 10.3186473 14.7195627 9.86349329 14.5466372 9.71716627 14.3568781 9.55620656 14.1380431 9.38369471 12.7599946 8.31088665 11.2028992 8.71752172 10.1454516 9.12723736 10.2709374 8.6166331 10.4025445 8.03132504 10.5310909 7.45679897 10.6611677 6.87149092 10.7958354 6.27309044 10.9052529 5.84720182 11.3758248 6.04897907 12.0506936 6.30389613 12.8005479 6.04358807 14.3316279 5.50525869 14.7922527 3.97190561 14.4571137 2.73505727 14.1066716 1.43967812 13.0316254.704192338 11.8379798.939085703 9.82179001 1.34418049 8.3083086 2.15976106 7.33885413 3.36118286 6.49105969 4.41165679 3.18404926 11.4191805 3.51306695 12.927889 3.78240237 14.1639672 5.0043588 14.8517042 7.96016197 16.5129009L8.49730249 16.8147966C9.24333099 17.2345241 10.059754 17.2853535 10.7812974 17.3300217 11.9351548 17.4016449 12.3628778 17.4855904 12.626092 18.154844 13.7768888 21.0883156 14.6132059 25.3957208 14.6208574 25.4388487 14.6989035 25.8447137 15.0516411 26.1265857 15.4487578 26.1265857 15.5015536 26.1265857 15.5558798 26.1211947 15.610206 26.1111829 16.0677701 26.0210762 16.3669467 25.5767042 16.2781884 25.115389 16.2437564 24.9328653 15.4051438 20.6123677 14.1954299 17.5302587 13.5144398 15.7974388 11.994072 15.7034814 10.8845937 15.6349388 10.2908315 15.5972018 9.72997111 15.5625454 9.32061189 15.3315028L8.78347137 15.029607C6.74203133 13.8836355 5.26833811 13.0541923 5.16886764 12.6129009 5.13596587 11.6771781 7.73903147 5.56070893 8.64956882 4.43245063 9.36422586 3.54678712 10.5486896 2.93298381 12.169293 2.60567338 12.6061979 2.5147966 12.7974873 3.0716094 12.8280936 3.18405016 12.8548741 3.28262836 13.0637621 4.15134874 12.2442784 4.44015205"/>
    <path fill="#2D2F33" d="M20.3703269,10.0560288 C19.2447803,10.0560288 16.9944523,7.70709518 16.9944523,5.59536532 C16.9944523,3.48440561 18.5056383,1.77314968 20.3703269,1.77314968 C22.2357807,1.77314968 23.7469667,3.48440561 23.7469667,5.59536532 C23.7469667,7.70709518 21.4958735,10.0560288 20.3703269,10.0560288 M25.434904,5.59536532 C25.434904,2.55099329 23.1631516,0.0742160348 20.3703269,0.0742160348 C17.5782674,0.0742160348 15.306515,2.55099329 15.306515,5.59536532 C15.306515,7.15952409 16.1611959,8.86307859 17.3081669,10.0883748 L18.7895117,11.2774743 C19.3151748,11.5678179 19.8530805,11.7549625 20.3718572,11.7549625 C20.8898688,11.7549625 21.4270093,11.5685881 21.9519073,11.2790146 L21.9511422,11.2782445 L23.4332521,10.0883748 C24.5802231,8.86307859 25.434904,7.15952409 25.434904,5.59536532"/>
  </g>
</svg>
