<svg xmlns="http://www.w3.org/2000/svg" width="132" height="25" viewBox="0 0 132 25">
  <g fill="none" fill-rule="evenodd" transform="translate(0 1)">
    <polygon fill="#6C6F73" points=".186 14.557 4.944 14.557 4.944 10.156 .186 10.156"/>
    <polygon fill="#6C6F73" points="13.928 14.557 18.686 14.557 18.686 10.156 13.928 10.156"/>
    <polygon fill="#6C6F73" points="28.318 14.557 33.075 14.557 33.075 10.156 28.318 10.156"/>
    <polygon fill="#6C6F73" points="42.412 14.557 47.17 14.557 47.17 10.156 42.412 10.156"/>
    <path fill="#6C6F73" d="M71.1347042,1.52048 C70.6534072,1.55105778 70.2681631,1.63036889 69.9774226,1.75745778 C69.6856493,1.88502444 69.4186637,2.09668 69.1744004,2.39242444 C68.9895245,2.60694667 68.8485438,2.84440222 68.7571387,3.10479111 C68.6631515,3.36470222 68.6011819,3.69341333 68.5665823,4.09188 C68.5082276,4.62269111 68.4777592,5.24953556 68.4777592,5.97432444 L68.4777592,17.25418 C68.4777592,18.3048133 68.5283677,19.08598 68.6295847,19.5957689 C68.731318,20.1060356 68.912579,20.5140578 69.1744004,20.8203133 C69.6376229,21.3611578 70.2903689,21.65738 71.1347042,21.7080244 L71.1347042,22.0405578 L63.0662673,22.0405578 L63.0662673,21.7080244 C63.5542776,21.6774467 63.9483007,21.59288 64.2478203,21.4557578 C64.5478562,21.3181578 64.8158746,21.1060244 65.0508425,20.8203133 C65.3126639,20.4935133 65.4918592,20.0773689 65.5899777,19.5733133 C65.6855141,19.0678244 65.7340569,18.2952578 65.7340569,17.25418 L65.7340569,3.57110222 L59.2215725,22.0405578 L58.9556198,22.0405578 L52.4818663,3.84678 L52.4818663,17.25418 C52.4818663,18.3048133 52.5314419,19.0807244 52.6269784,19.58048 C52.724064,20.0807133 52.9032593,20.4935133 53.1650807,20.8203133 C53.4010815,21.1165356 53.6685834,21.33058 53.9670701,21.4629244 C54.2671061,21.5962244 54.6580307,21.6774467 55.137262,21.7080244 L55.137262,22.0405578 L49.3121233,22.0405578 L49.3121233,21.7080244 C49.7934202,21.6774467 50.1827956,21.5962244 50.4828315,21.4629244 C50.7823511,21.33058 51.0493366,21.1165356 51.2858538,20.8203133 C51.5461259,20.4935133 51.7263541,20.0773689 51.8229233,19.5733133 C51.9205254,19.0678244 51.9680354,18.2952578 51.9680354,17.25418 L51.9680354,5.97432444 C51.9680354,5.50514667 51.9566743,5.06129111 51.93137,4.64275778 C51.8885078,3.88786889 51.7919385,3.33699111 51.6401131,2.98964667 C51.4294166,2.51043556 51.1397089,2.15592444 50.7740885,1.92611333 C50.4074352,1.69582444 49.919425,1.56156889 49.3121233,1.52048 L49.3121233,1.18699111 L54.7974622,1.18699111 L60.2683416,17.5298578 L65.9385565,1.18699111 L71.1347042,1.18699111 L71.1347042,1.52048 Z"/>
    <path stroke="#6C6F73" stroke-width="1.465" d="M71.1347042,1.52048 C70.6534072,1.55105778 70.2681631,1.63036889 69.9774226,1.75745778 C69.6856493,1.88502444 69.4186637,2.09668 69.1744004,2.39242444 C68.9895245,2.60694667 68.8485438,2.84440222 68.7571387,3.10479111 C68.6631515,3.36470222 68.6011819,3.69341333 68.5665823,4.09188 C68.5082276,4.62269111 68.4777592,5.24953556 68.4777592,5.97432444 L68.4777592,17.25418 C68.4777592,18.3048133 68.5283677,19.08598 68.6295847,19.5957689 C68.731318,20.1060356 68.912579,20.5140578 69.1744004,20.8203133 C69.6376229,21.3611578 70.2903689,21.65738 71.1347042,21.7080244 L71.1347042,22.0405578 L63.0662673,22.0405578 L63.0662673,21.7080244 C63.5542776,21.6774467 63.9483007,21.59288 64.2478203,21.4557578 C64.5478562,21.3181578 64.8158746,21.1060244 65.0508425,20.8203133 C65.3126639,20.4935133 65.4918592,20.0773689 65.5899777,19.5733133 C65.6855141,19.0678244 65.7340569,18.2952578 65.7340569,17.25418 L65.7340569,3.57110222 L59.2215725,22.0405578 L58.9556198,22.0405578 L52.4818663,3.84678 L52.4818663,17.25418 C52.4818663,18.3048133 52.5314419,19.0807244 52.6269784,19.58048 C52.724064,20.0807133 52.9032593,20.4935133 53.1650807,20.8203133 C53.4010815,21.1165356 53.6685834,21.33058 53.9670701,21.4629244 C54.2671061,21.5962244 54.6580307,21.6774467 55.137262,21.7080244 L55.137262,22.0405578 L49.3121233,22.0405578 L49.3121233,21.7080244 C49.7934202,21.6774467 50.1827956,21.5962244 50.4828315,21.4629244 C50.7823511,21.33058 51.0493366,21.1165356 51.2858538,20.8203133 C51.5461259,20.4935133 51.7263541,20.0773689 51.8229233,19.5733133 C51.9205254,19.0678244 51.9680354,18.2952578 51.9680354,17.25418 L51.9680354,5.97432444 C51.9680354,5.50514667 51.9566743,5.06129111 51.93137,4.64275778 C51.8885078,3.88786889 51.7919385,3.33699111 51.6401131,2.98964667 C51.4294166,2.51043556 51.1397089,2.15592444 50.7740885,1.92611333 C50.4074352,1.69582444 49.919425,1.56156889 49.3121233,1.52048 L49.3121233,1.18699111 L54.7974622,1.18699111 L60.2683416,17.5298578 L65.9385565,1.18699111 L71.1347042,1.18699111 L71.1347042,1.52048 Z"/>
    <path fill="#6C6F73" d="M74.767773,14.5894222 C74.767773,16.5100889 75.1406232,18.1383556 75.8852907,19.4737444 C76.7244618,20.9639333 77.7500581,21.7087889 78.9625958,21.7087889 C79.477976,21.7087889 79.9788966,21.5439556 80.4663905,21.2119 C80.9523351,20.8817556 81.3726953,20.4178333 81.7259218,19.8210889 C82.0982556,19.2033222 82.3982916,18.4283667 82.6275789,17.4947889 C82.8568663,16.5621667 82.97151,15.6601222 82.97151,14.7881778 C82.97151,13.8827889 82.850153,12.9697556 82.606406,12.0476444 C82.3621427,11.1260111 82.0357696,10.3348111 81.6257377,9.67261111 C80.843372,8.42465556 79.8838766,7.80163333 78.7488008,7.80163333 C77.6694977,7.80163333 76.7378886,8.45857778 75.9565557,9.77151111 C75.1638617,11.0854 74.767773,12.6912111 74.767773,14.5894222 M72.1681499,14.7805333 C72.1681499,12.9907778 72.7398191,11.3945222 73.8841903,9.99128889 C75.2769562,8.2904 76.9408389,7.43995556 78.8768713,7.43995556 C80.8123872,7.43995556 82.4721386,8.2904 83.8550927,9.99128889 C84.9989475,11.4050333 85.5716495,13.0070222 85.5716495,14.7972556 C85.5716495,16.5645556 85.0268338,18.1383556 83.9397844,19.5186556 C82.6053732,21.2200222 80.9172191,22.0704667 78.8768713,22.0704667 C76.8365235,22.0704667 75.1437216,21.2200222 73.7994986,19.5186556 C73.2732737,18.8564556 72.8715044,18.1159 72.5900593,17.2984222 C72.3080978,16.4804667 72.1681499,15.6414889 72.1681499,14.7805333"/>
    <path stroke="#6C6F73" stroke-width="1.626" d="M74.767773,14.5894222 C74.767773,16.5100889 75.1406232,18.1383556 75.8852907,19.4737444 C76.7244618,20.9639333 77.7500581,21.7087889 78.9625958,21.7087889 C79.477976,21.7087889 79.9788966,21.5439556 80.4663905,21.2119 C80.9523351,20.8817556 81.3726953,20.4178333 81.7259218,19.8210889 C82.0982556,19.2033222 82.3982916,18.4283667 82.6275789,17.4947889 C82.8568663,16.5621667 82.97151,15.6601222 82.97151,14.7881778 C82.97151,13.8827889 82.850153,12.9697556 82.606406,12.0476444 C82.3621427,11.1260111 82.0357696,10.3348111 81.6257377,9.67261111 C80.843372,8.42465556 79.8838766,7.80163333 78.7488008,7.80163333 C77.6694977,7.80163333 76.7378886,8.45857778 75.9565557,9.77151111 C75.1638617,11.0854 74.767773,12.6912111 74.767773,14.5894222 Z M72.1681499,14.7805333 C72.1681499,12.9907778 72.7398191,11.3945222 73.8841903,9.99128889 C75.2769562,8.2904 76.9408389,7.43995556 78.8768713,7.43995556 C80.8123872,7.43995556 82.4721386,8.2904 83.8550927,9.99128889 C84.9989475,11.4050333 85.5716495,13.0070222 85.5716495,14.7972556 C85.5716495,16.5645556 85.0268338,18.1383556 83.9397844,19.5186556 C82.6053732,21.2200222 80.9172191,22.0704667 78.8768713,22.0704667 C76.8365235,22.0704667 75.1437216,21.2200222 73.7994986,19.5186556 C73.2732737,18.8564556 72.8715044,18.1159 72.5900593,17.2984222 C72.3080978,16.4804667 72.1681499,15.6414889 72.1681499,14.7805333 Z"/>
    <path fill="#6C6F73" d="M90.887037,15.3023144 C90.887037,16.3701478 90.943326,17.3529367 91.0574533,18.2516367 C91.1715805,19.1503367 91.3177254,19.8029811 91.4979536,20.2129144 C91.7153634,20.7016811 92.0396708,21.0853367 92.4703592,21.3648367 C92.9005313,21.6443367 93.3916401,21.7843256 93.9395543,21.7843256 C95.0942537,21.7843256 96.048585,21.2057367 96.8004823,20.0476033 C97.5534125,18.8909033 97.9298776,17.4179144 97.9298776,15.6315033 C97.9298776,14.6931478 97.8059385,13.80257 97.5606423,12.9592922 C97.3143133,12.1160144 96.9641852,11.3998256 96.5102582,10.8112033 C96.1503183,10.3224367 95.7521639,9.94977 95.3168278,9.69511444 C94.8814916,9.44093667 94.4373764,9.31384778 93.9824165,9.31384778 C93.4334695,9.31384778 92.922737,9.49110333 92.4491863,9.84561444 C91.9756356,10.1996478 91.6255076,10.6616589 91.3982858,11.2302144 C91.0574533,12.0687144 90.887037,13.4256033 90.887037,15.3023144 L90.887037,15.3023144 Z M90.887037,10.7658144 C91.2862242,10.2512478 91.6668206,9.86902556 92.0277933,9.62201444 C92.7595505,9.13611444 93.6348706,8.89340333 94.6527206,8.89340333 C96.0981606,8.89340333 97.3571755,9.37691444 98.4313146,10.3439367 C99.7626273,11.5297811 100.429317,13.2043922 100.429317,15.36777 C100.429317,17.53067 99.7899972,19.2353811 98.5134243,20.4809478 C97.4088168,21.56837 95.9938452,22.1116033 94.2700586,22.1116033 C93.3637538,22.1116033 92.5973968,21.9816478 91.969955,21.72317 L91.1689985,21.3801256 C90.9495229,21.2903033 90.7548352,21.2453922 90.5828697,21.2453922 C90.0974415,21.2453922 89.6683023,21.6663144 89.2970013,22.5086367 L88.7170695,22.5086367 L88.7170695,4.88723667 C88.7170695,3.76541444 88.5471696,2.96179222 88.2084027,2.47637 C87.8686029,1.99047 87.2979666,1.74775889 86.4954607,1.74775889 L86.4954607,1.39707 L90.887037,0.766403333 L90.887037,10.7658144 Z"/>
    <path stroke="#6C6F73" stroke-width="1.545" d="M90.887037,15.3023144 C90.887037,16.3701478 90.943326,17.3529367 91.0574533,18.2516367 C91.1715805,19.1503367 91.3177254,19.8029811 91.4979536,20.2129144 C91.7153634,20.7016811 92.0396708,21.0853367 92.4703592,21.3648367 C92.9005313,21.6443367 93.3916401,21.7843256 93.9395543,21.7843256 C95.0942537,21.7843256 96.048585,21.2057367 96.8004823,20.0476033 C97.5534125,18.8909033 97.9298776,17.4179144 97.9298776,15.6315033 C97.9298776,14.6931478 97.8059385,13.80257 97.5606423,12.9592922 C97.3143133,12.1160144 96.9641852,11.3998256 96.5102582,10.8112033 C96.1503183,10.3224367 95.7521639,9.94977 95.3168278,9.69511444 C94.8814916,9.44093667 94.4373764,9.31384778 93.9824165,9.31384778 C93.4334695,9.31384778 92.922737,9.49110333 92.4491863,9.84561444 C91.9756356,10.1996478 91.6255076,10.6616589 91.3982858,11.2302144 C91.0574533,12.0687144 90.887037,13.4256033 90.887037,15.3023144 Z M90.887037,10.7658144 C91.2862242,10.2512478 91.6668206,9.86902556 92.0277933,9.62201444 C92.7595505,9.13611444 93.6348706,8.89340333 94.6527206,8.89340333 C96.0981606,8.89340333 97.3571755,9.37691444 98.4313146,10.3439367 C99.7626273,11.5297811 100.429317,13.2043922 100.429317,15.36777 C100.429317,17.53067 99.7899972,19.2353811 98.5134243,20.4809478 C97.4088168,21.56837 95.9938452,22.1116033 94.2700586,22.1116033 C93.3637538,22.1116033 92.5973968,21.9816478 91.969955,21.72317 L91.1689985,21.3801256 C90.9495229,21.2903033 90.7548352,21.2453922 90.5828697,21.2453922 C90.0974415,21.2453922 89.6683023,21.6663144 89.2970013,22.5086367 L88.7170695,22.5086367 L88.7170695,4.88723667 C88.7170695,3.76541444 88.5471696,2.96179222 88.2084027,2.47637 C87.8686029,1.99047 87.2979666,1.74775889 86.4954607,1.74775889 L86.4954607,1.39707 L90.887037,0.766403333 L90.887037,10.7658144 Z"/>
    <path fill="#6C6F73" d="M106.196824,3.49857556 C105.821391,3.49857556 105.511544,3.37387556 105.265731,3.12399778 C105.020435,2.87364222 104.897012,2.55926444 104.897012,2.17943111 C104.897012,1.80963111 105.021984,1.49716444 105.272961,1.24250889 C105.522388,0.987853333 105.831203,0.859808889 106.196824,0.859808889 C106.56296,0.859808889 106.870743,0.987853333 107.121719,1.24250889 C107.371147,1.49716444 107.497668,1.80963111 107.497668,2.17943111 C107.497668,2.55926444 107.373729,2.87364222 107.128433,3.12399778 C106.883653,3.37387556 106.572772,3.49857556 106.196824,3.49857556 L106.196824,3.49857556 Z M103.205759,9.43066444 L107.345843,8.89364222 L107.345843,17.5309089 L107.360302,18.6665867 C107.360302,19.3445533 107.396967,19.8400089 107.474946,20.1539089 C107.550858,20.4678089 107.699069,20.7291533 107.918545,20.93842 C108.185014,21.2074089 108.677155,21.41142 109.391871,21.5514089 L109.391871,21.8547978 L103.057549,21.8547978 L103.057549,21.5514089 C103.628185,21.4711422 104.038734,21.3593422 104.287645,21.2150533 C104.536039,21.0707644 104.736924,20.8242311 104.889266,20.4749756 C104.993581,20.2465978 105.067428,19.9006867 105.110291,19.4372422 C105.152636,18.9737978 105.174842,18.3039533 105.174842,17.4277089 L105.174842,13.7383089 C105.174842,12.7120422 105.151087,11.9925089 105.103577,11.5792311 C105.055034,11.1659533 104.94917,10.8295978 104.787016,10.57112 C104.624346,10.2920978 104.427076,10.0904756 104.197789,9.96577556 C103.967985,9.84155333 103.636448,9.76415333 103.205759,9.73405333 L103.205759,9.43066444 Z"/>
    <path stroke="#6C6F73" stroke-width="1.545" d="M106.196824,3.49857556 C105.821391,3.49857556 105.511544,3.37387556 105.265731,3.12399778 C105.020435,2.87364222 104.897012,2.55926444 104.897012,2.17943111 C104.897012,1.80963111 105.021984,1.49716444 105.272961,1.24250889 C105.522388,0.987853333 105.831203,0.859808889 106.196824,0.859808889 C106.56296,0.859808889 106.870743,0.987853333 107.121719,1.24250889 C107.371147,1.49716444 107.497668,1.80963111 107.497668,2.17943111 C107.497668,2.55926444 107.373729,2.87364222 107.128433,3.12399778 C106.883653,3.37387556 106.572772,3.49857556 106.196824,3.49857556 Z M103.205759,9.43066444 L107.345843,8.89364222 L107.345843,17.5309089 L107.360302,18.6665867 C107.360302,19.3445533 107.396967,19.8400089 107.474946,20.1539089 C107.550858,20.4678089 107.699069,20.7291533 107.918545,20.93842 C108.185014,21.2074089 108.677155,21.41142 109.391871,21.5514089 L109.391871,21.8547978 L103.057549,21.8547978 L103.057549,21.5514089 C103.628185,21.4711422 104.038734,21.3593422 104.287645,21.2150533 C104.536039,21.0707644 104.736924,20.8242311 104.889266,20.4749756 C104.993581,20.2465978 105.067428,19.9006867 105.110291,19.4372422 C105.152636,18.9737978 105.174842,18.3039533 105.174842,17.4277089 L105.174842,13.7383089 C105.174842,12.7120422 105.151087,11.9925089 105.103577,11.5792311 C105.055034,11.1659533 104.94917,10.8295978 104.787016,10.57112 C104.624346,10.2920978 104.427076,10.0904756 104.197789,9.96577556 C103.967985,9.84155333 103.636448,9.76415333 103.205759,9.73405333 L103.205759,9.43066444 Z"/>
    <path fill="#6C6F73" d="M111.245484,1.30376 L115.38505,0.76626 L115.38505,17.5142822 L115.39951,18.6547378 C115.39951,19.3346156 115.437208,19.83246 115.513637,20.1477933 C115.590066,20.4631267 115.73776,20.7254267 115.95672,20.9351711 C116.223705,21.2060711 116.71533,21.41056 117.429529,21.5510267 L117.429529,21.8548933 L111.094175,21.8548933 L111.094175,21.5510267 C111.666877,21.4712378 112.076392,21.3584822 112.326336,21.2132378 C112.574214,21.0684711 112.775099,20.8209822 112.927957,20.4707711 C113.032789,20.2414378 113.107153,19.8936156 113.150015,19.4287378 C113.192361,18.96386 113.214567,18.2906711 113.214567,17.4110822 L113.214567,5.63577111 C113.214567,4.61571556 113.190812,3.89618222 113.142785,3.47621556 C113.094242,3.05624889 112.988378,2.71607111 112.826224,2.45520444 C112.663554,2.17570444 112.4668,1.97551556 112.237513,1.85607111 C112.008226,1.73567111 111.676172,1.66018222 111.245484,1.63056 L111.245484,1.30376 Z"/>
    <path stroke="#6C6F73" stroke-width="1.545" d="M111.245484,1.30376 L115.38505,0.76626 L115.38505,17.5142822 L115.39951,18.6547378 C115.39951,19.3346156 115.437208,19.83246 115.513637,20.1477933 C115.590066,20.4631267 115.73776,20.7254267 115.95672,20.9351711 C116.223705,21.2060711 116.71533,21.41056 117.429529,21.5510267 L117.429529,21.8548933 L111.094175,21.8548933 L111.094175,21.5510267 C111.666877,21.4712378 112.076392,21.3584822 112.326336,21.2132378 C112.574214,21.0684711 112.775099,20.8209822 112.927957,20.4707711 C113.032789,20.2414378 113.107153,19.8936156 113.150015,19.4287378 C113.192361,18.96386 113.214567,18.2906711 113.214567,17.4110822 L113.214567,5.63577111 C113.214567,4.61571556 113.190812,3.89618222 113.142785,3.47621556 C113.094242,3.05624889 112.988378,2.71607111 112.826224,2.45520444 C112.663554,2.17570444 112.4668,1.97551556 112.237513,1.85607111 C112.008226,1.73567111 111.676172,1.66018222 111.245484,1.63056 L111.245484,1.30376 Z"/>
    <path fill="#6C6F73" d="M127.994617,12.4930767 C127.927483,11.4357544 127.752935,10.6211433 127.468392,10.0492433 C127.211735,9.53133222 126.869869,9.12139889 126.443828,8.82039889 C126.015722,8.51892111 125.560762,8.36794333 125.0774,8.36794333 C124.260951,8.36794333 123.547268,8.75876556 122.934802,9.54184333 C122.322853,10.3249211 121.959814,11.3091433 121.846203,12.4930767 L127.994617,12.4930767 Z M121.760479,13.1146656 C121.726396,13.6373544 121.709354,14.0152767 121.709354,14.2498656 C121.709354,15.17771 121.830711,16.0830989 122.071359,16.9679433 C122.313557,17.8527878 122.643545,18.5880878 123.060807,19.1738433 C123.487364,19.7710656 124.016687,20.2402433 124.646711,20.5813767 C125.277251,20.9220322 125.939293,21.0930767 126.63077,21.0930767 C127.142535,21.0930767 127.627963,20.9960878 128.08912,20.8016322 C128.547695,20.6081322 128.930357,20.3391433 129.233491,19.9946656 C129.575357,19.6172211 129.868679,19.0147433 130.114492,18.1853211 L130.417626,18.2975989 C130.170781,19.5498544 129.640425,20.4953767 128.823976,21.1322544 C128.009593,21.7686544 126.925125,22.0873322 125.57264,22.0873322 C124.400382,22.0873322 123.393893,21.8799767 122.556271,21.4652656 C121.7171,21.0519878 121.007032,20.4146322 120.426068,19.5536767 C119.614783,18.3544544 119.210431,16.8776433 119.210431,15.1251544 C119.210431,12.73531 119.978854,10.8609878 121.51415,9.50171 C122.630118,8.51366556 123.903593,8.01964333 125.33509,8.01964333 C126.096282,8.01964333 126.802219,8.17062111 127.450834,8.47257667 C128.098932,8.77357667 128.647363,9.21026556 129.096642,9.78216556 C129.79225,10.67131 130.140829,11.7816656 130.140829,13.1146656 L121.760479,13.1146656 Z"/>
    <path stroke="#6C6F73" stroke-width="1.594" d="M127.994617,12.4930767 C127.927483,11.4357544 127.752935,10.6211433 127.468392,10.0492433 C127.211735,9.53133222 126.869869,9.12139889 126.443828,8.82039889 C126.015722,8.51892111 125.560762,8.36794333 125.0774,8.36794333 C124.260951,8.36794333 123.547268,8.75876556 122.934802,9.54184333 C122.322853,10.3249211 121.959814,11.3091433 121.846203,12.4930767 L127.994617,12.4930767 Z M121.760479,13.1146656 C121.726396,13.6373544 121.709354,14.0152767 121.709354,14.2498656 C121.709354,15.17771 121.830711,16.0830989 122.071359,16.9679433 C122.313557,17.8527878 122.643545,18.5880878 123.060807,19.1738433 C123.487364,19.7710656 124.016687,20.2402433 124.646711,20.5813767 C125.277251,20.9220322 125.939293,21.0930767 126.63077,21.0930767 C127.142535,21.0930767 127.627963,20.9960878 128.08912,20.8016322 C128.547695,20.6081322 128.930357,20.3391433 129.233491,19.9946656 C129.575357,19.6172211 129.868679,19.0147433 130.114492,18.1853211 L130.417626,18.2975989 C130.170781,19.5498544 129.640425,20.4953767 128.823976,21.1322544 C128.009593,21.7686544 126.925125,22.0873322 125.57264,22.0873322 C124.400382,22.0873322 123.393893,21.8799767 122.556271,21.4652656 C121.7171,21.0519878 121.007032,20.4146322 120.426068,19.5536767 C119.614783,18.3544544 119.210431,16.8776433 119.210431,15.1251544 C119.210431,12.73531 119.978854,10.8609878 121.51415,9.50171 C122.630118,8.51366556 123.903593,8.01964333 125.33509,8.01964333 C126.096282,8.01964333 126.802219,8.17062111 127.450834,8.47257667 C128.098932,8.77357667 128.647363,9.21026556 129.096642,9.78216556 C129.79225,10.67131 130.140829,11.7816656 130.140829,13.1146656 L121.760479,13.1146656 Z"/>
    <path fill="#ED2E70" d="M11.5535533,20.3241411 L15.1741249,20.3241411 L15.1741249,22.00353 L4.29072076,22.00353 L4.29072076,20.3241411 L7.90664465,20.3241411 L7.90664465,1.23930778 C7.90664465,1.23930778 1.86048115,1.22497444 1.86048115,8.52924111 L0.650009054,8.52924111 L0.650009054,0.152841111 L18.8339439,0.152841111 L18.8339439,8.52924111 L17.5997168,8.52924111 C17.5997168,8.52924111 17.3089763,1.23261889 11.5535533,1.23261889 L11.5535533,20.3241411 Z"/>
  </g>
</svg>
