<svg xmlns="http://www.w3.org/2000/svg" viewBox="0 0 30 30"><defs><style>.cls-1{fill:#002649;}.cls-2{fill:#fff;}</style></defs><title>Info</title><g id="Layer_2" data-name="Layer 2"><g id="Layer_2-2" data-name="Layer 2"><circle class="cls-1" cx="15" cy="15" r="15"/><path class="cls-2" d="M14.51,8.94a2.46,2.46,0,0,0,2.42-2.42,2.51,2.51,0,0,0-.72-1.8A2.45,2.45,0,0,0,14.51,4a2.3,2.3,0,0,0-1.71.72,2.46,2.46,0,0,0-.72,1.71,2.3,2.3,0,0,0,.72,1.7A2.09,2.09,0,0,0,14.51,8.94Z"/><path class="cls-2" d="M19.72,20.71H18.1s-.81,0-.81-.72c-.09-1-.18-1.8-.18-2L17,15.68V10.2a23.59,23.59,0,0,1-6.2,2.06L10.46,14a3.69,3.69,0,0,0,1,.09,2.49,2.49,0,0,0,1.17-.27l.09,3.41v2.88a.55.55,0,0,1-.63.63h-1.8V24.3h9.35V20.71Z"/></g></g></svg>
