<svg xmlns="http://www.w3.org/2000/svg" width="45" height="37" viewBox="0 0 45 37">
  <path fill-rule="evenodd" d="M45.0019174,5.37420198 C43.3485103,6.12268287 41.565755,6.62072148 39.7042661,6.84270441 C41.6107457,5.68725483 43.0701306,3.85447273 43.764674,1.67448658 C41.9819187,2.74171218 40.0023293,3.52434428 37.9046393,3.94269672 C36.2174892,2.12699023 33.8189241,1 31.1644746,1 C26.0664693,1 21.9385753,5.18067841 21.9385753,10.3375125 C21.9385753,11.0660718 22.017309,11.7775556 22.1747764,12.4634259 C14.5038672,12.0706869 7.70184028,8.35389585 3.14934688,2.69902315 C2.35919825,4.07645566 1.9008558,5.68725483 1.9008558,7.39481578 C1.9008558,10.6334897 3.52614374,13.4965003 6.0034425,15.1670641 C4.49063123,15.1215291 3.0678013,14.6946389 1.81931021,14.0030767 L1.81931021,14.11976 C1.81931021,18.6476425 4.99958818,22.4270441 9.22589922,23.2808246 C8.45262208,23.4942697 7.63435428,23.610953 6.79077922,23.610953 C6.19465284,23.610953 5.62102181,23.5483424 5.05020268,23.4430428 C6.22839585,27.1512961 9.63643908,29.8549342 13.6715398,29.9346204 C10.5081333,32.4418891 6.53489478,33.9360049 2.20454282,33.9360049 C1.45657293,33.9360049 0.728286467,33.89047 1.63424829e-13,33.802246 C4.09415095,36.4603492 8.94470753,38 14.1551895,38 C31.1307316,38 40.4213049,23.7617876 40.4213049,11.4161218 C40.4213049,11.0063072 40.4128691,10.6078763 40.3959976,10.2065995 C42.1984363,8.90031536 43.7618621,7.25251904 44.9991055,5.37704792 L45.0019174,5.37420198 Z" transform="translate(0 -1)"/>
</svg>
