<?xml version="1.0" encoding="UTF-8"?>
<svg width="30px" height="24px" viewBox="0 0 30 24" version="1.1" xmlns="http://www.w3.org/2000/svg" xmlns:xlink="http://www.w3.org/1999/xlink">
    <!-- Generator: Sketch 42 (36781) - http://www.bohemiancoding.com/sketch -->
    <title>icn-webinars</title>
    <desc>Created with Sketch.</desc>
    <defs></defs>
    <g id="Page-1" stroke="none" stroke-width="1" fill="none" fill-rule="evenodd">
        <g id="Artboard" transform="translate(-403.000000, -106.000000)" fill="#42A2DB">
            <g id="icn-webinars" transform="translate(398.000000, 98.000000)">
                <g id="Group-2" transform="translate(5.000000, 8.000000)">
                    <path d="M13.50558,14.6256 L17.56158,12.0414 L13.50558,9.462 L13.50558,14.6256 Z M18.75858,11.6238 C18.90258,11.7132 18.99078,11.8722 18.99078,12.0414 C18.99078,12.213 18.90258,12.3732 18.75858,12.4632 L13.27398,15.9552 C13.19358,16.0062 13.09818,16.0332 13.00638,16.0332 C12.92298,16.0332 12.84078,16.011 12.76518,15.9708 C12.60678,15.885 12.50718,15.7152 12.50718,15.534 L12.50718,8.5536 C12.50718,8.3712 12.60678,8.2026 12.76518,8.115 C12.92598,8.0274 13.12098,8.0358 13.27398,8.133 L18.75858,11.6238 Z" id="Fill-1"></path>
                    <path d="M24.4728,22.5132 L28.4634,22.5132 L28.4634,18.0258 L24.4728,18.0258 L24.4728,22.5132 Z M1.5396,22.5132 L5.5272,22.5132 L5.5272,18.0258 L1.5396,18.0258 L1.5396,22.5132 Z M1.5396,6.0612 L5.5272,6.0612 L5.5272,1.5744 L1.5396,1.5744 L1.5396,6.0612 Z M24.4728,6.0606 L28.4634,6.0606 L28.4634,1.5738 L24.4728,1.5738 L24.4728,6.0606 Z M24.4722,17.028 L28.4628,17.028 L28.4628,12.5412 L24.4722,12.5412 L24.4722,17.028 Z M24.4728,11.5458 L28.4634,11.5458 L28.4634,7.0566 L24.4728,7.0566 L24.4728,11.5458 Z M6.5256,17.5266 L6.5256,1.5744 L23.4774,1.5744 L23.4774,22.5132 L6.5256,22.5132 L6.5256,17.5266 Z M1.5396,17.028 L5.5272,17.028 L5.5272,12.5412 L1.5396,12.5412 L1.5396,17.028 Z M1.5396,11.5458 L5.5272,11.5458 L5.5272,7.0566 L1.5396,7.0566 L1.5396,11.5458 Z M28.9626,0.5754 L1.0404,0.5754 C0.765,0.5754 0.5412,0.7992 0.5412,1.0746 L0.5412,23.0124 C0.5412,23.2872 0.765,23.5116 1.0404,23.5116 L28.9626,23.5116 C29.2374,23.5116 29.4588,23.2872 29.4588,23.0124 L29.4588,1.0746 C29.4588,0.7992 29.2374,0.5754 28.9626,0.5754 L28.9626,0.5754 Z" id="Fill-3"></path>
                </g>
            </g>
        </g>
    </g>
</svg>