<?xml version="1.0" encoding="UTF-8"?>
<svg width="30px" height="22px" viewBox="0 0 30 22" version="1.1" xmlns="http://www.w3.org/2000/svg" xmlns:xlink="http://www.w3.org/1999/xlink">
    <!-- Generator: Sketch 42 (36781) - http://www.bohemiancoding.com/sketch -->
    <title>icn-whitepaper</title>
    <desc>Created with Sketch.</desc>
    <defs>
        <polygon id="path-1" points="29.8169388 21.4051081 29.8169388 0.243908088 0.000244897959 0.243908088 0.000244897959 21.4051081 29.8169388 21.4051081"></polygon>
    </defs>
    <g id="Page-1" stroke="none" stroke-width="1" fill="none" fill-rule="evenodd">
        <g id="Artboard" transform="translate(-481.000000, -107.000000)">
            <g id="icn-whitepaper" transform="translate(475.000000, 98.000000)">
                <g id="Page-1" transform="translate(6.000000, 9.000000)">
                    <g id="Group-3" transform="translate(0.000000, 0.350930)">
                        <mask id="mask-2" fill="white">
                            <use xlink:href="#path-1"></use>
                        </mask>
                        <g id="Clip-2"></g>
                        <path d="M28.7200408,20.3395946 L1.09738776,20.3395946 L1.09738776,3.97278378 L1.86085714,3.97278378 L1.86085714,18.6176486 C1.86085714,18.7680811 1.92820408,18.9143514 2.0457551,19.0142432 C2.16269388,19.1153243 2.31820408,19.1628919 2.47432653,19.1456486 L10.0808571,18.2781351 C11.6610612,18.0973784 13.2437143,18.3786216 14.6561633,19.0891622 C14.8147347,19.1688378 15.0033061,19.1688378 15.1612653,19.0891622 C16.5737143,18.3786216 18.1563673,18.0973784 19.7365714,18.2781351 L27.343102,19.1456486 C27.3639184,19.148027 27.3853469,19.1492162 27.4067755,19.1492162 C27.5402449,19.1492162 27.6706531,19.1022432 27.7710612,19.0142432 C27.8892245,18.9143514 27.9559592,18.7680811 27.9559592,18.6176486 L27.9559592,3.97278378 L28.7200408,3.97278378 L28.7200408,20.3395946 Z M10.0808571,1.36191892 C11.5514694,1.19424324 13.0239184,1.42613514 14.3598367,2.03262162 L14.3598367,17.7875946 C13.2939184,17.3731622 12.1612653,17.1591081 11.0139184,17.1591081 C10.6606531,17.1591081 10.3067755,17.1805135 9.95289796,17.2209459 L2.95861224,18.0182973 L2.95861224,2.17472973 L10.0808571,1.36191892 Z M19.7365714,1.36191892 L26.8588163,2.17472973 L26.8588163,18.0182973 L19.8645306,17.2209459 C18.3584082,17.0485135 16.8510612,17.2453243 15.4575918,17.7875946 L15.4575918,2.03262162 C16.7941224,1.42613514 18.2665714,1.19424324 19.7365714,1.36191892 L19.7365714,1.36191892 Z M29.2686122,2.90786486 L27.9559592,2.90786486 L27.9559592,1.70024324 C27.9559592,1.4297027 27.7471837,1.20256757 27.4716735,1.17224324 L19.8645306,0.30472973 C18.1594286,0.109702703 16.4518776,0.385594595 14.9077959,1.10505405 C13.3649388,0.385594595 11.6586122,0.109702703 9.95289796,0.30472973 L2.34636735,1.17224324 C2.0702449,1.20256757 1.86085714,1.4297027 1.86085714,1.70024324 L1.86085714,2.90786486 L0.548816327,2.90786486 C0.246367347,2.90786486 0.000244897959,3.1457027 0.000244897959,3.44002703 L0.000244897959,20.8723514 C0.000244897959,21.1672703 0.246367347,21.4051081 0.548816327,21.4051081 L29.2686122,21.4051081 C29.5722857,21.4051081 29.8171837,21.1672703 29.8171837,20.8723514 L29.8171837,3.44002703 C29.8171837,3.1457027 29.5716735,2.90786486 29.2686122,2.90786486 L29.2686122,2.90786486 Z" id="Fill-1" fill="#42A2DB" mask="url(#mask-2)"></path>
                    </g>
                    <path d="M16.720898,4.7146 C17.7029388,4.45476216 18.7162041,4.38162703 19.7264082,4.49757297 L25.4374286,5.14805946 C25.4588571,5.15103243 25.4821224,5.15162703 25.5029388,5.15162703 C25.7772245,5.15162703 26.0141633,4.95243784 26.046,4.6813027 C26.0821224,4.38876216 25.8666122,4.12476216 25.5653878,4.08968108 L19.8543673,3.4386 C18.7027347,3.30778919 17.551102,3.39043784 16.4325306,3.68654595 C16.141102,3.76324865 15.968449,4.05638378 16.0468163,4.34000541 C16.1264082,4.62422162 16.4276327,4.7913027 16.720898,4.7146" id="Fill-4" fill="#42A2DB"></path>
                    <path d="M4.29453061,5.15180541 C4.31534694,5.15180541 4.33677551,5.15121081 4.35881633,5.14823784 L10.0698367,4.49715676 C11.0794286,4.38299459 12.103102,4.45791351 13.0759592,4.71537297 C13.368,4.79207568 13.6698367,4.62499459 13.7494286,4.34077838 C13.8290204,4.05715676 13.6563673,3.76402162 13.3637143,3.68672432 C12.2567755,3.39418378 11.092898,3.30856216 9.94187755,3.43877838 L4.23085714,4.08985946 C3.9302449,4.12434595 3.71534694,4.38894054 3.7502449,4.68148108 C3.78330612,4.95261622 4.0202449,5.15180541 4.29453061,5.15180541" id="Fill-6" fill="#42A2DB"></path>
                    <path d="M16.720898,7.15743243 C17.7029388,6.89818919 18.7155918,6.82505405 19.7264082,6.941 L25.4374286,7.59148649 C25.4588571,7.59386486 25.4821224,7.59505405 25.5029388,7.59505405 C25.7772245,7.59505405 26.0141633,7.39586486 26.046,7.12472973 C26.0821224,6.83278378 25.8666122,6.56818919 25.5653878,6.5337027 L19.8543673,5.88202703 C18.7027347,5.75121622 17.551102,5.83386486 16.4325306,6.12937838 C16.141102,6.20667568 15.968449,6.49981081 16.0468163,6.78343243 C16.1264082,7.06764865 16.4276327,7.23472973 16.720898,7.15743243" id="Fill-8" fill="#42A2DB"></path>
                    <path d="M4.29453061,7.59523243 C4.31534694,7.59523243 4.33677551,7.59404324 4.35881633,7.59166486 L10.0698367,6.94058378 C11.0788163,6.82642162 12.103102,6.90074595 13.0759592,7.1588 C13.368,7.2355027 13.6698367,7.06782703 13.7494286,6.78420541 C13.8290204,6.50058378 13.6563673,6.20804324 13.3637143,6.13015135 C12.2567755,5.83761081 11.0922857,5.75198919 9.94187755,5.88220541 L4.23085714,6.53388108 C3.9302449,6.56717838 3.71534694,6.83296216 3.7502449,7.12490811 C3.78330612,7.39604324 4.0202449,7.59523243 4.29453061,7.59523243" id="Fill-10" fill="#42A2DB"></path>
                    <path d="M16.720898,9.6008 C17.7029388,9.34155676 18.7155918,9.26842162 19.7264082,9.38377297 L25.4374286,10.0348541 C25.4588571,10.0372324 25.4821224,10.0384216 25.5029388,10.0384216 C25.7772245,10.0384216 26.0141633,9.83923243 26.046,9.5680973 C26.0821224,9.27615135 25.8666122,9.01155676 25.5653878,8.97707027 L19.8543673,8.32539459 C18.7027347,8.19458378 17.551102,8.27782703 16.4325306,8.57274595 C16.141102,8.65004324 15.968449,8.94317838 16.0468163,9.2268 C16.1264082,9.51042162 16.4276327,9.6780973 16.720898,9.6008" id="Fill-12" fill="#42A2DB"></path>
                    <path d="M4.29453061,10.0386595 C4.31534694,10.0386595 4.33677551,10.0374703 4.35881633,10.0350919 L10.0698367,9.38341622 C11.0788163,9.26984865 12.103102,9.34417297 13.0759592,9.60222703 C13.368,9.67952432 13.6698367,9.51125405 13.7494286,9.22822703 C13.8290204,8.94401081 13.6563673,8.65087568 13.3637143,8.57357838 C12.2567755,8.28044324 11.0922857,8.19541622 9.94187755,8.32563243 L4.23085714,8.97730811 C3.9302449,9.0112 3.71534694,9.27638919 3.7502449,9.56833514 C3.78330612,9.83947027 4.0202449,10.0386595 4.29453061,10.0386595" id="Fill-14" fill="#42A2DB"></path>
                    <path d="M16.720898,12.0439297 C17.7029388,11.7840919 18.7155918,11.7115514 19.7264082,11.8274973 L25.4374286,12.4779838 C25.4588571,12.4803622 25.4821224,12.4821459 25.5029388,12.4821459 C25.7772245,12.4821459 26.0141633,12.2823622 26.046,12.011227 C26.0821224,11.7192811 25.8666122,11.4552811 25.5653878,11.4202 L19.8543673,10.7685243 C18.7027347,10.6377135 17.5517143,10.7209568 16.4325306,11.0158757 C16.141102,11.0925784 15.968449,11.3869027 16.0468163,11.6699297 C16.1264082,11.9541459 16.4276327,12.1218216 16.720898,12.0439297" id="Fill-16" fill="#42A2DB"></path>
                    <path d="M4.29453061,12.4823243 C4.31534694,12.4823243 4.33677551,12.4805405 4.35881633,12.4781622 L10.0698367,11.8270811 C11.0788163,11.7129189 12.103102,11.7872432 13.0759592,12.0452973 C13.368,12.1231892 13.6698367,11.9549189 13.7494286,11.6718919 C13.8290204,11.3864865 13.6563673,11.0945405 13.3637143,11.0172432 C12.2567755,10.7235135 11.0922857,10.6384865 9.94187755,10.7692973 L4.23085714,11.420973 C3.9302449,11.4542703 3.71534694,11.7200541 3.7502449,12.0114054 C3.78330612,12.2825405 4.0202449,12.4823243 4.29453061,12.4823243" id="Fill-18" fill="#42A2DB"></path>
                    <path d="M25.5661224,13.8637459 L19.8557143,13.2126649 C18.7034694,13.0818541 17.5512245,13.1639081 16.4332653,13.4594216 C16.14,13.5361243 15.9679592,13.8292595 16.0469388,14.1140703 C16.1271429,14.3970973 16.4277551,14.5653676 16.7210204,14.4886649 C17.7030612,14.2282324 18.7163265,14.1550973 19.7271429,14.2716378 L25.4381633,14.9215297 C25.4589796,14.9239081 25.4810204,14.9256919 25.502449,14.9256919 C25.7773469,14.9256919 26.0130612,14.7259081 26.0461224,14.454773 C26.0822449,14.1622324 25.8661224,13.898827 25.5661224,13.8637459" id="Fill-20" fill="#42A2DB"></path>
                    <path d="M4.29453061,14.9257514 C4.31534694,14.9257514 4.33677551,14.9239676 4.35881633,14.9215892 L10.0698367,14.2705081 C11.0788163,14.1563459 12.103102,14.2312649 13.0759592,14.4893189 C13.368,14.5660216 13.6698367,14.3983459 13.7494286,14.1147243 C13.8290204,13.8305081 13.6563673,13.537373 13.3637143,13.4600757 C12.2567755,13.1681297 11.0922857,13.0819135 9.94187755,13.2127243 L4.23085714,13.8644 C3.9302449,13.8976973 3.71534694,14.1628865 3.7502449,14.4548324 C3.78330612,14.7259676 4.0202449,14.9257514 4.29453061,14.9257514" id="Fill-22" fill="#42A2DB"></path>
                </g>
            </g>
        </g>
    </g>
</svg>