<svg xmlns="http://www.w3.org/2000/svg" width="44" height="32" viewBox="0 0 44 32">
  <path fill-rule="evenodd" d="M1021.20092,25.3529876 L1021.20092,12.887145 L1032.92315,19.1408566 L1021.20092,25.3529876 Z M1046.95076,10.7305016 C1046.95076,10.7305016 1046.52766,7.67294671 1045.22308,6.33128165 C1043.57133,4.56549519 1041.7216,4.55440705 1040.87538,4.45184175 C1034.80814,4 1025.69507,4 1025.69507,4 L1025.6788,4 C1025.6788,4 1016.56844,4 1010.49849,4.45184175 C1009.64956,4.55717909 1007.80254,4.56549519 1006.15079,6.33128165 C1004.84621,7.67294671 1004.43124,10.7305016 1004.43124,10.7305016 C1004.43124,10.7305016 1004,14.3175152 1004,17.912845 L1004,21.2753237 C1004,24.8623373 1004.43124,28.4576671 1004.43124,28.4576671 C1004.43124,28.4576671 1004.85435,31.515222 1006.15079,32.8596591 C1007.80254,34.6254455 1009.97231,34.5672328 1010.94058,34.7557312 C1014.41494,35.0939195 1025.69778,35.1964848 1025.69778,35.1964848 C1025.69778,35.1964848 1034.81899,35.1798526 1040.88623,34.7363269 C1041.73516,34.6337616 1043.58218,34.6226735 1045.23393,32.856887 C1046.5385,31.515222 1046.96161,28.454895 1046.96161,28.454895 C1046.96161,28.454895 1047.39285,24.8678814 1047.39285,21.2725517 L1047.39285,17.9100729 C1047.38472,14.3230593 1046.95347,10.7277296 1046.95347,10.7277296 L1046.95076,10.7305016 Z" transform="translate(-1004 -4)"/>
</svg>
