<?xml version="1.0" standalone="no"?>
<!DOCTYPE svg PUBLIC "-//W3C//DTD SVG 20010904//EN"
 "http://www.w3.org/TR/2001/REC-SVG-20010904/DTD/svg10.dtd">
<svg version="1.0" xmlns="http://www.w3.org/2000/svg"
 width="16.000000pt" height="16.000000pt" viewBox="0 0 16.000000 16.000000"
 preserveAspectRatio="xMidYMid meet">
<metadata>
Created by potrace 1.11, written by Peter Selinger 2001-2013
</metadata>
<g transform="translate(0.000000,16.000000) scale(0.006250,-0.006250)"
fill="#000000" stroke="none">
<path d="M1168 2496 c-1 -2 -28 -6 -58 -10 -94 -11 -122 -17 -230 -53 -133
-44 -175 -63 -280 -126 -197 -119 -370 -304 -471 -507 -35 -69 -83 -213 -105
-311 -34 -156 -19 -397 35 -566 113 -346 376 -632 709 -770 194 -80 281 -97
502 -98 226 0 304 13 489 82 90 33 106 41 196 94 286 166 490 442 577 779 18
71 22 114 22 260 1 113 -4 193 -12 225 -31 117 -56 195 -64 195 -5 0 -43 -13
-86 -29 -42 -16 -94 -35 -114 -42 -43 -15 -43 -17 -24 -85 34 -114 49 -307 31
-384 -3 -14 -8 -39 -11 -57 -7 -53 -53 -190 -79 -236 -13 -23 -34 -60 -46 -82
-21 -40 -80 -113 -136 -170 -39 -39 -113 -105 -119 -105 -3 0 -31 -17 -62 -38
-61 -41 -144 -82 -165 -82 -7 0 -17 -4 -22 -8 -19 -15 -111 -41 -213 -59 -69
-12 -275 -6 -351 11 -105 22 -240 72 -303 112 -29 18 -69 42 -88 53 -73 41
-234 212 -279 296 -12 22 -26 47 -31 55 -25 38 -61 131 -75 195 -60 267 -25
508 107 725 34 57 147 200 158 200 3 0 21 15 40 33 156 148 421 247 670 252
180 3 439 -72 556 -161 17 -13 34 -24 38 -24 14 0 142 -115 180 -162 21 -25
45 -54 55 -65 9 -10 37 -54 61 -98 24 -44 45 -82 46 -84 2 -2 43 12 91 32 49
19 102 39 118 44 36 12 36 36 -3 103 -136 237 -328 420 -557 530 -101 48 -243
97 -343 116 -66 13 -344 28 -354 20z"/>
<path d="M1169 2175 c-2 -2 -29 -6 -59 -10 -174 -20 -408 -146 -536 -288 -118
-131 -213 -324 -232 -472 -12 -97 -4 -257 17 -337 22 -85 90 -248 103 -248 4
0 8 -5 8 -11 0 -15 87 -127 135 -172 101 -97 217 -169 361 -223 107 -40 318
-59 449 -40 17 2 53 7 80 11 89 13 255 87 351 157 203 145 351 386 379 613 16
130 -2 308 -41 400 -12 30 -17 34 -33 25 -11 -5 -59 -24 -108 -41 -48 -18 -89
-32 -89 -33 -1 -1 7 -34 17 -75 26 -103 21 -259 -11 -356 -13 -38 -28 -71 -32
-73 -4 -2 -8 -10 -8 -19 0 -38 -118 -183 -200 -245 -60 -45 -192 -107 -265
-123 -90 -21 -269 -21 -350 0 -87 22 -235 100 -299 157 -371 330 -280 899 179
1116 99 47 145 56 290 57 182 0 234 -12 355 -80 34 -19 64 -35 66 -35 2 0 12
-8 22 -17 10 -10 31 -29 48 -43 45 -38 118 -131 144 -184 26 -56 20 -56 157 0
l91 37 -16 36 c-35 77 -131 204 -201 266 -19 16 -39 35 -45 40 -36 33 -97 71
-173 109 -116 57 -151 69 -258 91 -33 7 -291 16 -296 10z"/>
<path d="M1135 1876 c-22 -7 -58 -18 -80 -26 -22 -8 -42 -15 -45 -15 -79 -21
-223 -150 -289 -260 -74 -124 -100 -260 -77 -408 10 -67 80 -227 98 -227 5 0
8 -6 8 -13 0 -24 111 -130 185 -178 84 -53 246 -99 352 -99 60 0 229 36 239
51 3 5 13 9 23 9 24 0 132 71 188 123 90 84 164 217 180 323 16 104 5 262 -20
310 l-12 22 -80 -30 c-149 -56 -138 -48 -129 -93 24 -124 0 -229 -76 -323 -56
-69 -106 -104 -188 -131 -197 -65 -402 20 -494 206 -30 60 -33 75 -32 157 0
80 3 98 29 151 43 88 106 152 195 194 70 33 81 36 175 36 96 0 103 -2 177 -38
61 -30 88 -50 127 -97 27 -32 52 -69 56 -80 4 -12 10 -20 14 -18 4 2 45 18 92
36 138 55 131 50 112 86 -45 88 -151 207 -212 237 -14 7 -37 21 -51 30 -97 63
-345 98 -465 65z"/>
<path d="M1185 1587 c-122 -41 -201 -122 -231 -236 -39 -155 40 -309 196 -378
100 -45 245 -30 328 33 85 66 123 125 139 217 9 50 9 49 -1 110 -9 54 -14 55
-88 27 -29 -11 -57 -20 -63 -20 -14 1 64 35 98 44 18 4 27 13 27 27 0 30 -101
126 -165 155 -67 31 -180 41 -240 21z"/>
</g>
</svg>
